G04 #@! TF.GenerationSoftware,KiCad,Pcbnew,(6.0.0-rc1-dev-318-g6fdc5972f)*
G04 #@! TF.CreationDate,2018-11-24T15:56:51+01:00*
G04 #@! TF.ProjectId,Frack_KnipperLedPrint,467261636B5F4B6E69707065724C6564,rev?*
G04 #@! TF.SameCoordinates,Original*
G04 #@! TF.FileFunction,Soldermask,Top*
G04 #@! TF.FilePolarity,Negative*
%FSLAX46Y46*%
G04 Gerber Fmt 4.6, Leading zero omitted, Abs format (unit mm)*
G04 Created by KiCad (PCBNEW (6.0.0-rc1-dev-318-g6fdc5972f)) date 11/24/18 15:56:51*
%MOMM*%
%LPD*%
G01*
G04 APERTURE LIST*
%ADD10C,0.000001*%
%ADD11C,2.020000*%
%ADD12C,0.100000*%
%ADD13C,1.500000*%
%ADD14R,2.200000X1.500000*%
%ADD15C,3.900120*%
%ADD16O,2.000000X2.000000*%
%ADD17C,2.000000*%
%ADD18C,2.200000*%
%ADD19R,2.200000X2.200000*%
%ADD20R,2.000000X2.000000*%
G04 APERTURE END LIST*
D10*
G04 #@! TO.C,*
G36*
X8775362Y-21536902D02*
X8186768Y-21960649D01*
X7503605Y-21715702D01*
X7724780Y-22406616D01*
X7280880Y-22980225D01*
X8006417Y-22983842D01*
X8414661Y-23583288D01*
X8642037Y-22894441D01*
X9338635Y-22690836D01*
X8753658Y-22261922D01*
X8775362Y-21536902D01*
X8775362Y-21536902D01*
G37*
X8775362Y-21536902D02*
X8186768Y-21960649D01*
X7503605Y-21715702D01*
X7724780Y-22406616D01*
X7280880Y-22980225D01*
X8006417Y-22983842D01*
X8414661Y-23583288D01*
X8642037Y-22894441D01*
X9338635Y-22690836D01*
X8753658Y-22261922D01*
X8775362Y-21536902D01*
G36*
X31830286Y-20082727D02*
X31942423Y-20799479D01*
X31415840Y-21298157D01*
X32132076Y-21412878D01*
X32443685Y-22068136D01*
X32774414Y-21422180D01*
X33493750Y-21328129D01*
X32981636Y-20814465D01*
X33114445Y-20101330D01*
X32467456Y-20429476D01*
X31830286Y-20082727D01*
X31830286Y-20082727D01*
G37*
X31830286Y-20082727D02*
X31942423Y-20799479D01*
X31415840Y-21298157D01*
X32132076Y-21412878D01*
X32443685Y-22068136D01*
X32774414Y-21422180D01*
X33493750Y-21328129D01*
X32981636Y-20814465D01*
X33114445Y-20101330D01*
X32467456Y-20429476D01*
X31830286Y-20082727D01*
G36*
X20000000Y-4757565D02*
X19835332Y-4758674D01*
X19671070Y-4762002D01*
X19507220Y-4767547D01*
X19343793Y-4775306D01*
X19180796Y-4785278D01*
X19018238Y-4797461D01*
X18856127Y-4811854D01*
X18694471Y-4828455D01*
X18533280Y-4847261D01*
X18372562Y-4868272D01*
X18212324Y-4891485D01*
X18052576Y-4916899D01*
X17893326Y-4944512D01*
X17734583Y-4974323D01*
X17576354Y-5006328D01*
X17418649Y-5040527D01*
X17261475Y-5076919D01*
X17104842Y-5115500D01*
X16948757Y-5156270D01*
X16793230Y-5199226D01*
X16638268Y-5244368D01*
X16483880Y-5291692D01*
X16330074Y-5341198D01*
X16176860Y-5392884D01*
X16024245Y-5446748D01*
X15872238Y-5502788D01*
X15720847Y-5561002D01*
X15570081Y-5621389D01*
X15419948Y-5683946D01*
X15270457Y-5748673D01*
X15121616Y-5815567D01*
X14973433Y-5884627D01*
X14964450Y-5882935D01*
X14955432Y-5881350D01*
X14946387Y-5879860D01*
X14937324Y-5878454D01*
X14928250Y-5877119D01*
X14919173Y-5875843D01*
X14908690Y-5874439D01*
X14898187Y-5873136D01*
X14887665Y-5871935D01*
X14877129Y-5870839D01*
X14866583Y-5869850D01*
X14856029Y-5868970D01*
X14845471Y-5868201D01*
X14834912Y-5867544D01*
X14824357Y-5867002D01*
X14813807Y-5866578D01*
X14803267Y-5866272D01*
X14792741Y-5866087D01*
X14782231Y-5866024D01*
X14744819Y-5866739D01*
X14707680Y-5868867D01*
X14670845Y-5872387D01*
X14634344Y-5877276D01*
X14598209Y-5883512D01*
X14562471Y-5891073D01*
X14527161Y-5899937D01*
X14492310Y-5910081D01*
X14457949Y-5921483D01*
X14424109Y-5934122D01*
X14390821Y-5947975D01*
X14358116Y-5963019D01*
X14326025Y-5979232D01*
X14294579Y-5996593D01*
X14263810Y-6015079D01*
X14233748Y-6034668D01*
X14204424Y-6055337D01*
X14175869Y-6077065D01*
X14148115Y-6099828D01*
X14121193Y-6123606D01*
X14095133Y-6148376D01*
X14069966Y-6174114D01*
X14045724Y-6200801D01*
X14022438Y-6228412D01*
X14000139Y-6256926D01*
X13978857Y-6286321D01*
X13958623Y-6316574D01*
X13939470Y-6347664D01*
X13921428Y-6379568D01*
X13904527Y-6412263D01*
X13888799Y-6445728D01*
X13874276Y-6479940D01*
X14041038Y-6576553D01*
X14050415Y-6560451D01*
X14060125Y-6544590D01*
X14070162Y-6528972D01*
X14080522Y-6513603D01*
X14091199Y-6498485D01*
X14102187Y-6483623D01*
X14113482Y-6469021D01*
X14125077Y-6454683D01*
X14136968Y-6440613D01*
X14149149Y-6426815D01*
X14161614Y-6413293D01*
X14174359Y-6400051D01*
X14187378Y-6387093D01*
X14200664Y-6374423D01*
X14214215Y-6362046D01*
X14228022Y-6349964D01*
X14242082Y-6338182D01*
X14256389Y-6326704D01*
X14270938Y-6315535D01*
X14285723Y-6304677D01*
X14300738Y-6294136D01*
X14315979Y-6283915D01*
X14331440Y-6274018D01*
X14347115Y-6264449D01*
X14355305Y-6258400D01*
X14363583Y-6252473D01*
X14371948Y-6246668D01*
X14380398Y-6240984D01*
X14388930Y-6235421D01*
X14397543Y-6229979D01*
X14406235Y-6224659D01*
X14415003Y-6219459D01*
X14423847Y-6214379D01*
X14432763Y-6209419D01*
X14441751Y-6204580D01*
X14450808Y-6199860D01*
X14459932Y-6195260D01*
X14469121Y-6190779D01*
X14478373Y-6186418D01*
X14487759Y-6182153D01*
X14497209Y-6178015D01*
X14506722Y-6174005D01*
X14516297Y-6170125D01*
X14525932Y-6166375D01*
X14535627Y-6162758D01*
X14545379Y-6159273D01*
X14555188Y-6155923D01*
X14565053Y-6152709D01*
X14574971Y-6149631D01*
X14584943Y-6146692D01*
X14594966Y-6143892D01*
X14605039Y-6141232D01*
X14615162Y-6138714D01*
X14625332Y-6136340D01*
X14635548Y-6134109D01*
X14645810Y-6132024D01*
X14656116Y-6130086D01*
X14666464Y-6128296D01*
X14676854Y-6126655D01*
X14687284Y-6125164D01*
X14697752Y-6123825D01*
X14708259Y-6122639D01*
X14718801Y-6121607D01*
X14729379Y-6120731D01*
X14739990Y-6120011D01*
X14750634Y-6119449D01*
X14761309Y-6119046D01*
X14772014Y-6118803D01*
X14782747Y-6118722D01*
X14792907Y-6118797D01*
X14803087Y-6119023D01*
X14813281Y-6119397D01*
X14823483Y-6119916D01*
X14833688Y-6120578D01*
X14843890Y-6121381D01*
X14854083Y-6122323D01*
X14864261Y-6123401D01*
X14874419Y-6124612D01*
X14884550Y-6125955D01*
X14893905Y-6127314D01*
X14903236Y-6128769D01*
X14912539Y-6130326D01*
X14921808Y-6131995D01*
X14931038Y-6133780D01*
X14940225Y-6135689D01*
X14949363Y-6137729D01*
X14958447Y-6139907D01*
X14994104Y-6149210D01*
X15002372Y-6151273D01*
X15043197Y-6131636D01*
X15068358Y-6119625D01*
X15093541Y-6107681D01*
X15118744Y-6095805D01*
X15143967Y-6083996D01*
X15169210Y-6072255D01*
X15194474Y-6060580D01*
X15219757Y-6048972D01*
X15245061Y-6037431D01*
X15270385Y-6025955D01*
X15295728Y-6014546D01*
X15321092Y-6003202D01*
X15346475Y-5991923D01*
X15371877Y-5980710D01*
X15397299Y-5969561D01*
X15422741Y-5958478D01*
X15448202Y-5947458D01*
X15473682Y-5936503D01*
X15499181Y-5925612D01*
X15524699Y-5914785D01*
X15550237Y-5904021D01*
X15575793Y-5893321D01*
X15601368Y-5882683D01*
X15626962Y-5872108D01*
X15652574Y-5861596D01*
X15678205Y-5851146D01*
X15703854Y-5840758D01*
X15729522Y-5830432D01*
X15755208Y-5820167D01*
X15780913Y-5809964D01*
X15806635Y-5799822D01*
X15832376Y-5789740D01*
X15858134Y-5779720D01*
X15981816Y-5732587D01*
X16105916Y-5686928D01*
X16230430Y-5642744D01*
X16355354Y-5600037D01*
X16480682Y-5558808D01*
X16606409Y-5519058D01*
X16732531Y-5480789D01*
X16859044Y-5444002D01*
X16985942Y-5408700D01*
X17113220Y-5374883D01*
X17240874Y-5342553D01*
X17368899Y-5311711D01*
X17497291Y-5282359D01*
X17626044Y-5254499D01*
X17755154Y-5228131D01*
X17884615Y-5203258D01*
X18014425Y-5179881D01*
X18144576Y-5158001D01*
X18275066Y-5137620D01*
X18405888Y-5118740D01*
X18537039Y-5101361D01*
X18668513Y-5085486D01*
X18800306Y-5071115D01*
X18932413Y-5058251D01*
X19064829Y-5046895D01*
X19197550Y-5037048D01*
X19330570Y-5028712D01*
X19463885Y-5021888D01*
X19597490Y-5016578D01*
X19731381Y-5012783D01*
X19865553Y-5010505D01*
X20000000Y-5009746D01*
X20287173Y-5013241D01*
X20573172Y-5023702D01*
X20857900Y-5041086D01*
X21141259Y-5065355D01*
X21423152Y-5096466D01*
X21703481Y-5134380D01*
X21982150Y-5179057D01*
X22259061Y-5230456D01*
X22534117Y-5288536D01*
X22807220Y-5353257D01*
X23078274Y-5424579D01*
X23347180Y-5502461D01*
X23613842Y-5586862D01*
X23878162Y-5677743D01*
X24140043Y-5775062D01*
X24399388Y-5878780D01*
X24656099Y-5988856D01*
X24910079Y-6105249D01*
X25161231Y-6227919D01*
X25409458Y-6356826D01*
X25654661Y-6491928D01*
X25896745Y-6633187D01*
X26135611Y-6780560D01*
X26371162Y-6934009D01*
X26603302Y-7093491D01*
X26831932Y-7258968D01*
X27056956Y-7430397D01*
X27278275Y-7607740D01*
X27495794Y-7790955D01*
X27709413Y-7980003D01*
X27919038Y-8174841D01*
X28124569Y-8375431D01*
X28325162Y-8580967D01*
X28520005Y-8790595D01*
X28709055Y-9004218D01*
X28892272Y-9221739D01*
X29069617Y-9443061D01*
X29241049Y-9668087D01*
X29406526Y-9896718D01*
X29566010Y-10128859D01*
X29719459Y-10364411D01*
X29866833Y-10603278D01*
X30008091Y-10845361D01*
X30143194Y-11090565D01*
X30272100Y-11338791D01*
X30394769Y-11589942D01*
X30511162Y-11843922D01*
X30621236Y-12100632D01*
X30724953Y-12359975D01*
X30822271Y-12621855D01*
X30913151Y-12886174D01*
X30997551Y-13152834D01*
X31075431Y-13421739D01*
X31146752Y-13692790D01*
X31211472Y-13965892D01*
X31269550Y-14240946D01*
X31320948Y-14517856D01*
X31365623Y-14796523D01*
X31403537Y-15076852D01*
X31434647Y-15358744D01*
X31458915Y-15642102D01*
X31476299Y-15926828D01*
X31486759Y-16212827D01*
X31490254Y-16500000D01*
X31486759Y-16787178D01*
X31476299Y-17073181D01*
X31458915Y-17357912D01*
X31434647Y-17641275D01*
X31403537Y-17923171D01*
X31365623Y-18203504D01*
X31320948Y-18482175D01*
X31269550Y-18759089D01*
X31211472Y-19034147D01*
X31146752Y-19307252D01*
X31075431Y-19578307D01*
X30997551Y-19847215D01*
X30913151Y-20113877D01*
X30822271Y-20378198D01*
X30724953Y-20640080D01*
X30621236Y-20899425D01*
X30511162Y-21156136D01*
X30394769Y-21410116D01*
X30272100Y-21661267D01*
X30143194Y-21909492D01*
X30008091Y-22154695D01*
X29866833Y-22396777D01*
X29719459Y-22635641D01*
X29566010Y-22871190D01*
X29406526Y-23103327D01*
X29241049Y-23331955D01*
X29069617Y-23556975D01*
X28892272Y-23778291D01*
X28709055Y-23995806D01*
X28520005Y-24209422D01*
X28325162Y-24419042D01*
X28124569Y-24624569D01*
X28117187Y-24631945D01*
X28109801Y-24639313D01*
X28102412Y-24646670D01*
X28095019Y-24654019D01*
X28087622Y-24661358D01*
X28080220Y-24668688D01*
X28072814Y-24676009D01*
X28065404Y-24683321D01*
X28057988Y-24690625D01*
X28050567Y-24697921D01*
X28043141Y-24705208D01*
X28035710Y-24712488D01*
X28028273Y-24719760D01*
X28020831Y-24727023D01*
X28013382Y-24734280D01*
X28005928Y-24741529D01*
X27998467Y-24748771D01*
X27991000Y-24756006D01*
X27983526Y-24763234D01*
X27976045Y-24770456D01*
X27968558Y-24777671D01*
X27961063Y-24784879D01*
X27953560Y-24792082D01*
X27946051Y-24799279D01*
X27938533Y-24806470D01*
X27930911Y-24813751D01*
X27923241Y-24821012D01*
X27915537Y-24828255D01*
X27907815Y-24835485D01*
X27900089Y-24842705D01*
X27892374Y-24849920D01*
X27884686Y-24857133D01*
X27877038Y-24864347D01*
X27869495Y-24871449D01*
X27861952Y-24878547D01*
X27854409Y-24885640D01*
X27846865Y-24892729D01*
X27839319Y-24899813D01*
X27831770Y-24906891D01*
X27824219Y-24913962D01*
X27816664Y-24921028D01*
X27809104Y-24928086D01*
X27801538Y-24935136D01*
X27793966Y-24942179D01*
X27786388Y-24949212D01*
X27778801Y-24956237D01*
X27771207Y-24963253D01*
X27763603Y-24970258D01*
X27755989Y-24977253D01*
X27748364Y-24984236D01*
X27741095Y-24990859D01*
X27733824Y-24997454D01*
X27726549Y-25004027D01*
X27719271Y-25010584D01*
X27711988Y-25017130D01*
X27704702Y-25023669D01*
X27697410Y-25030207D01*
X27690113Y-25036749D01*
X27682810Y-25043300D01*
X27675500Y-25049866D01*
X27667963Y-25056656D01*
X27660426Y-25063446D01*
X27652889Y-25070236D01*
X27645351Y-25077024D01*
X27637810Y-25083809D01*
X27630268Y-25090589D01*
X27622723Y-25097363D01*
X27615174Y-25104131D01*
X27607621Y-25110890D01*
X27600063Y-25117640D01*
X27592499Y-25124379D01*
X27584930Y-25131106D01*
X27577353Y-25137820D01*
X27569770Y-25144519D01*
X27562178Y-25151203D01*
X27554577Y-25157869D01*
X27546934Y-25164540D01*
X27539261Y-25171188D01*
X27531566Y-25177818D01*
X27523854Y-25184433D01*
X27516132Y-25191038D01*
X27508406Y-25197634D01*
X27500681Y-25204226D01*
X27492965Y-25210818D01*
X27485262Y-25217413D01*
X27477580Y-25224015D01*
X27470002Y-25230527D01*
X27462427Y-25237034D01*
X27454854Y-25243534D01*
X27447283Y-25250028D01*
X27439711Y-25256516D01*
X27432138Y-25262997D01*
X27424564Y-25269470D01*
X27416986Y-25275937D01*
X27409405Y-25282395D01*
X27401818Y-25288846D01*
X27394226Y-25295288D01*
X27386627Y-25301722D01*
X27379020Y-25308147D01*
X27371403Y-25314564D01*
X27363777Y-25320971D01*
X27356140Y-25327368D01*
X27348463Y-25333794D01*
X27340776Y-25340224D01*
X27333082Y-25346653D01*
X27325382Y-25353081D01*
X27317678Y-25359503D01*
X27309971Y-25365918D01*
X27302262Y-25372322D01*
X27294553Y-25378714D01*
X27286846Y-25385089D01*
X27279142Y-25391447D01*
X27271276Y-25397900D01*
X27263401Y-25404344D01*
X27255517Y-25410779D01*
X27247624Y-25417205D01*
X27239725Y-25423623D01*
X27231818Y-25430034D01*
X27223905Y-25436436D01*
X27215988Y-25442832D01*
X27208065Y-25449220D01*
X27200139Y-25455602D01*
X27192209Y-25461977D01*
X27184276Y-25468346D01*
X27176342Y-25474709D01*
X27168407Y-25481067D01*
X27160471Y-25487419D01*
X27152535Y-25493766D01*
X27144304Y-25500332D01*
X27136062Y-25506897D01*
X27127809Y-25513460D01*
X27119547Y-25520018D01*
X27111276Y-25526570D01*
X27102997Y-25533114D01*
X27094711Y-25539648D01*
X27086418Y-25546170D01*
X27078121Y-25552677D01*
X27070163Y-25558907D01*
X27062200Y-25565119D01*
X27054231Y-25571314D01*
X27046256Y-25577495D01*
X27038276Y-25583661D01*
X27030291Y-25589815D01*
X27022302Y-25595958D01*
X27014308Y-25602091D01*
X27006310Y-25608216D01*
X26998309Y-25614333D01*
X26990303Y-25620444D01*
X26982295Y-25626551D01*
X26974283Y-25632655D01*
X26966269Y-25638757D01*
X26958252Y-25644858D01*
X26950233Y-25650960D01*
X26942212Y-25657064D01*
X26934725Y-25662789D01*
X26927261Y-25668542D01*
X26919812Y-25674312D01*
X26912370Y-25680090D01*
X26904930Y-25685866D01*
X26897483Y-25691628D01*
X26890022Y-25697368D01*
X26882541Y-25703076D01*
X26875032Y-25708740D01*
X26866977Y-25714779D01*
X26858915Y-25720805D01*
X26850847Y-25726821D01*
X26842773Y-25732827D01*
X26834694Y-25738822D01*
X26826609Y-25744807D01*
X26818518Y-25750783D01*
X26810422Y-25756750D01*
X26802321Y-25762708D01*
X26794214Y-25768659D01*
X26786102Y-25774601D01*
X26777985Y-25780536D01*
X26769864Y-25786465D01*
X26761737Y-25792386D01*
X26753606Y-25798302D01*
X26745470Y-25804212D01*
X26737330Y-25810116D01*
X26729186Y-25816016D01*
X26721037Y-25821912D01*
X26713600Y-25827307D01*
X26706144Y-25832709D01*
X26698676Y-25838113D01*
X26691204Y-25843512D01*
X26683737Y-25848903D01*
X26676281Y-25854279D01*
X26668843Y-25859635D01*
X26660555Y-25865565D01*
X26652265Y-25871485D01*
X26643972Y-25877396D01*
X26635677Y-25883298D01*
X26627379Y-25889191D01*
X26619078Y-25895075D01*
X26610774Y-25900951D01*
X26602466Y-25906818D01*
X26594155Y-25912677D01*
X26585840Y-25918528D01*
X26577520Y-25924371D01*
X26569196Y-25930206D01*
X26560866Y-25936033D01*
X26552532Y-25941853D01*
X26544193Y-25947666D01*
X26535848Y-25953472D01*
X26527497Y-25959270D01*
X26519140Y-25965062D01*
X26510777Y-25970847D01*
X26502407Y-25976626D01*
X26494030Y-25982398D01*
X26485646Y-25988164D01*
X26477255Y-25993924D01*
X26468856Y-25999678D01*
X26460072Y-26005362D01*
X26446316Y-26014731D01*
X26432549Y-26024080D01*
X26418770Y-26033408D01*
X26404980Y-26042714D01*
X26391178Y-26052001D01*
X26377365Y-26061266D01*
X26363539Y-26070510D01*
X26349702Y-26079734D01*
X26335854Y-26088936D01*
X26321994Y-26098118D01*
X26308122Y-26107278D01*
X26294238Y-26116417D01*
X26280343Y-26125536D01*
X26266436Y-26134633D01*
X26252517Y-26143709D01*
X26238587Y-26152764D01*
X26224645Y-26161798D01*
X26210691Y-26170811D01*
X26196725Y-26179802D01*
X26182748Y-26188773D01*
X26168759Y-26197722D01*
X26154758Y-26206649D01*
X26140746Y-26215556D01*
X26126722Y-26224441D01*
X26112686Y-26233304D01*
X26098638Y-26242147D01*
X26084578Y-26250968D01*
X26070507Y-26259767D01*
X26056424Y-26268545D01*
X26042329Y-26277301D01*
X26028222Y-26286036D01*
X26014104Y-26294750D01*
X26005320Y-26300433D01*
X25996524Y-26305840D01*
X25987722Y-26311240D01*
X25978916Y-26316633D01*
X25970105Y-26322020D01*
X25961290Y-26327399D01*
X25952469Y-26332770D01*
X25943644Y-26338135D01*
X25934814Y-26343491D01*
X25925979Y-26348840D01*
X25917140Y-26354182D01*
X25908296Y-26359515D01*
X25899448Y-26364840D01*
X25890595Y-26370158D01*
X25881738Y-26375466D01*
X25872876Y-26380767D01*
X25864010Y-26386059D01*
X25855140Y-26391342D01*
X25846265Y-26396617D01*
X25837386Y-26401883D01*
X25828503Y-26407139D01*
X25819616Y-26412387D01*
X25810725Y-26417625D01*
X25801829Y-26422854D01*
X25792930Y-26428074D01*
X25784805Y-26432750D01*
X25776651Y-26437369D01*
X25768497Y-26441991D01*
X25760373Y-26446677D01*
X25751242Y-26451976D01*
X25742104Y-26457267D01*
X25732961Y-26462551D01*
X25723812Y-26467827D01*
X25714658Y-26473095D01*
X25705498Y-26478356D01*
X25696334Y-26483608D01*
X25687165Y-26488852D01*
X25677991Y-26494088D01*
X25668813Y-26499316D01*
X25659630Y-26504534D01*
X25650444Y-26509745D01*
X25641254Y-26514946D01*
X25632060Y-26520139D01*
X25622863Y-26525323D01*
X25613663Y-26530498D01*
X25604459Y-26535663D01*
X25595253Y-26540819D01*
X25586045Y-26545966D01*
X25576834Y-26551103D01*
X25567620Y-26556231D01*
X25559361Y-26560791D01*
X25551071Y-26565350D01*
X25542776Y-26569901D01*
X25534503Y-26574442D01*
X25526279Y-26578969D01*
X25517332Y-26583885D01*
X25508382Y-26588790D01*
X25499431Y-26593685D01*
X25490476Y-26598570D01*
X25481519Y-26603445D01*
X25472559Y-26608310D01*
X25463596Y-26613165D01*
X25454630Y-26618011D01*
X25445660Y-26622848D01*
X25436686Y-26627676D01*
X25427708Y-26632495D01*
X25418726Y-26637306D01*
X25409739Y-26642108D01*
X25400748Y-26646903D01*
X25391752Y-26651689D01*
X25382751Y-26656468D01*
X25373744Y-26661239D01*
X25364732Y-26666003D01*
X25355714Y-26670761D01*
X25346690Y-26675511D01*
X25337660Y-26680255D01*
X25329268Y-26684705D01*
X25320906Y-26689166D01*
X25312556Y-26693624D01*
X25304195Y-26698065D01*
X25295802Y-26702474D01*
X25286618Y-26707246D01*
X25277429Y-26712005D01*
X25268235Y-26716754D01*
X25259037Y-26721492D01*
X25249835Y-26726219D01*
X25240628Y-26730936D01*
X25231416Y-26735643D01*
X25222201Y-26740340D01*
X25212981Y-26745028D01*
X25203756Y-26749707D01*
X25194528Y-26754377D01*
X25185295Y-26759038D01*
X25176058Y-26763692D01*
X25166817Y-26768337D01*
X25157571Y-26772975D01*
X25148322Y-26777606D01*
X25139069Y-26782229D01*
X25129811Y-26786846D01*
X25120550Y-26791457D01*
X25111285Y-26796061D01*
X25102016Y-26800660D01*
X25092732Y-26805280D01*
X25083440Y-26809957D01*
X25074134Y-26814636D01*
X25064809Y-26819262D01*
X25055426Y-26823871D01*
X25046035Y-26828469D01*
X25036636Y-26833055D01*
X25027230Y-26837630D01*
X25017817Y-26842195D01*
X25008397Y-26846750D01*
X24998970Y-26851295D01*
X24989538Y-26855830D01*
X24980100Y-26860356D01*
X24970657Y-26864873D01*
X24961209Y-26869382D01*
X24951757Y-26873882D01*
X24942300Y-26878373D01*
X24932840Y-26882857D01*
X24923376Y-26887333D01*
X24913910Y-26891803D01*
X24904441Y-26896265D01*
X24894969Y-26900720D01*
X24885496Y-26905169D01*
X24876021Y-26909612D01*
X24866546Y-26914049D01*
X24857069Y-26918481D01*
X24848953Y-26922259D01*
X24840893Y-26926031D01*
X24832781Y-26929850D01*
X24823439Y-26934181D01*
X24814093Y-26938505D01*
X24804745Y-26942824D01*
X24795392Y-26947137D01*
X24786037Y-26951442D01*
X24776677Y-26955742D01*
X24767315Y-26960034D01*
X24757948Y-26964318D01*
X24748579Y-26968596D01*
X24739205Y-26972865D01*
X24729828Y-26977126D01*
X24720448Y-26981379D01*
X24711064Y-26985623D01*
X24701676Y-26989859D01*
X24692285Y-26994085D01*
X24682890Y-26998302D01*
X24673491Y-27002509D01*
X24664089Y-27006706D01*
X24654683Y-27010893D01*
X24645274Y-27015070D01*
X24635860Y-27019236D01*
X24626443Y-27023391D01*
X24617022Y-27027534D01*
X24607598Y-27031666D01*
X24598170Y-27035787D01*
X24598170Y-27036316D01*
X24590694Y-27039609D01*
X24583213Y-27042799D01*
X24575718Y-27045977D01*
X24568197Y-27049236D01*
X24561473Y-27052180D01*
X24554769Y-27055076D01*
X24548044Y-27058020D01*
X24501504Y-27078261D01*
X24454849Y-27098275D01*
X24408079Y-27118063D01*
X24361195Y-27137624D01*
X24314199Y-27156958D01*
X24267090Y-27176067D01*
X24219870Y-27194950D01*
X24172540Y-27213607D01*
X24125100Y-27232040D01*
X24077551Y-27250247D01*
X24029893Y-27268229D01*
X23982129Y-27285987D01*
X23934257Y-27303521D01*
X23886280Y-27320831D01*
X23838198Y-27337917D01*
X23790012Y-27354780D01*
X23741722Y-27371420D01*
X23693330Y-27387837D01*
X23644835Y-27404031D01*
X23596240Y-27420003D01*
X23547545Y-27435753D01*
X23498750Y-27451281D01*
X23449856Y-27466588D01*
X23400864Y-27481673D01*
X23351776Y-27496538D01*
X23302591Y-27511181D01*
X23253310Y-27525604D01*
X23203935Y-27539807D01*
X23154466Y-27553790D01*
X23104904Y-27567553D01*
X23055249Y-27581097D01*
X23005503Y-27594421D01*
X23004973Y-27594421D01*
X22995053Y-27597088D01*
X22985121Y-27599739D01*
X22975180Y-27602374D01*
X22965232Y-27604994D01*
X22955276Y-27607601D01*
X22945315Y-27610195D01*
X22935349Y-27612778D01*
X22925381Y-27615352D01*
X22915411Y-27617916D01*
X22905441Y-27620473D01*
X22895471Y-27623023D01*
X22885504Y-27625567D01*
X22875540Y-27628107D01*
X22865581Y-27630644D01*
X22855629Y-27633178D01*
X22845624Y-27635733D01*
X22835658Y-27638326D01*
X22825715Y-27640941D01*
X22815779Y-27643561D01*
X22805836Y-27646166D01*
X22795870Y-27648740D01*
X22785865Y-27651265D01*
X22776231Y-27653646D01*
X22766584Y-27656004D01*
X22756925Y-27658340D01*
X22747257Y-27660657D01*
X22737581Y-27662957D01*
X22727900Y-27665243D01*
X22718214Y-27667518D01*
X22708527Y-27669783D01*
X22698840Y-27672040D01*
X22689155Y-27674293D01*
X22679474Y-27676544D01*
X22669799Y-27678794D01*
X22660131Y-27681047D01*
X22650473Y-27683305D01*
X22640861Y-27685572D01*
X22631272Y-27687840D01*
X22621698Y-27690105D01*
X22612131Y-27692364D01*
X22602566Y-27694614D01*
X22592994Y-27696851D01*
X22583410Y-27699073D01*
X22573805Y-27701277D01*
X22564173Y-27703458D01*
X22554437Y-27705647D01*
X22544684Y-27707830D01*
X22534916Y-27710005D01*
X22525137Y-27712174D01*
X22515349Y-27714336D01*
X22505555Y-27716490D01*
X22495757Y-27718637D01*
X22485959Y-27720777D01*
X22476162Y-27722910D01*
X22466370Y-27725035D01*
X22456586Y-27727152D01*
X22446811Y-27729262D01*
X22437049Y-27731363D01*
X22427286Y-27733462D01*
X22417525Y-27735558D01*
X22407766Y-27737649D01*
X22398007Y-27739734D01*
X22388246Y-27741811D01*
X22378483Y-27743880D01*
X22368717Y-27745938D01*
X22358945Y-27747984D01*
X22349167Y-27750017D01*
X22339381Y-27752035D01*
X22329429Y-27754086D01*
X22319485Y-27756138D01*
X22309546Y-27758188D01*
X22299611Y-27760236D01*
X22289677Y-27762280D01*
X22279743Y-27764318D01*
X22269806Y-27766348D01*
X22259864Y-27768368D01*
X22249915Y-27770378D01*
X22239958Y-27772375D01*
X22229990Y-27774358D01*
X22220008Y-27776324D01*
X22210207Y-27778221D01*
X22200400Y-27780096D01*
X22190587Y-27781952D01*
X22180770Y-27783792D01*
X22170949Y-27785619D01*
X22161126Y-27787436D01*
X22151301Y-27789246D01*
X22141475Y-27791052D01*
X22131650Y-27792857D01*
X22121826Y-27794665D01*
X22112005Y-27796477D01*
X22101793Y-27798377D01*
X22091574Y-27800257D01*
X22081347Y-27802120D01*
X22071113Y-27803968D01*
X22060872Y-27805803D01*
X22050627Y-27807626D01*
X22040378Y-27809439D01*
X22030124Y-27811244D01*
X22019868Y-27813043D01*
X22009610Y-27814838D01*
X21999350Y-27816631D01*
X21989359Y-27818374D01*
X21979374Y-27820102D01*
X21969392Y-27821818D01*
X21959413Y-27823521D01*
X21949434Y-27825212D01*
X21939453Y-27826892D01*
X21929470Y-27828562D01*
X21919483Y-27830222D01*
X21909490Y-27831874D01*
X21899490Y-27833517D01*
X21889481Y-27835154D01*
X21879461Y-27836784D01*
X21869212Y-27838466D01*
X21858942Y-27840151D01*
X21848657Y-27841834D01*
X21838361Y-27843513D01*
X21828060Y-27845184D01*
X21817756Y-27846845D01*
X21807457Y-27848492D01*
X21797165Y-27850123D01*
X21786886Y-27851733D01*
X21776625Y-27853320D01*
X21766596Y-27854858D01*
X21756567Y-27856386D01*
X21746538Y-27857904D01*
X21736507Y-27859412D01*
X21726476Y-27860910D01*
X21716442Y-27862400D01*
X21706407Y-27863880D01*
X21696368Y-27865350D01*
X21686327Y-27866812D01*
X21676283Y-27868265D01*
X21666235Y-27869710D01*
X21656183Y-27871146D01*
X21646126Y-27872573D01*
X21636065Y-27873992D01*
X21626696Y-27875331D01*
X21617338Y-27876677D01*
X21607987Y-27878025D01*
X21598639Y-27879370D01*
X21589291Y-27880707D01*
X21579940Y-27882032D01*
X21570582Y-27883338D01*
X21561214Y-27884622D01*
X21551832Y-27885877D01*
X21541557Y-27887251D01*
X21531283Y-27888619D01*
X21521009Y-27889982D01*
X21510735Y-27891338D01*
X21500460Y-27892688D01*
X21490185Y-27894031D01*
X21479910Y-27895368D01*
X21469633Y-27896696D01*
X21459355Y-27898017D01*
X21449075Y-27899329D01*
X21438793Y-27900633D01*
X21428509Y-27901928D01*
X21418223Y-27903213D01*
X21407934Y-27904489D01*
X21397642Y-27905754D01*
X21387346Y-27907009D01*
X21377047Y-27908254D01*
X21366744Y-27909487D01*
X21356437Y-27910708D01*
X21346126Y-27911918D01*
X21335810Y-27913115D01*
X21325489Y-27914299D01*
X21305560Y-27916692D01*
X21285619Y-27919050D01*
X21265668Y-27921373D01*
X21245706Y-27923660D01*
X21225733Y-27925913D01*
X21205750Y-27928131D01*
X21185756Y-27930314D01*
X21165752Y-27932463D01*
X21145737Y-27934576D01*
X21125712Y-27936655D01*
X21105677Y-27938700D01*
X21085631Y-27940710D01*
X21065576Y-27942685D01*
X21045510Y-27944626D01*
X21025433Y-27946532D01*
X21005347Y-27948405D01*
X20985251Y-27950242D01*
X20965145Y-27952046D01*
X20945029Y-27953815D01*
X20924902Y-27955551D01*
X20904766Y-27957252D01*
X20884621Y-27958919D01*
X20864465Y-27960552D01*
X20844300Y-27962151D01*
X20824125Y-27963716D01*
X20803941Y-27965247D01*
X20783747Y-27966745D01*
X20763543Y-27968209D01*
X20743330Y-27969639D01*
X20723107Y-27971035D01*
X20702876Y-27972398D01*
X20682635Y-27973727D01*
X20672424Y-27974399D01*
X20662214Y-27975074D01*
X20652004Y-27975750D01*
X20641794Y-27976425D01*
X20631584Y-27977095D01*
X20621373Y-27977758D01*
X20611160Y-27978412D01*
X20600946Y-27979054D01*
X20590729Y-27979682D01*
X20580509Y-27980292D01*
X20570285Y-27980883D01*
X20560058Y-27981452D01*
X20549826Y-27981996D01*
X20530657Y-27982999D01*
X20511481Y-27983971D01*
X20492299Y-27984913D01*
X20473111Y-27985824D01*
X20453917Y-27986705D01*
X20434716Y-27987555D01*
X20415509Y-27988374D01*
X20396294Y-27989161D01*
X20377073Y-27989918D01*
X20357845Y-27990644D01*
X20338610Y-27991338D01*
X20319367Y-27992001D01*
X20300117Y-27992632D01*
X20280860Y-27993232D01*
X20261595Y-27993800D01*
X20242322Y-27994337D01*
X20223041Y-27994841D01*
X20203753Y-27995314D01*
X20184456Y-27995755D01*
X20165151Y-27996164D01*
X20145838Y-27996540D01*
X20126516Y-27996884D01*
X20107186Y-27997196D01*
X20087847Y-27997475D01*
X20068500Y-27997722D01*
X20049143Y-27997937D01*
X20029778Y-27998118D01*
X20010403Y-27998267D01*
X19991019Y-27998383D01*
X19971625Y-27998466D01*
X19952222Y-27998515D01*
X19932810Y-27998532D01*
X19868381Y-27998355D01*
X19804034Y-27997826D01*
X19739771Y-27996944D01*
X19675592Y-27995712D01*
X19611498Y-27994130D01*
X19547490Y-27992198D01*
X19483569Y-27989918D01*
X19419737Y-27987290D01*
X19355994Y-27984316D01*
X19292342Y-27980996D01*
X19228781Y-27977332D01*
X19165312Y-27973324D01*
X19101937Y-27968972D01*
X19038656Y-27964279D01*
X18975471Y-27959244D01*
X18912382Y-27953869D01*
X18849390Y-27948155D01*
X18786497Y-27942102D01*
X18723704Y-27935712D01*
X18661011Y-27928984D01*
X18598420Y-27921921D01*
X18535931Y-27914523D01*
X18473546Y-27906791D01*
X18411266Y-27898726D01*
X18349091Y-27890328D01*
X18287023Y-27881599D01*
X18225062Y-27872539D01*
X18163211Y-27863150D01*
X18101469Y-27853432D01*
X18039838Y-27843387D01*
X17978318Y-27833014D01*
X17916912Y-27822315D01*
X17801871Y-27801335D01*
X17687234Y-27779213D01*
X17573007Y-27755957D01*
X17459195Y-27731573D01*
X17345804Y-27706067D01*
X17232841Y-27679445D01*
X17120311Y-27651712D01*
X17008221Y-27622877D01*
X16896577Y-27592943D01*
X16785383Y-27561918D01*
X16674647Y-27529808D01*
X16564375Y-27496619D01*
X16454572Y-27462356D01*
X16345244Y-27427027D01*
X16236397Y-27390637D01*
X16128038Y-27353193D01*
X16020172Y-27314700D01*
X15912806Y-27275165D01*
X15805944Y-27234593D01*
X15699594Y-27192992D01*
X15593761Y-27150367D01*
X15488451Y-27106724D01*
X15383670Y-27062069D01*
X15279425Y-27016409D01*
X15175720Y-26969750D01*
X15072563Y-26922098D01*
X14969959Y-26873458D01*
X14867913Y-26823838D01*
X14766433Y-26773243D01*
X14665524Y-26721679D01*
X14565192Y-26669153D01*
X14465443Y-26615671D01*
X14406145Y-26583270D01*
X14347059Y-26550529D01*
X14288186Y-26517449D01*
X14229527Y-26484032D01*
X14171085Y-26450279D01*
X14112859Y-26416191D01*
X14054852Y-26381770D01*
X13997064Y-26347018D01*
X13939498Y-26311936D01*
X13882154Y-26276525D01*
X13825034Y-26240787D01*
X13768138Y-26204723D01*
X13711469Y-26168335D01*
X13655028Y-26131624D01*
X13598816Y-26094592D01*
X13542833Y-26057240D01*
X13487083Y-26019570D01*
X13431565Y-25981582D01*
X13376281Y-25943279D01*
X13321233Y-25904662D01*
X13266422Y-25865733D01*
X13211849Y-25826492D01*
X13157516Y-25786942D01*
X13103423Y-25747083D01*
X13049572Y-25706918D01*
X12995965Y-25666447D01*
X12942602Y-25625673D01*
X12889485Y-25584596D01*
X12836616Y-25543218D01*
X12783996Y-25501541D01*
X12731625Y-25459566D01*
X12679506Y-25417294D01*
X12604786Y-25353397D01*
X12530195Y-25288557D01*
X12455735Y-25222768D01*
X12381413Y-25156025D01*
X12307230Y-25088321D01*
X12233192Y-25019652D01*
X12159302Y-24950010D01*
X12085565Y-24879390D01*
X12011984Y-24807787D01*
X11938564Y-24735194D01*
X11865308Y-24661605D01*
X11792221Y-24587015D01*
X11719307Y-24511417D01*
X11646570Y-24434806D01*
X11574013Y-24357177D01*
X11501642Y-24278522D01*
X11429459Y-24198836D01*
X11357470Y-24118114D01*
X11285677Y-24036348D01*
X11214086Y-23953535D01*
X11142700Y-23869667D01*
X11071523Y-23784738D01*
X11000559Y-23698744D01*
X10929813Y-23611678D01*
X10859288Y-23523533D01*
X10788988Y-23434305D01*
X10718918Y-23343987D01*
X10649082Y-23252574D01*
X10579483Y-23160059D01*
X10510126Y-23066437D01*
X10441015Y-22971702D01*
X10372153Y-22875847D01*
X10365528Y-22865891D01*
X10358915Y-22855929D01*
X10352313Y-22845960D01*
X10345722Y-22835985D01*
X10339143Y-22826004D01*
X10332575Y-22816015D01*
X10326017Y-22806020D01*
X10319471Y-22796019D01*
X10312936Y-22786011D01*
X10306411Y-22775996D01*
X10299897Y-22765975D01*
X10293394Y-22755947D01*
X10286902Y-22745911D01*
X10280420Y-22735870D01*
X10273948Y-22725821D01*
X10267487Y-22715765D01*
X10261035Y-22705702D01*
X10254595Y-22695633D01*
X10248164Y-22685556D01*
X10241743Y-22675473D01*
X10235332Y-22665382D01*
X10228931Y-22655284D01*
X10222540Y-22645179D01*
X10216159Y-22635066D01*
X10209787Y-22624947D01*
X10203425Y-22614820D01*
X10197072Y-22604686D01*
X10190728Y-22594544D01*
X10184394Y-22584395D01*
X10178069Y-22574238D01*
X10171754Y-22564075D01*
X10165447Y-22553903D01*
X10160706Y-22546151D01*
X10155628Y-22538401D01*
X10149453Y-22528389D01*
X10143286Y-22518372D01*
X10137129Y-22508349D01*
X10130981Y-22498321D01*
X10124842Y-22488288D01*
X10118713Y-22478249D01*
X10112594Y-22468204D01*
X10106484Y-22458153D01*
X10100384Y-22448097D01*
X10094294Y-22438034D01*
X10088213Y-22427965D01*
X10082142Y-22417890D01*
X10076081Y-22407809D01*
X10070030Y-22397721D01*
X10063989Y-22387626D01*
X10057958Y-22377525D01*
X10051937Y-22367417D01*
X10045927Y-22357302D01*
X10039926Y-22347180D01*
X10033936Y-22337051D01*
X10027956Y-22326915D01*
X10021987Y-22316771D01*
X10016028Y-22306620D01*
X10010079Y-22296461D01*
X10004141Y-22286295D01*
X9998214Y-22276121D01*
X9992297Y-22265939D01*
X9986391Y-22255749D01*
X9980496Y-22245551D01*
X9974611Y-22235344D01*
X9968738Y-22225130D01*
X9962875Y-22214907D01*
X9970166Y-22210382D01*
X9978334Y-22205254D01*
X9987300Y-22199527D01*
X9996982Y-22193203D01*
X9989890Y-22180022D01*
X9982840Y-22166837D01*
X9975834Y-22153656D01*
X9968873Y-22140483D01*
X9961960Y-22127326D01*
X9955096Y-22114191D01*
X9948284Y-22101084D01*
X9941526Y-22088011D01*
X9934824Y-22074979D01*
X9928179Y-22061994D01*
X9921594Y-22049062D01*
X9915070Y-22036190D01*
X9908610Y-22023384D01*
X9902215Y-22010649D01*
X9895889Y-21997994D01*
X9889631Y-21985423D01*
X9883446Y-21972944D01*
X9877334Y-21960562D01*
X9871297Y-21948284D01*
X9865339Y-21936115D01*
X9859459Y-21924064D01*
X9853662Y-21912134D01*
X9847948Y-21900334D01*
X9842319Y-21888669D01*
X9836778Y-21877146D01*
X9831327Y-21865771D01*
X9825967Y-21854550D01*
X9820701Y-21843489D01*
X9815530Y-21832596D01*
X9810457Y-21821875D01*
X9805483Y-21811334D01*
X9800611Y-21800979D01*
X9795908Y-21791948D01*
X9791219Y-21782914D01*
X9786545Y-21773877D01*
X9781884Y-21764837D01*
X9777235Y-21755793D01*
X9772598Y-21746746D01*
X9767971Y-21737695D01*
X9763354Y-21728641D01*
X9758745Y-21719583D01*
X9754144Y-21710522D01*
X9749549Y-21701456D01*
X9744960Y-21692387D01*
X9740375Y-21683314D01*
X9735794Y-21674238D01*
X9731216Y-21665157D01*
X9726639Y-21656072D01*
X9722063Y-21646983D01*
X9718446Y-21640265D01*
X9714827Y-21635969D01*
X9710557Y-21628295D01*
X9705977Y-21618584D01*
X9701430Y-21608174D01*
X9697258Y-21598407D01*
X9694378Y-21592463D01*
X9691575Y-21586522D01*
X9686424Y-21579677D01*
X9681908Y-21572416D01*
X9678056Y-21564754D01*
X9674895Y-21556704D01*
X9672454Y-21548282D01*
X9602229Y-21402292D01*
X9534111Y-21255355D01*
X9468110Y-21107488D01*
X9404232Y-20958711D01*
X9342486Y-20809042D01*
X9282879Y-20658501D01*
X9225420Y-20507106D01*
X9170117Y-20354876D01*
X9116978Y-20201830D01*
X9066010Y-20047986D01*
X9017222Y-19893365D01*
X8970621Y-19737984D01*
X8926215Y-19581863D01*
X8884014Y-19425021D01*
X8844023Y-19267475D01*
X8806252Y-19109246D01*
X8770709Y-18950352D01*
X8737400Y-18790812D01*
X8706335Y-18630645D01*
X8677522Y-18469870D01*
X8650968Y-18308505D01*
X8626680Y-18146570D01*
X8604669Y-17984084D01*
X8584940Y-17821064D01*
X8567502Y-17657531D01*
X8552364Y-17493503D01*
X8539533Y-17328999D01*
X8529017Y-17164038D01*
X8520824Y-16998639D01*
X8514961Y-16832820D01*
X8511438Y-16666601D01*
X8510262Y-16500000D01*
X8511803Y-16311682D01*
X8516416Y-16123590D01*
X8524093Y-15935765D01*
X8534823Y-15748245D01*
X8548596Y-15561070D01*
X8565400Y-15374278D01*
X8585227Y-15187909D01*
X8608064Y-15002002D01*
X8633903Y-14816595D01*
X8662733Y-14631728D01*
X8694542Y-14447441D01*
X8729322Y-14263772D01*
X8767062Y-14080760D01*
X8807750Y-13898444D01*
X8851378Y-13716865D01*
X8897934Y-13536059D01*
X8947408Y-13356068D01*
X8999790Y-13176930D01*
X9055069Y-12998683D01*
X9113235Y-12821368D01*
X9174278Y-12645023D01*
X9238188Y-12469687D01*
X9304953Y-12295400D01*
X9374564Y-12122201D01*
X9447010Y-11950128D01*
X9522281Y-11779221D01*
X9600367Y-11609519D01*
X9681257Y-11441061D01*
X9764940Y-11273886D01*
X9851407Y-11108034D01*
X9940647Y-10943543D01*
X10032650Y-10780452D01*
X10123251Y-10625741D01*
X10216229Y-10472544D01*
X10311557Y-10320888D01*
X10409209Y-10170800D01*
X10509157Y-10022307D01*
X10611376Y-9875435D01*
X10715839Y-9730211D01*
X10822518Y-9586662D01*
X10931388Y-9444814D01*
X11042422Y-9304695D01*
X11155593Y-9166332D01*
X11270874Y-9029750D01*
X11388239Y-8894976D01*
X11507661Y-8762038D01*
X11629114Y-8630963D01*
X11752570Y-8501776D01*
X11878004Y-8374505D01*
X12005389Y-8249176D01*
X12134697Y-8125817D01*
X12265903Y-8004453D01*
X12398979Y-7885113D01*
X12533899Y-7767821D01*
X12670637Y-7652606D01*
X12809165Y-7539494D01*
X12949458Y-7428512D01*
X13091488Y-7319687D01*
X13235229Y-7213044D01*
X13380654Y-7108612D01*
X13527736Y-7006416D01*
X13676449Y-6906484D01*
X13826767Y-6808842D01*
X13978662Y-6713517D01*
X13985180Y-6695642D01*
X13992074Y-6677973D01*
X13999339Y-6660517D01*
X14006970Y-6643277D01*
X14014960Y-6626256D01*
X14023305Y-6609459D01*
X14032000Y-6592890D01*
X14041038Y-6576553D01*
X13874276Y-6479940D01*
X13717852Y-6577477D01*
X13563060Y-6677418D01*
X13409927Y-6779734D01*
X13258480Y-6884397D01*
X13108746Y-6991380D01*
X12960753Y-7100655D01*
X12814528Y-7212193D01*
X12670099Y-7325966D01*
X12527492Y-7441947D01*
X12386736Y-7560107D01*
X12247857Y-7680419D01*
X12110883Y-7802854D01*
X11975841Y-7927384D01*
X11842759Y-8053982D01*
X11711663Y-8182620D01*
X11582582Y-8313269D01*
X11455543Y-8445901D01*
X11330572Y-8580489D01*
X11207698Y-8717004D01*
X11086948Y-8855419D01*
X10968348Y-8995705D01*
X10851927Y-9137835D01*
X10737712Y-9281780D01*
X10625729Y-9427513D01*
X10516007Y-9575005D01*
X10408573Y-9724229D01*
X10303454Y-9875156D01*
X10200677Y-10027758D01*
X10100270Y-10182008D01*
X10002260Y-10337877D01*
X9906675Y-10495338D01*
X9813542Y-10654363D01*
X9719508Y-10821049D01*
X9628295Y-10989167D01*
X9539913Y-11158678D01*
X9454374Y-11329541D01*
X9371688Y-11501716D01*
X9291866Y-11675163D01*
X9214918Y-11849842D01*
X9140856Y-12025713D01*
X9069690Y-12202736D01*
X9001432Y-12380870D01*
X8936091Y-12560077D01*
X8873679Y-12740314D01*
X8814206Y-12921544D01*
X8757683Y-13103724D01*
X8704122Y-13286817D01*
X8653532Y-13470780D01*
X8605924Y-13655575D01*
X8561310Y-13841161D01*
X8519700Y-14027498D01*
X8481105Y-14214546D01*
X8445535Y-14402265D01*
X8413002Y-14590615D01*
X8383517Y-14779556D01*
X8357089Y-14969048D01*
X8333730Y-15159050D01*
X8313450Y-15349523D01*
X8296261Y-15540427D01*
X8282173Y-15731721D01*
X8271197Y-15923365D01*
X8263343Y-16115320D01*
X8258624Y-16307545D01*
X8257048Y-16500001D01*
X8260620Y-16793488D01*
X8271310Y-17085776D01*
X8289075Y-17376765D01*
X8313874Y-17666357D01*
X8345667Y-17954451D01*
X8384412Y-18240948D01*
X8430068Y-18525749D01*
X8482593Y-18808753D01*
X8541945Y-19089862D01*
X8608085Y-19368976D01*
X8680970Y-19645995D01*
X8760560Y-19920821D01*
X8846812Y-20193353D01*
X8939685Y-20463492D01*
X9039139Y-20731138D01*
X9145133Y-20996193D01*
X9257623Y-21258556D01*
X9376570Y-21518128D01*
X9501933Y-21774810D01*
X9633669Y-22028501D01*
X9771738Y-22279104D01*
X9916098Y-22526517D01*
X10066707Y-22770642D01*
X10223526Y-23011379D01*
X10386512Y-23248628D01*
X10555624Y-23482291D01*
X10730821Y-23712267D01*
X10912061Y-23938457D01*
X11099303Y-24160762D01*
X11292507Y-24379082D01*
X11491630Y-24593318D01*
X11696631Y-24803369D01*
X11906683Y-25008366D01*
X12120919Y-25207485D01*
X12339239Y-25400685D01*
X12561544Y-25587925D01*
X12787734Y-25769163D01*
X13017710Y-25944357D01*
X13251373Y-26113468D01*
X13488623Y-26276453D01*
X13729360Y-26433270D01*
X13973485Y-26583880D01*
X14220898Y-26728240D01*
X14471501Y-26866309D01*
X14725192Y-26998045D01*
X14981874Y-27123409D01*
X15241446Y-27242357D01*
X15503809Y-27354849D01*
X15768864Y-27460843D01*
X16036511Y-27560298D01*
X16306650Y-27653174D01*
X16579182Y-27739427D01*
X16854007Y-27819018D01*
X17131026Y-27891905D01*
X17410140Y-27958046D01*
X17691249Y-28017401D01*
X17974254Y-28069927D01*
X18259054Y-28115584D01*
X18545551Y-28154330D01*
X18833645Y-28186124D01*
X19123236Y-28210925D01*
X19414225Y-28228690D01*
X19706513Y-28239380D01*
X20000000Y-28242953D01*
X20293488Y-28239380D01*
X20585776Y-28228690D01*
X20876766Y-28210925D01*
X21166358Y-28186124D01*
X21454452Y-28154330D01*
X21740949Y-28115584D01*
X22025749Y-28069927D01*
X22308754Y-28017401D01*
X22589863Y-27958046D01*
X22868977Y-27891905D01*
X23145996Y-27819018D01*
X23420822Y-27739427D01*
X23693354Y-27653174D01*
X23963493Y-27560298D01*
X24231139Y-27460843D01*
X24496193Y-27354848D01*
X24758556Y-27242357D01*
X25018128Y-27123408D01*
X25274810Y-26998045D01*
X25528502Y-26866309D01*
X25779104Y-26728240D01*
X26026517Y-26583880D01*
X26270642Y-26433270D01*
X26511378Y-26276453D01*
X26748628Y-26113468D01*
X26982290Y-25944357D01*
X27212266Y-25769163D01*
X27438457Y-25587925D01*
X27660762Y-25400685D01*
X27879082Y-25207485D01*
X28093317Y-25008366D01*
X28303369Y-24803369D01*
X28508364Y-24593318D01*
X28707479Y-24379082D01*
X28900672Y-24160762D01*
X29087902Y-23938457D01*
X29269128Y-23712267D01*
X29444309Y-23482290D01*
X29613404Y-23248628D01*
X29776371Y-23011378D01*
X29933170Y-22770641D01*
X30083760Y-22526516D01*
X30228098Y-22279103D01*
X30366145Y-22028501D01*
X30497858Y-21774809D01*
X30623198Y-21518127D01*
X30742122Y-21258555D01*
X30854590Y-20996192D01*
X30960560Y-20731138D01*
X31059991Y-20463491D01*
X31152843Y-20193352D01*
X31239073Y-19920820D01*
X31318642Y-19645995D01*
X31391507Y-19368975D01*
X31457629Y-19089861D01*
X31516964Y-18808752D01*
X31569473Y-18525748D01*
X31615114Y-18240947D01*
X31653847Y-17954450D01*
X31685629Y-17666356D01*
X31710420Y-17376765D01*
X31728179Y-17085775D01*
X31738864Y-16793487D01*
X31742435Y-16500000D01*
X31738864Y-16206513D01*
X31728179Y-15914225D01*
X31710420Y-15623235D01*
X31685629Y-15333644D01*
X31653847Y-15045550D01*
X31615114Y-14759053D01*
X31569473Y-14474252D01*
X31516964Y-14191247D01*
X31457629Y-13910138D01*
X31391507Y-13631024D01*
X31318642Y-13354005D01*
X31239073Y-13079179D01*
X31152843Y-12806647D01*
X31059991Y-12536508D01*
X30960560Y-12268862D01*
X30854590Y-12003807D01*
X30742122Y-11741444D01*
X30623198Y-11481872D01*
X30497858Y-11225190D01*
X30366145Y-10971498D01*
X30228098Y-10720896D01*
X30083760Y-10473483D01*
X29933170Y-10229358D01*
X29776371Y-9988621D01*
X29613404Y-9751371D01*
X29444309Y-9517709D01*
X29269128Y-9287733D01*
X29087902Y-9061543D01*
X28900672Y-8839238D01*
X28707479Y-8620918D01*
X28508364Y-8406683D01*
X28303369Y-8196631D01*
X28093322Y-7991620D01*
X27879090Y-7792491D01*
X27660772Y-7599286D01*
X27438470Y-7412046D01*
X27212281Y-7230811D01*
X26982305Y-7055623D01*
X26748643Y-6886523D01*
X26511393Y-6723552D01*
X26270655Y-6566751D01*
X26026529Y-6416160D01*
X25779115Y-6271821D01*
X25528511Y-6133775D01*
X25274817Y-6002064D01*
X25018133Y-5876727D01*
X24758559Y-5757806D01*
X24496193Y-5645342D01*
X24231136Y-5539377D01*
X23963488Y-5439950D01*
X23693346Y-5347104D01*
X23420812Y-5260879D01*
X23145985Y-5181316D01*
X22868964Y-5108456D01*
X22589849Y-5042340D01*
X22308739Y-4983010D01*
X22025734Y-4930507D01*
X21740934Y-4884870D01*
X21454437Y-4846142D01*
X21166345Y-4814364D01*
X20876755Y-4789576D01*
X20585768Y-4771819D01*
X20293483Y-4761135D01*
X20000000Y-4757565D01*
X20000000Y-4757565D01*
G37*
X20000000Y-4757565D02*
X19835332Y-4758674D01*
X19671070Y-4762002D01*
X19507220Y-4767547D01*
X19343793Y-4775306D01*
X19180796Y-4785278D01*
X19018238Y-4797461D01*
X18856127Y-4811854D01*
X18694471Y-4828455D01*
X18533280Y-4847261D01*
X18372562Y-4868272D01*
X18212324Y-4891485D01*
X18052576Y-4916899D01*
X17893326Y-4944512D01*
X17734583Y-4974323D01*
X17576354Y-5006328D01*
X17418649Y-5040527D01*
X17261475Y-5076919D01*
X17104842Y-5115500D01*
X16948757Y-5156270D01*
X16793230Y-5199226D01*
X16638268Y-5244368D01*
X16483880Y-5291692D01*
X16330074Y-5341198D01*
X16176860Y-5392884D01*
X16024245Y-5446748D01*
X15872238Y-5502788D01*
X15720847Y-5561002D01*
X15570081Y-5621389D01*
X15419948Y-5683946D01*
X15270457Y-5748673D01*
X15121616Y-5815567D01*
X14973433Y-5884627D01*
X14964450Y-5882935D01*
X14955432Y-5881350D01*
X14946387Y-5879860D01*
X14937324Y-5878454D01*
X14928250Y-5877119D01*
X14919173Y-5875843D01*
X14908690Y-5874439D01*
X14898187Y-5873136D01*
X14887665Y-5871935D01*
X14877129Y-5870839D01*
X14866583Y-5869850D01*
X14856029Y-5868970D01*
X14845471Y-5868201D01*
X14834912Y-5867544D01*
X14824357Y-5867002D01*
X14813807Y-5866578D01*
X14803267Y-5866272D01*
X14792741Y-5866087D01*
X14782231Y-5866024D01*
X14744819Y-5866739D01*
X14707680Y-5868867D01*
X14670845Y-5872387D01*
X14634344Y-5877276D01*
X14598209Y-5883512D01*
X14562471Y-5891073D01*
X14527161Y-5899937D01*
X14492310Y-5910081D01*
X14457949Y-5921483D01*
X14424109Y-5934122D01*
X14390821Y-5947975D01*
X14358116Y-5963019D01*
X14326025Y-5979232D01*
X14294579Y-5996593D01*
X14263810Y-6015079D01*
X14233748Y-6034668D01*
X14204424Y-6055337D01*
X14175869Y-6077065D01*
X14148115Y-6099828D01*
X14121193Y-6123606D01*
X14095133Y-6148376D01*
X14069966Y-6174114D01*
X14045724Y-6200801D01*
X14022438Y-6228412D01*
X14000139Y-6256926D01*
X13978857Y-6286321D01*
X13958623Y-6316574D01*
X13939470Y-6347664D01*
X13921428Y-6379568D01*
X13904527Y-6412263D01*
X13888799Y-6445728D01*
X13874276Y-6479940D01*
X14041038Y-6576553D01*
X14050415Y-6560451D01*
X14060125Y-6544590D01*
X14070162Y-6528972D01*
X14080522Y-6513603D01*
X14091199Y-6498485D01*
X14102187Y-6483623D01*
X14113482Y-6469021D01*
X14125077Y-6454683D01*
X14136968Y-6440613D01*
X14149149Y-6426815D01*
X14161614Y-6413293D01*
X14174359Y-6400051D01*
X14187378Y-6387093D01*
X14200664Y-6374423D01*
X14214215Y-6362046D01*
X14228022Y-6349964D01*
X14242082Y-6338182D01*
X14256389Y-6326704D01*
X14270938Y-6315535D01*
X14285723Y-6304677D01*
X14300738Y-6294136D01*
X14315979Y-6283915D01*
X14331440Y-6274018D01*
X14347115Y-6264449D01*
X14355305Y-6258400D01*
X14363583Y-6252473D01*
X14371948Y-6246668D01*
X14380398Y-6240984D01*
X14388930Y-6235421D01*
X14397543Y-6229979D01*
X14406235Y-6224659D01*
X14415003Y-6219459D01*
X14423847Y-6214379D01*
X14432763Y-6209419D01*
X14441751Y-6204580D01*
X14450808Y-6199860D01*
X14459932Y-6195260D01*
X14469121Y-6190779D01*
X14478373Y-6186418D01*
X14487759Y-6182153D01*
X14497209Y-6178015D01*
X14506722Y-6174005D01*
X14516297Y-6170125D01*
X14525932Y-6166375D01*
X14535627Y-6162758D01*
X14545379Y-6159273D01*
X14555188Y-6155923D01*
X14565053Y-6152709D01*
X14574971Y-6149631D01*
X14584943Y-6146692D01*
X14594966Y-6143892D01*
X14605039Y-6141232D01*
X14615162Y-6138714D01*
X14625332Y-6136340D01*
X14635548Y-6134109D01*
X14645810Y-6132024D01*
X14656116Y-6130086D01*
X14666464Y-6128296D01*
X14676854Y-6126655D01*
X14687284Y-6125164D01*
X14697752Y-6123825D01*
X14708259Y-6122639D01*
X14718801Y-6121607D01*
X14729379Y-6120731D01*
X14739990Y-6120011D01*
X14750634Y-6119449D01*
X14761309Y-6119046D01*
X14772014Y-6118803D01*
X14782747Y-6118722D01*
X14792907Y-6118797D01*
X14803087Y-6119023D01*
X14813281Y-6119397D01*
X14823483Y-6119916D01*
X14833688Y-6120578D01*
X14843890Y-6121381D01*
X14854083Y-6122323D01*
X14864261Y-6123401D01*
X14874419Y-6124612D01*
X14884550Y-6125955D01*
X14893905Y-6127314D01*
X14903236Y-6128769D01*
X14912539Y-6130326D01*
X14921808Y-6131995D01*
X14931038Y-6133780D01*
X14940225Y-6135689D01*
X14949363Y-6137729D01*
X14958447Y-6139907D01*
X14994104Y-6149210D01*
X15002372Y-6151273D01*
X15043197Y-6131636D01*
X15068358Y-6119625D01*
X15093541Y-6107681D01*
X15118744Y-6095805D01*
X15143967Y-6083996D01*
X15169210Y-6072255D01*
X15194474Y-6060580D01*
X15219757Y-6048972D01*
X15245061Y-6037431D01*
X15270385Y-6025955D01*
X15295728Y-6014546D01*
X15321092Y-6003202D01*
X15346475Y-5991923D01*
X15371877Y-5980710D01*
X15397299Y-5969561D01*
X15422741Y-5958478D01*
X15448202Y-5947458D01*
X15473682Y-5936503D01*
X15499181Y-5925612D01*
X15524699Y-5914785D01*
X15550237Y-5904021D01*
X15575793Y-5893321D01*
X15601368Y-5882683D01*
X15626962Y-5872108D01*
X15652574Y-5861596D01*
X15678205Y-5851146D01*
X15703854Y-5840758D01*
X15729522Y-5830432D01*
X15755208Y-5820167D01*
X15780913Y-5809964D01*
X15806635Y-5799822D01*
X15832376Y-5789740D01*
X15858134Y-5779720D01*
X15981816Y-5732587D01*
X16105916Y-5686928D01*
X16230430Y-5642744D01*
X16355354Y-5600037D01*
X16480682Y-5558808D01*
X16606409Y-5519058D01*
X16732531Y-5480789D01*
X16859044Y-5444002D01*
X16985942Y-5408700D01*
X17113220Y-5374883D01*
X17240874Y-5342553D01*
X17368899Y-5311711D01*
X17497291Y-5282359D01*
X17626044Y-5254499D01*
X17755154Y-5228131D01*
X17884615Y-5203258D01*
X18014425Y-5179881D01*
X18144576Y-5158001D01*
X18275066Y-5137620D01*
X18405888Y-5118740D01*
X18537039Y-5101361D01*
X18668513Y-5085486D01*
X18800306Y-5071115D01*
X18932413Y-5058251D01*
X19064829Y-5046895D01*
X19197550Y-5037048D01*
X19330570Y-5028712D01*
X19463885Y-5021888D01*
X19597490Y-5016578D01*
X19731381Y-5012783D01*
X19865553Y-5010505D01*
X20000000Y-5009746D01*
X20287173Y-5013241D01*
X20573172Y-5023702D01*
X20857900Y-5041086D01*
X21141259Y-5065355D01*
X21423152Y-5096466D01*
X21703481Y-5134380D01*
X21982150Y-5179057D01*
X22259061Y-5230456D01*
X22534117Y-5288536D01*
X22807220Y-5353257D01*
X23078274Y-5424579D01*
X23347180Y-5502461D01*
X23613842Y-5586862D01*
X23878162Y-5677743D01*
X24140043Y-5775062D01*
X24399388Y-5878780D01*
X24656099Y-5988856D01*
X24910079Y-6105249D01*
X25161231Y-6227919D01*
X25409458Y-6356826D01*
X25654661Y-6491928D01*
X25896745Y-6633187D01*
X26135611Y-6780560D01*
X26371162Y-6934009D01*
X26603302Y-7093491D01*
X26831932Y-7258968D01*
X27056956Y-7430397D01*
X27278275Y-7607740D01*
X27495794Y-7790955D01*
X27709413Y-7980003D01*
X27919038Y-8174841D01*
X28124569Y-8375431D01*
X28325162Y-8580967D01*
X28520005Y-8790595D01*
X28709055Y-9004218D01*
X28892272Y-9221739D01*
X29069617Y-9443061D01*
X29241049Y-9668087D01*
X29406526Y-9896718D01*
X29566010Y-10128859D01*
X29719459Y-10364411D01*
X29866833Y-10603278D01*
X30008091Y-10845361D01*
X30143194Y-11090565D01*
X30272100Y-11338791D01*
X30394769Y-11589942D01*
X30511162Y-11843922D01*
X30621236Y-12100632D01*
X30724953Y-12359975D01*
X30822271Y-12621855D01*
X30913151Y-12886174D01*
X30997551Y-13152834D01*
X31075431Y-13421739D01*
X31146752Y-13692790D01*
X31211472Y-13965892D01*
X31269550Y-14240946D01*
X31320948Y-14517856D01*
X31365623Y-14796523D01*
X31403537Y-15076852D01*
X31434647Y-15358744D01*
X31458915Y-15642102D01*
X31476299Y-15926828D01*
X31486759Y-16212827D01*
X31490254Y-16500000D01*
X31486759Y-16787178D01*
X31476299Y-17073181D01*
X31458915Y-17357912D01*
X31434647Y-17641275D01*
X31403537Y-17923171D01*
X31365623Y-18203504D01*
X31320948Y-18482175D01*
X31269550Y-18759089D01*
X31211472Y-19034147D01*
X31146752Y-19307252D01*
X31075431Y-19578307D01*
X30997551Y-19847215D01*
X30913151Y-20113877D01*
X30822271Y-20378198D01*
X30724953Y-20640080D01*
X30621236Y-20899425D01*
X30511162Y-21156136D01*
X30394769Y-21410116D01*
X30272100Y-21661267D01*
X30143194Y-21909492D01*
X30008091Y-22154695D01*
X29866833Y-22396777D01*
X29719459Y-22635641D01*
X29566010Y-22871190D01*
X29406526Y-23103327D01*
X29241049Y-23331955D01*
X29069617Y-23556975D01*
X28892272Y-23778291D01*
X28709055Y-23995806D01*
X28520005Y-24209422D01*
X28325162Y-24419042D01*
X28124569Y-24624569D01*
X28117187Y-24631945D01*
X28109801Y-24639313D01*
X28102412Y-24646670D01*
X28095019Y-24654019D01*
X28087622Y-24661358D01*
X28080220Y-24668688D01*
X28072814Y-24676009D01*
X28065404Y-24683321D01*
X28057988Y-24690625D01*
X28050567Y-24697921D01*
X28043141Y-24705208D01*
X28035710Y-24712488D01*
X28028273Y-24719760D01*
X28020831Y-24727023D01*
X28013382Y-24734280D01*
X28005928Y-24741529D01*
X27998467Y-24748771D01*
X27991000Y-24756006D01*
X27983526Y-24763234D01*
X27976045Y-24770456D01*
X27968558Y-24777671D01*
X27961063Y-24784879D01*
X27953560Y-24792082D01*
X27946051Y-24799279D01*
X27938533Y-24806470D01*
X27930911Y-24813751D01*
X27923241Y-24821012D01*
X27915537Y-24828255D01*
X27907815Y-24835485D01*
X27900089Y-24842705D01*
X27892374Y-24849920D01*
X27884686Y-24857133D01*
X27877038Y-24864347D01*
X27869495Y-24871449D01*
X27861952Y-24878547D01*
X27854409Y-24885640D01*
X27846865Y-24892729D01*
X27839319Y-24899813D01*
X27831770Y-24906891D01*
X27824219Y-24913962D01*
X27816664Y-24921028D01*
X27809104Y-24928086D01*
X27801538Y-24935136D01*
X27793966Y-24942179D01*
X27786388Y-24949212D01*
X27778801Y-24956237D01*
X27771207Y-24963253D01*
X27763603Y-24970258D01*
X27755989Y-24977253D01*
X27748364Y-24984236D01*
X27741095Y-24990859D01*
X27733824Y-24997454D01*
X27726549Y-25004027D01*
X27719271Y-25010584D01*
X27711988Y-25017130D01*
X27704702Y-25023669D01*
X27697410Y-25030207D01*
X27690113Y-25036749D01*
X27682810Y-25043300D01*
X27675500Y-25049866D01*
X27667963Y-25056656D01*
X27660426Y-25063446D01*
X27652889Y-25070236D01*
X27645351Y-25077024D01*
X27637810Y-25083809D01*
X27630268Y-25090589D01*
X27622723Y-25097363D01*
X27615174Y-25104131D01*
X27607621Y-25110890D01*
X27600063Y-25117640D01*
X27592499Y-25124379D01*
X27584930Y-25131106D01*
X27577353Y-25137820D01*
X27569770Y-25144519D01*
X27562178Y-25151203D01*
X27554577Y-25157869D01*
X27546934Y-25164540D01*
X27539261Y-25171188D01*
X27531566Y-25177818D01*
X27523854Y-25184433D01*
X27516132Y-25191038D01*
X27508406Y-25197634D01*
X27500681Y-25204226D01*
X27492965Y-25210818D01*
X27485262Y-25217413D01*
X27477580Y-25224015D01*
X27470002Y-25230527D01*
X27462427Y-25237034D01*
X27454854Y-25243534D01*
X27447283Y-25250028D01*
X27439711Y-25256516D01*
X27432138Y-25262997D01*
X27424564Y-25269470D01*
X27416986Y-25275937D01*
X27409405Y-25282395D01*
X27401818Y-25288846D01*
X27394226Y-25295288D01*
X27386627Y-25301722D01*
X27379020Y-25308147D01*
X27371403Y-25314564D01*
X27363777Y-25320971D01*
X27356140Y-25327368D01*
X27348463Y-25333794D01*
X27340776Y-25340224D01*
X27333082Y-25346653D01*
X27325382Y-25353081D01*
X27317678Y-25359503D01*
X27309971Y-25365918D01*
X27302262Y-25372322D01*
X27294553Y-25378714D01*
X27286846Y-25385089D01*
X27279142Y-25391447D01*
X27271276Y-25397900D01*
X27263401Y-25404344D01*
X27255517Y-25410779D01*
X27247624Y-25417205D01*
X27239725Y-25423623D01*
X27231818Y-25430034D01*
X27223905Y-25436436D01*
X27215988Y-25442832D01*
X27208065Y-25449220D01*
X27200139Y-25455602D01*
X27192209Y-25461977D01*
X27184276Y-25468346D01*
X27176342Y-25474709D01*
X27168407Y-25481067D01*
X27160471Y-25487419D01*
X27152535Y-25493766D01*
X27144304Y-25500332D01*
X27136062Y-25506897D01*
X27127809Y-25513460D01*
X27119547Y-25520018D01*
X27111276Y-25526570D01*
X27102997Y-25533114D01*
X27094711Y-25539648D01*
X27086418Y-25546170D01*
X27078121Y-25552677D01*
X27070163Y-25558907D01*
X27062200Y-25565119D01*
X27054231Y-25571314D01*
X27046256Y-25577495D01*
X27038276Y-25583661D01*
X27030291Y-25589815D01*
X27022302Y-25595958D01*
X27014308Y-25602091D01*
X27006310Y-25608216D01*
X26998309Y-25614333D01*
X26990303Y-25620444D01*
X26982295Y-25626551D01*
X26974283Y-25632655D01*
X26966269Y-25638757D01*
X26958252Y-25644858D01*
X26950233Y-25650960D01*
X26942212Y-25657064D01*
X26934725Y-25662789D01*
X26927261Y-25668542D01*
X26919812Y-25674312D01*
X26912370Y-25680090D01*
X26904930Y-25685866D01*
X26897483Y-25691628D01*
X26890022Y-25697368D01*
X26882541Y-25703076D01*
X26875032Y-25708740D01*
X26866977Y-25714779D01*
X26858915Y-25720805D01*
X26850847Y-25726821D01*
X26842773Y-25732827D01*
X26834694Y-25738822D01*
X26826609Y-25744807D01*
X26818518Y-25750783D01*
X26810422Y-25756750D01*
X26802321Y-25762708D01*
X26794214Y-25768659D01*
X26786102Y-25774601D01*
X26777985Y-25780536D01*
X26769864Y-25786465D01*
X26761737Y-25792386D01*
X26753606Y-25798302D01*
X26745470Y-25804212D01*
X26737330Y-25810116D01*
X26729186Y-25816016D01*
X26721037Y-25821912D01*
X26713600Y-25827307D01*
X26706144Y-25832709D01*
X26698676Y-25838113D01*
X26691204Y-25843512D01*
X26683737Y-25848903D01*
X26676281Y-25854279D01*
X26668843Y-25859635D01*
X26660555Y-25865565D01*
X26652265Y-25871485D01*
X26643972Y-25877396D01*
X26635677Y-25883298D01*
X26627379Y-25889191D01*
X26619078Y-25895075D01*
X26610774Y-25900951D01*
X26602466Y-25906818D01*
X26594155Y-25912677D01*
X26585840Y-25918528D01*
X26577520Y-25924371D01*
X26569196Y-25930206D01*
X26560866Y-25936033D01*
X26552532Y-25941853D01*
X26544193Y-25947666D01*
X26535848Y-25953472D01*
X26527497Y-25959270D01*
X26519140Y-25965062D01*
X26510777Y-25970847D01*
X26502407Y-25976626D01*
X26494030Y-25982398D01*
X26485646Y-25988164D01*
X26477255Y-25993924D01*
X26468856Y-25999678D01*
X26460072Y-26005362D01*
X26446316Y-26014731D01*
X26432549Y-26024080D01*
X26418770Y-26033408D01*
X26404980Y-26042714D01*
X26391178Y-26052001D01*
X26377365Y-26061266D01*
X26363539Y-26070510D01*
X26349702Y-26079734D01*
X26335854Y-26088936D01*
X26321994Y-26098118D01*
X26308122Y-26107278D01*
X26294238Y-26116417D01*
X26280343Y-26125536D01*
X26266436Y-26134633D01*
X26252517Y-26143709D01*
X26238587Y-26152764D01*
X26224645Y-26161798D01*
X26210691Y-26170811D01*
X26196725Y-26179802D01*
X26182748Y-26188773D01*
X26168759Y-26197722D01*
X26154758Y-26206649D01*
X26140746Y-26215556D01*
X26126722Y-26224441D01*
X26112686Y-26233304D01*
X26098638Y-26242147D01*
X26084578Y-26250968D01*
X26070507Y-26259767D01*
X26056424Y-26268545D01*
X26042329Y-26277301D01*
X26028222Y-26286036D01*
X26014104Y-26294750D01*
X26005320Y-26300433D01*
X25996524Y-26305840D01*
X25987722Y-26311240D01*
X25978916Y-26316633D01*
X25970105Y-26322020D01*
X25961290Y-26327399D01*
X25952469Y-26332770D01*
X25943644Y-26338135D01*
X25934814Y-26343491D01*
X25925979Y-26348840D01*
X25917140Y-26354182D01*
X25908296Y-26359515D01*
X25899448Y-26364840D01*
X25890595Y-26370158D01*
X25881738Y-26375466D01*
X25872876Y-26380767D01*
X25864010Y-26386059D01*
X25855140Y-26391342D01*
X25846265Y-26396617D01*
X25837386Y-26401883D01*
X25828503Y-26407139D01*
X25819616Y-26412387D01*
X25810725Y-26417625D01*
X25801829Y-26422854D01*
X25792930Y-26428074D01*
X25784805Y-26432750D01*
X25776651Y-26437369D01*
X25768497Y-26441991D01*
X25760373Y-26446677D01*
X25751242Y-26451976D01*
X25742104Y-26457267D01*
X25732961Y-26462551D01*
X25723812Y-26467827D01*
X25714658Y-26473095D01*
X25705498Y-26478356D01*
X25696334Y-26483608D01*
X25687165Y-26488852D01*
X25677991Y-26494088D01*
X25668813Y-26499316D01*
X25659630Y-26504534D01*
X25650444Y-26509745D01*
X25641254Y-26514946D01*
X25632060Y-26520139D01*
X25622863Y-26525323D01*
X25613663Y-26530498D01*
X25604459Y-26535663D01*
X25595253Y-26540819D01*
X25586045Y-26545966D01*
X25576834Y-26551103D01*
X25567620Y-26556231D01*
X25559361Y-26560791D01*
X25551071Y-26565350D01*
X25542776Y-26569901D01*
X25534503Y-26574442D01*
X25526279Y-26578969D01*
X25517332Y-26583885D01*
X25508382Y-26588790D01*
X25499431Y-26593685D01*
X25490476Y-26598570D01*
X25481519Y-26603445D01*
X25472559Y-26608310D01*
X25463596Y-26613165D01*
X25454630Y-26618011D01*
X25445660Y-26622848D01*
X25436686Y-26627676D01*
X25427708Y-26632495D01*
X25418726Y-26637306D01*
X25409739Y-26642108D01*
X25400748Y-26646903D01*
X25391752Y-26651689D01*
X25382751Y-26656468D01*
X25373744Y-26661239D01*
X25364732Y-26666003D01*
X25355714Y-26670761D01*
X25346690Y-26675511D01*
X25337660Y-26680255D01*
X25329268Y-26684705D01*
X25320906Y-26689166D01*
X25312556Y-26693624D01*
X25304195Y-26698065D01*
X25295802Y-26702474D01*
X25286618Y-26707246D01*
X25277429Y-26712005D01*
X25268235Y-26716754D01*
X25259037Y-26721492D01*
X25249835Y-26726219D01*
X25240628Y-26730936D01*
X25231416Y-26735643D01*
X25222201Y-26740340D01*
X25212981Y-26745028D01*
X25203756Y-26749707D01*
X25194528Y-26754377D01*
X25185295Y-26759038D01*
X25176058Y-26763692D01*
X25166817Y-26768337D01*
X25157571Y-26772975D01*
X25148322Y-26777606D01*
X25139069Y-26782229D01*
X25129811Y-26786846D01*
X25120550Y-26791457D01*
X25111285Y-26796061D01*
X25102016Y-26800660D01*
X25092732Y-26805280D01*
X25083440Y-26809957D01*
X25074134Y-26814636D01*
X25064809Y-26819262D01*
X25055426Y-26823871D01*
X25046035Y-26828469D01*
X25036636Y-26833055D01*
X25027230Y-26837630D01*
X25017817Y-26842195D01*
X25008397Y-26846750D01*
X24998970Y-26851295D01*
X24989538Y-26855830D01*
X24980100Y-26860356D01*
X24970657Y-26864873D01*
X24961209Y-26869382D01*
X24951757Y-26873882D01*
X24942300Y-26878373D01*
X24932840Y-26882857D01*
X24923376Y-26887333D01*
X24913910Y-26891803D01*
X24904441Y-26896265D01*
X24894969Y-26900720D01*
X24885496Y-26905169D01*
X24876021Y-26909612D01*
X24866546Y-26914049D01*
X24857069Y-26918481D01*
X24848953Y-26922259D01*
X24840893Y-26926031D01*
X24832781Y-26929850D01*
X24823439Y-26934181D01*
X24814093Y-26938505D01*
X24804745Y-26942824D01*
X24795392Y-26947137D01*
X24786037Y-26951442D01*
X24776677Y-26955742D01*
X24767315Y-26960034D01*
X24757948Y-26964318D01*
X24748579Y-26968596D01*
X24739205Y-26972865D01*
X24729828Y-26977126D01*
X24720448Y-26981379D01*
X24711064Y-26985623D01*
X24701676Y-26989859D01*
X24692285Y-26994085D01*
X24682890Y-26998302D01*
X24673491Y-27002509D01*
X24664089Y-27006706D01*
X24654683Y-27010893D01*
X24645274Y-27015070D01*
X24635860Y-27019236D01*
X24626443Y-27023391D01*
X24617022Y-27027534D01*
X24607598Y-27031666D01*
X24598170Y-27035787D01*
X24598170Y-27036316D01*
X24590694Y-27039609D01*
X24583213Y-27042799D01*
X24575718Y-27045977D01*
X24568197Y-27049236D01*
X24561473Y-27052180D01*
X24554769Y-27055076D01*
X24548044Y-27058020D01*
X24501504Y-27078261D01*
X24454849Y-27098275D01*
X24408079Y-27118063D01*
X24361195Y-27137624D01*
X24314199Y-27156958D01*
X24267090Y-27176067D01*
X24219870Y-27194950D01*
X24172540Y-27213607D01*
X24125100Y-27232040D01*
X24077551Y-27250247D01*
X24029893Y-27268229D01*
X23982129Y-27285987D01*
X23934257Y-27303521D01*
X23886280Y-27320831D01*
X23838198Y-27337917D01*
X23790012Y-27354780D01*
X23741722Y-27371420D01*
X23693330Y-27387837D01*
X23644835Y-27404031D01*
X23596240Y-27420003D01*
X23547545Y-27435753D01*
X23498750Y-27451281D01*
X23449856Y-27466588D01*
X23400864Y-27481673D01*
X23351776Y-27496538D01*
X23302591Y-27511181D01*
X23253310Y-27525604D01*
X23203935Y-27539807D01*
X23154466Y-27553790D01*
X23104904Y-27567553D01*
X23055249Y-27581097D01*
X23005503Y-27594421D01*
X23004973Y-27594421D01*
X22995053Y-27597088D01*
X22985121Y-27599739D01*
X22975180Y-27602374D01*
X22965232Y-27604994D01*
X22955276Y-27607601D01*
X22945315Y-27610195D01*
X22935349Y-27612778D01*
X22925381Y-27615352D01*
X22915411Y-27617916D01*
X22905441Y-27620473D01*
X22895471Y-27623023D01*
X22885504Y-27625567D01*
X22875540Y-27628107D01*
X22865581Y-27630644D01*
X22855629Y-27633178D01*
X22845624Y-27635733D01*
X22835658Y-27638326D01*
X22825715Y-27640941D01*
X22815779Y-27643561D01*
X22805836Y-27646166D01*
X22795870Y-27648740D01*
X22785865Y-27651265D01*
X22776231Y-27653646D01*
X22766584Y-27656004D01*
X22756925Y-27658340D01*
X22747257Y-27660657D01*
X22737581Y-27662957D01*
X22727900Y-27665243D01*
X22718214Y-27667518D01*
X22708527Y-27669783D01*
X22698840Y-27672040D01*
X22689155Y-27674293D01*
X22679474Y-27676544D01*
X22669799Y-27678794D01*
X22660131Y-27681047D01*
X22650473Y-27683305D01*
X22640861Y-27685572D01*
X22631272Y-27687840D01*
X22621698Y-27690105D01*
X22612131Y-27692364D01*
X22602566Y-27694614D01*
X22592994Y-27696851D01*
X22583410Y-27699073D01*
X22573805Y-27701277D01*
X22564173Y-27703458D01*
X22554437Y-27705647D01*
X22544684Y-27707830D01*
X22534916Y-27710005D01*
X22525137Y-27712174D01*
X22515349Y-27714336D01*
X22505555Y-27716490D01*
X22495757Y-27718637D01*
X22485959Y-27720777D01*
X22476162Y-27722910D01*
X22466370Y-27725035D01*
X22456586Y-27727152D01*
X22446811Y-27729262D01*
X22437049Y-27731363D01*
X22427286Y-27733462D01*
X22417525Y-27735558D01*
X22407766Y-27737649D01*
X22398007Y-27739734D01*
X22388246Y-27741811D01*
X22378483Y-27743880D01*
X22368717Y-27745938D01*
X22358945Y-27747984D01*
X22349167Y-27750017D01*
X22339381Y-27752035D01*
X22329429Y-27754086D01*
X22319485Y-27756138D01*
X22309546Y-27758188D01*
X22299611Y-27760236D01*
X22289677Y-27762280D01*
X22279743Y-27764318D01*
X22269806Y-27766348D01*
X22259864Y-27768368D01*
X22249915Y-27770378D01*
X22239958Y-27772375D01*
X22229990Y-27774358D01*
X22220008Y-27776324D01*
X22210207Y-27778221D01*
X22200400Y-27780096D01*
X22190587Y-27781952D01*
X22180770Y-27783792D01*
X22170949Y-27785619D01*
X22161126Y-27787436D01*
X22151301Y-27789246D01*
X22141475Y-27791052D01*
X22131650Y-27792857D01*
X22121826Y-27794665D01*
X22112005Y-27796477D01*
X22101793Y-27798377D01*
X22091574Y-27800257D01*
X22081347Y-27802120D01*
X22071113Y-27803968D01*
X22060872Y-27805803D01*
X22050627Y-27807626D01*
X22040378Y-27809439D01*
X22030124Y-27811244D01*
X22019868Y-27813043D01*
X22009610Y-27814838D01*
X21999350Y-27816631D01*
X21989359Y-27818374D01*
X21979374Y-27820102D01*
X21969392Y-27821818D01*
X21959413Y-27823521D01*
X21949434Y-27825212D01*
X21939453Y-27826892D01*
X21929470Y-27828562D01*
X21919483Y-27830222D01*
X21909490Y-27831874D01*
X21899490Y-27833517D01*
X21889481Y-27835154D01*
X21879461Y-27836784D01*
X21869212Y-27838466D01*
X21858942Y-27840151D01*
X21848657Y-27841834D01*
X21838361Y-27843513D01*
X21828060Y-27845184D01*
X21817756Y-27846845D01*
X21807457Y-27848492D01*
X21797165Y-27850123D01*
X21786886Y-27851733D01*
X21776625Y-27853320D01*
X21766596Y-27854858D01*
X21756567Y-27856386D01*
X21746538Y-27857904D01*
X21736507Y-27859412D01*
X21726476Y-27860910D01*
X21716442Y-27862400D01*
X21706407Y-27863880D01*
X21696368Y-27865350D01*
X21686327Y-27866812D01*
X21676283Y-27868265D01*
X21666235Y-27869710D01*
X21656183Y-27871146D01*
X21646126Y-27872573D01*
X21636065Y-27873992D01*
X21626696Y-27875331D01*
X21617338Y-27876677D01*
X21607987Y-27878025D01*
X21598639Y-27879370D01*
X21589291Y-27880707D01*
X21579940Y-27882032D01*
X21570582Y-27883338D01*
X21561214Y-27884622D01*
X21551832Y-27885877D01*
X21541557Y-27887251D01*
X21531283Y-27888619D01*
X21521009Y-27889982D01*
X21510735Y-27891338D01*
X21500460Y-27892688D01*
X21490185Y-27894031D01*
X21479910Y-27895368D01*
X21469633Y-27896696D01*
X21459355Y-27898017D01*
X21449075Y-27899329D01*
X21438793Y-27900633D01*
X21428509Y-27901928D01*
X21418223Y-27903213D01*
X21407934Y-27904489D01*
X21397642Y-27905754D01*
X21387346Y-27907009D01*
X21377047Y-27908254D01*
X21366744Y-27909487D01*
X21356437Y-27910708D01*
X21346126Y-27911918D01*
X21335810Y-27913115D01*
X21325489Y-27914299D01*
X21305560Y-27916692D01*
X21285619Y-27919050D01*
X21265668Y-27921373D01*
X21245706Y-27923660D01*
X21225733Y-27925913D01*
X21205750Y-27928131D01*
X21185756Y-27930314D01*
X21165752Y-27932463D01*
X21145737Y-27934576D01*
X21125712Y-27936655D01*
X21105677Y-27938700D01*
X21085631Y-27940710D01*
X21065576Y-27942685D01*
X21045510Y-27944626D01*
X21025433Y-27946532D01*
X21005347Y-27948405D01*
X20985251Y-27950242D01*
X20965145Y-27952046D01*
X20945029Y-27953815D01*
X20924902Y-27955551D01*
X20904766Y-27957252D01*
X20884621Y-27958919D01*
X20864465Y-27960552D01*
X20844300Y-27962151D01*
X20824125Y-27963716D01*
X20803941Y-27965247D01*
X20783747Y-27966745D01*
X20763543Y-27968209D01*
X20743330Y-27969639D01*
X20723107Y-27971035D01*
X20702876Y-27972398D01*
X20682635Y-27973727D01*
X20672424Y-27974399D01*
X20662214Y-27975074D01*
X20652004Y-27975750D01*
X20641794Y-27976425D01*
X20631584Y-27977095D01*
X20621373Y-27977758D01*
X20611160Y-27978412D01*
X20600946Y-27979054D01*
X20590729Y-27979682D01*
X20580509Y-27980292D01*
X20570285Y-27980883D01*
X20560058Y-27981452D01*
X20549826Y-27981996D01*
X20530657Y-27982999D01*
X20511481Y-27983971D01*
X20492299Y-27984913D01*
X20473111Y-27985824D01*
X20453917Y-27986705D01*
X20434716Y-27987555D01*
X20415509Y-27988374D01*
X20396294Y-27989161D01*
X20377073Y-27989918D01*
X20357845Y-27990644D01*
X20338610Y-27991338D01*
X20319367Y-27992001D01*
X20300117Y-27992632D01*
X20280860Y-27993232D01*
X20261595Y-27993800D01*
X20242322Y-27994337D01*
X20223041Y-27994841D01*
X20203753Y-27995314D01*
X20184456Y-27995755D01*
X20165151Y-27996164D01*
X20145838Y-27996540D01*
X20126516Y-27996884D01*
X20107186Y-27997196D01*
X20087847Y-27997475D01*
X20068500Y-27997722D01*
X20049143Y-27997937D01*
X20029778Y-27998118D01*
X20010403Y-27998267D01*
X19991019Y-27998383D01*
X19971625Y-27998466D01*
X19952222Y-27998515D01*
X19932810Y-27998532D01*
X19868381Y-27998355D01*
X19804034Y-27997826D01*
X19739771Y-27996944D01*
X19675592Y-27995712D01*
X19611498Y-27994130D01*
X19547490Y-27992198D01*
X19483569Y-27989918D01*
X19419737Y-27987290D01*
X19355994Y-27984316D01*
X19292342Y-27980996D01*
X19228781Y-27977332D01*
X19165312Y-27973324D01*
X19101937Y-27968972D01*
X19038656Y-27964279D01*
X18975471Y-27959244D01*
X18912382Y-27953869D01*
X18849390Y-27948155D01*
X18786497Y-27942102D01*
X18723704Y-27935712D01*
X18661011Y-27928984D01*
X18598420Y-27921921D01*
X18535931Y-27914523D01*
X18473546Y-27906791D01*
X18411266Y-27898726D01*
X18349091Y-27890328D01*
X18287023Y-27881599D01*
X18225062Y-27872539D01*
X18163211Y-27863150D01*
X18101469Y-27853432D01*
X18039838Y-27843387D01*
X17978318Y-27833014D01*
X17916912Y-27822315D01*
X17801871Y-27801335D01*
X17687234Y-27779213D01*
X17573007Y-27755957D01*
X17459195Y-27731573D01*
X17345804Y-27706067D01*
X17232841Y-27679445D01*
X17120311Y-27651712D01*
X17008221Y-27622877D01*
X16896577Y-27592943D01*
X16785383Y-27561918D01*
X16674647Y-27529808D01*
X16564375Y-27496619D01*
X16454572Y-27462356D01*
X16345244Y-27427027D01*
X16236397Y-27390637D01*
X16128038Y-27353193D01*
X16020172Y-27314700D01*
X15912806Y-27275165D01*
X15805944Y-27234593D01*
X15699594Y-27192992D01*
X15593761Y-27150367D01*
X15488451Y-27106724D01*
X15383670Y-27062069D01*
X15279425Y-27016409D01*
X15175720Y-26969750D01*
X15072563Y-26922098D01*
X14969959Y-26873458D01*
X14867913Y-26823838D01*
X14766433Y-26773243D01*
X14665524Y-26721679D01*
X14565192Y-26669153D01*
X14465443Y-26615671D01*
X14406145Y-26583270D01*
X14347059Y-26550529D01*
X14288186Y-26517449D01*
X14229527Y-26484032D01*
X14171085Y-26450279D01*
X14112859Y-26416191D01*
X14054852Y-26381770D01*
X13997064Y-26347018D01*
X13939498Y-26311936D01*
X13882154Y-26276525D01*
X13825034Y-26240787D01*
X13768138Y-26204723D01*
X13711469Y-26168335D01*
X13655028Y-26131624D01*
X13598816Y-26094592D01*
X13542833Y-26057240D01*
X13487083Y-26019570D01*
X13431565Y-25981582D01*
X13376281Y-25943279D01*
X13321233Y-25904662D01*
X13266422Y-25865733D01*
X13211849Y-25826492D01*
X13157516Y-25786942D01*
X13103423Y-25747083D01*
X13049572Y-25706918D01*
X12995965Y-25666447D01*
X12942602Y-25625673D01*
X12889485Y-25584596D01*
X12836616Y-25543218D01*
X12783996Y-25501541D01*
X12731625Y-25459566D01*
X12679506Y-25417294D01*
X12604786Y-25353397D01*
X12530195Y-25288557D01*
X12455735Y-25222768D01*
X12381413Y-25156025D01*
X12307230Y-25088321D01*
X12233192Y-25019652D01*
X12159302Y-24950010D01*
X12085565Y-24879390D01*
X12011984Y-24807787D01*
X11938564Y-24735194D01*
X11865308Y-24661605D01*
X11792221Y-24587015D01*
X11719307Y-24511417D01*
X11646570Y-24434806D01*
X11574013Y-24357177D01*
X11501642Y-24278522D01*
X11429459Y-24198836D01*
X11357470Y-24118114D01*
X11285677Y-24036348D01*
X11214086Y-23953535D01*
X11142700Y-23869667D01*
X11071523Y-23784738D01*
X11000559Y-23698744D01*
X10929813Y-23611678D01*
X10859288Y-23523533D01*
X10788988Y-23434305D01*
X10718918Y-23343987D01*
X10649082Y-23252574D01*
X10579483Y-23160059D01*
X10510126Y-23066437D01*
X10441015Y-22971702D01*
X10372153Y-22875847D01*
X10365528Y-22865891D01*
X10358915Y-22855929D01*
X10352313Y-22845960D01*
X10345722Y-22835985D01*
X10339143Y-22826004D01*
X10332575Y-22816015D01*
X10326017Y-22806020D01*
X10319471Y-22796019D01*
X10312936Y-22786011D01*
X10306411Y-22775996D01*
X10299897Y-22765975D01*
X10293394Y-22755947D01*
X10286902Y-22745911D01*
X10280420Y-22735870D01*
X10273948Y-22725821D01*
X10267487Y-22715765D01*
X10261035Y-22705702D01*
X10254595Y-22695633D01*
X10248164Y-22685556D01*
X10241743Y-22675473D01*
X10235332Y-22665382D01*
X10228931Y-22655284D01*
X10222540Y-22645179D01*
X10216159Y-22635066D01*
X10209787Y-22624947D01*
X10203425Y-22614820D01*
X10197072Y-22604686D01*
X10190728Y-22594544D01*
X10184394Y-22584395D01*
X10178069Y-22574238D01*
X10171754Y-22564075D01*
X10165447Y-22553903D01*
X10160706Y-22546151D01*
X10155628Y-22538401D01*
X10149453Y-22528389D01*
X10143286Y-22518372D01*
X10137129Y-22508349D01*
X10130981Y-22498321D01*
X10124842Y-22488288D01*
X10118713Y-22478249D01*
X10112594Y-22468204D01*
X10106484Y-22458153D01*
X10100384Y-22448097D01*
X10094294Y-22438034D01*
X10088213Y-22427965D01*
X10082142Y-22417890D01*
X10076081Y-22407809D01*
X10070030Y-22397721D01*
X10063989Y-22387626D01*
X10057958Y-22377525D01*
X10051937Y-22367417D01*
X10045927Y-22357302D01*
X10039926Y-22347180D01*
X10033936Y-22337051D01*
X10027956Y-22326915D01*
X10021987Y-22316771D01*
X10016028Y-22306620D01*
X10010079Y-22296461D01*
X10004141Y-22286295D01*
X9998214Y-22276121D01*
X9992297Y-22265939D01*
X9986391Y-22255749D01*
X9980496Y-22245551D01*
X9974611Y-22235344D01*
X9968738Y-22225130D01*
X9962875Y-22214907D01*
X9970166Y-22210382D01*
X9978334Y-22205254D01*
X9987300Y-22199527D01*
X9996982Y-22193203D01*
X9989890Y-22180022D01*
X9982840Y-22166837D01*
X9975834Y-22153656D01*
X9968873Y-22140483D01*
X9961960Y-22127326D01*
X9955096Y-22114191D01*
X9948284Y-22101084D01*
X9941526Y-22088011D01*
X9934824Y-22074979D01*
X9928179Y-22061994D01*
X9921594Y-22049062D01*
X9915070Y-22036190D01*
X9908610Y-22023384D01*
X9902215Y-22010649D01*
X9895889Y-21997994D01*
X9889631Y-21985423D01*
X9883446Y-21972944D01*
X9877334Y-21960562D01*
X9871297Y-21948284D01*
X9865339Y-21936115D01*
X9859459Y-21924064D01*
X9853662Y-21912134D01*
X9847948Y-21900334D01*
X9842319Y-21888669D01*
X9836778Y-21877146D01*
X9831327Y-21865771D01*
X9825967Y-21854550D01*
X9820701Y-21843489D01*
X9815530Y-21832596D01*
X9810457Y-21821875D01*
X9805483Y-21811334D01*
X9800611Y-21800979D01*
X9795908Y-21791948D01*
X9791219Y-21782914D01*
X9786545Y-21773877D01*
X9781884Y-21764837D01*
X9777235Y-21755793D01*
X9772598Y-21746746D01*
X9767971Y-21737695D01*
X9763354Y-21728641D01*
X9758745Y-21719583D01*
X9754144Y-21710522D01*
X9749549Y-21701456D01*
X9744960Y-21692387D01*
X9740375Y-21683314D01*
X9735794Y-21674238D01*
X9731216Y-21665157D01*
X9726639Y-21656072D01*
X9722063Y-21646983D01*
X9718446Y-21640265D01*
X9714827Y-21635969D01*
X9710557Y-21628295D01*
X9705977Y-21618584D01*
X9701430Y-21608174D01*
X9697258Y-21598407D01*
X9694378Y-21592463D01*
X9691575Y-21586522D01*
X9686424Y-21579677D01*
X9681908Y-21572416D01*
X9678056Y-21564754D01*
X9674895Y-21556704D01*
X9672454Y-21548282D01*
X9602229Y-21402292D01*
X9534111Y-21255355D01*
X9468110Y-21107488D01*
X9404232Y-20958711D01*
X9342486Y-20809042D01*
X9282879Y-20658501D01*
X9225420Y-20507106D01*
X9170117Y-20354876D01*
X9116978Y-20201830D01*
X9066010Y-20047986D01*
X9017222Y-19893365D01*
X8970621Y-19737984D01*
X8926215Y-19581863D01*
X8884014Y-19425021D01*
X8844023Y-19267475D01*
X8806252Y-19109246D01*
X8770709Y-18950352D01*
X8737400Y-18790812D01*
X8706335Y-18630645D01*
X8677522Y-18469870D01*
X8650968Y-18308505D01*
X8626680Y-18146570D01*
X8604669Y-17984084D01*
X8584940Y-17821064D01*
X8567502Y-17657531D01*
X8552364Y-17493503D01*
X8539533Y-17328999D01*
X8529017Y-17164038D01*
X8520824Y-16998639D01*
X8514961Y-16832820D01*
X8511438Y-16666601D01*
X8510262Y-16500000D01*
X8511803Y-16311682D01*
X8516416Y-16123590D01*
X8524093Y-15935765D01*
X8534823Y-15748245D01*
X8548596Y-15561070D01*
X8565400Y-15374278D01*
X8585227Y-15187909D01*
X8608064Y-15002002D01*
X8633903Y-14816595D01*
X8662733Y-14631728D01*
X8694542Y-14447441D01*
X8729322Y-14263772D01*
X8767062Y-14080760D01*
X8807750Y-13898444D01*
X8851378Y-13716865D01*
X8897934Y-13536059D01*
X8947408Y-13356068D01*
X8999790Y-13176930D01*
X9055069Y-12998683D01*
X9113235Y-12821368D01*
X9174278Y-12645023D01*
X9238188Y-12469687D01*
X9304953Y-12295400D01*
X9374564Y-12122201D01*
X9447010Y-11950128D01*
X9522281Y-11779221D01*
X9600367Y-11609519D01*
X9681257Y-11441061D01*
X9764940Y-11273886D01*
X9851407Y-11108034D01*
X9940647Y-10943543D01*
X10032650Y-10780452D01*
X10123251Y-10625741D01*
X10216229Y-10472544D01*
X10311557Y-10320888D01*
X10409209Y-10170800D01*
X10509157Y-10022307D01*
X10611376Y-9875435D01*
X10715839Y-9730211D01*
X10822518Y-9586662D01*
X10931388Y-9444814D01*
X11042422Y-9304695D01*
X11155593Y-9166332D01*
X11270874Y-9029750D01*
X11388239Y-8894976D01*
X11507661Y-8762038D01*
X11629114Y-8630963D01*
X11752570Y-8501776D01*
X11878004Y-8374505D01*
X12005389Y-8249176D01*
X12134697Y-8125817D01*
X12265903Y-8004453D01*
X12398979Y-7885113D01*
X12533899Y-7767821D01*
X12670637Y-7652606D01*
X12809165Y-7539494D01*
X12949458Y-7428512D01*
X13091488Y-7319687D01*
X13235229Y-7213044D01*
X13380654Y-7108612D01*
X13527736Y-7006416D01*
X13676449Y-6906484D01*
X13826767Y-6808842D01*
X13978662Y-6713517D01*
X13985180Y-6695642D01*
X13992074Y-6677973D01*
X13999339Y-6660517D01*
X14006970Y-6643277D01*
X14014960Y-6626256D01*
X14023305Y-6609459D01*
X14032000Y-6592890D01*
X14041038Y-6576553D01*
X13874276Y-6479940D01*
X13717852Y-6577477D01*
X13563060Y-6677418D01*
X13409927Y-6779734D01*
X13258480Y-6884397D01*
X13108746Y-6991380D01*
X12960753Y-7100655D01*
X12814528Y-7212193D01*
X12670099Y-7325966D01*
X12527492Y-7441947D01*
X12386736Y-7560107D01*
X12247857Y-7680419D01*
X12110883Y-7802854D01*
X11975841Y-7927384D01*
X11842759Y-8053982D01*
X11711663Y-8182620D01*
X11582582Y-8313269D01*
X11455543Y-8445901D01*
X11330572Y-8580489D01*
X11207698Y-8717004D01*
X11086948Y-8855419D01*
X10968348Y-8995705D01*
X10851927Y-9137835D01*
X10737712Y-9281780D01*
X10625729Y-9427513D01*
X10516007Y-9575005D01*
X10408573Y-9724229D01*
X10303454Y-9875156D01*
X10200677Y-10027758D01*
X10100270Y-10182008D01*
X10002260Y-10337877D01*
X9906675Y-10495338D01*
X9813542Y-10654363D01*
X9719508Y-10821049D01*
X9628295Y-10989167D01*
X9539913Y-11158678D01*
X9454374Y-11329541D01*
X9371688Y-11501716D01*
X9291866Y-11675163D01*
X9214918Y-11849842D01*
X9140856Y-12025713D01*
X9069690Y-12202736D01*
X9001432Y-12380870D01*
X8936091Y-12560077D01*
X8873679Y-12740314D01*
X8814206Y-12921544D01*
X8757683Y-13103724D01*
X8704122Y-13286817D01*
X8653532Y-13470780D01*
X8605924Y-13655575D01*
X8561310Y-13841161D01*
X8519700Y-14027498D01*
X8481105Y-14214546D01*
X8445535Y-14402265D01*
X8413002Y-14590615D01*
X8383517Y-14779556D01*
X8357089Y-14969048D01*
X8333730Y-15159050D01*
X8313450Y-15349523D01*
X8296261Y-15540427D01*
X8282173Y-15731721D01*
X8271197Y-15923365D01*
X8263343Y-16115320D01*
X8258624Y-16307545D01*
X8257048Y-16500001D01*
X8260620Y-16793488D01*
X8271310Y-17085776D01*
X8289075Y-17376765D01*
X8313874Y-17666357D01*
X8345667Y-17954451D01*
X8384412Y-18240948D01*
X8430068Y-18525749D01*
X8482593Y-18808753D01*
X8541945Y-19089862D01*
X8608085Y-19368976D01*
X8680970Y-19645995D01*
X8760560Y-19920821D01*
X8846812Y-20193353D01*
X8939685Y-20463492D01*
X9039139Y-20731138D01*
X9145133Y-20996193D01*
X9257623Y-21258556D01*
X9376570Y-21518128D01*
X9501933Y-21774810D01*
X9633669Y-22028501D01*
X9771738Y-22279104D01*
X9916098Y-22526517D01*
X10066707Y-22770642D01*
X10223526Y-23011379D01*
X10386512Y-23248628D01*
X10555624Y-23482291D01*
X10730821Y-23712267D01*
X10912061Y-23938457D01*
X11099303Y-24160762D01*
X11292507Y-24379082D01*
X11491630Y-24593318D01*
X11696631Y-24803369D01*
X11906683Y-25008366D01*
X12120919Y-25207485D01*
X12339239Y-25400685D01*
X12561544Y-25587925D01*
X12787734Y-25769163D01*
X13017710Y-25944357D01*
X13251373Y-26113468D01*
X13488623Y-26276453D01*
X13729360Y-26433270D01*
X13973485Y-26583880D01*
X14220898Y-26728240D01*
X14471501Y-26866309D01*
X14725192Y-26998045D01*
X14981874Y-27123409D01*
X15241446Y-27242357D01*
X15503809Y-27354849D01*
X15768864Y-27460843D01*
X16036511Y-27560298D01*
X16306650Y-27653174D01*
X16579182Y-27739427D01*
X16854007Y-27819018D01*
X17131026Y-27891905D01*
X17410140Y-27958046D01*
X17691249Y-28017401D01*
X17974254Y-28069927D01*
X18259054Y-28115584D01*
X18545551Y-28154330D01*
X18833645Y-28186124D01*
X19123236Y-28210925D01*
X19414225Y-28228690D01*
X19706513Y-28239380D01*
X20000000Y-28242953D01*
X20293488Y-28239380D01*
X20585776Y-28228690D01*
X20876766Y-28210925D01*
X21166358Y-28186124D01*
X21454452Y-28154330D01*
X21740949Y-28115584D01*
X22025749Y-28069927D01*
X22308754Y-28017401D01*
X22589863Y-27958046D01*
X22868977Y-27891905D01*
X23145996Y-27819018D01*
X23420822Y-27739427D01*
X23693354Y-27653174D01*
X23963493Y-27560298D01*
X24231139Y-27460843D01*
X24496193Y-27354848D01*
X24758556Y-27242357D01*
X25018128Y-27123408D01*
X25274810Y-26998045D01*
X25528502Y-26866309D01*
X25779104Y-26728240D01*
X26026517Y-26583880D01*
X26270642Y-26433270D01*
X26511378Y-26276453D01*
X26748628Y-26113468D01*
X26982290Y-25944357D01*
X27212266Y-25769163D01*
X27438457Y-25587925D01*
X27660762Y-25400685D01*
X27879082Y-25207485D01*
X28093317Y-25008366D01*
X28303369Y-24803369D01*
X28508364Y-24593318D01*
X28707479Y-24379082D01*
X28900672Y-24160762D01*
X29087902Y-23938457D01*
X29269128Y-23712267D01*
X29444309Y-23482290D01*
X29613404Y-23248628D01*
X29776371Y-23011378D01*
X29933170Y-22770641D01*
X30083760Y-22526516D01*
X30228098Y-22279103D01*
X30366145Y-22028501D01*
X30497858Y-21774809D01*
X30623198Y-21518127D01*
X30742122Y-21258555D01*
X30854590Y-20996192D01*
X30960560Y-20731138D01*
X31059991Y-20463491D01*
X31152843Y-20193352D01*
X31239073Y-19920820D01*
X31318642Y-19645995D01*
X31391507Y-19368975D01*
X31457629Y-19089861D01*
X31516964Y-18808752D01*
X31569473Y-18525748D01*
X31615114Y-18240947D01*
X31653847Y-17954450D01*
X31685629Y-17666356D01*
X31710420Y-17376765D01*
X31728179Y-17085775D01*
X31738864Y-16793487D01*
X31742435Y-16500000D01*
X31738864Y-16206513D01*
X31728179Y-15914225D01*
X31710420Y-15623235D01*
X31685629Y-15333644D01*
X31653847Y-15045550D01*
X31615114Y-14759053D01*
X31569473Y-14474252D01*
X31516964Y-14191247D01*
X31457629Y-13910138D01*
X31391507Y-13631024D01*
X31318642Y-13354005D01*
X31239073Y-13079179D01*
X31152843Y-12806647D01*
X31059991Y-12536508D01*
X30960560Y-12268862D01*
X30854590Y-12003807D01*
X30742122Y-11741444D01*
X30623198Y-11481872D01*
X30497858Y-11225190D01*
X30366145Y-10971498D01*
X30228098Y-10720896D01*
X30083760Y-10473483D01*
X29933170Y-10229358D01*
X29776371Y-9988621D01*
X29613404Y-9751371D01*
X29444309Y-9517709D01*
X29269128Y-9287733D01*
X29087902Y-9061543D01*
X28900672Y-8839238D01*
X28707479Y-8620918D01*
X28508364Y-8406683D01*
X28303369Y-8196631D01*
X28093322Y-7991620D01*
X27879090Y-7792491D01*
X27660772Y-7599286D01*
X27438470Y-7412046D01*
X27212281Y-7230811D01*
X26982305Y-7055623D01*
X26748643Y-6886523D01*
X26511393Y-6723552D01*
X26270655Y-6566751D01*
X26026529Y-6416160D01*
X25779115Y-6271821D01*
X25528511Y-6133775D01*
X25274817Y-6002064D01*
X25018133Y-5876727D01*
X24758559Y-5757806D01*
X24496193Y-5645342D01*
X24231136Y-5539377D01*
X23963488Y-5439950D01*
X23693346Y-5347104D01*
X23420812Y-5260879D01*
X23145985Y-5181316D01*
X22868964Y-5108456D01*
X22589849Y-5042340D01*
X22308739Y-4983010D01*
X22025734Y-4930507D01*
X21740934Y-4884870D01*
X21454437Y-4846142D01*
X21166345Y-4814364D01*
X20876755Y-4789576D01*
X20585768Y-4771819D01*
X20293483Y-4761135D01*
X20000000Y-4757565D01*
G36*
X25996016Y-3401575D02*
X25449796Y-3878548D01*
X24746997Y-3699231D01*
X25031734Y-4366374D01*
X24643644Y-4979256D01*
X25366597Y-4914144D01*
X25829618Y-5472766D01*
X25991365Y-4765316D01*
X26665226Y-4497632D01*
X26042525Y-4125562D01*
X25996016Y-3401575D01*
X25996016Y-3401575D01*
G37*
X25996016Y-3401575D02*
X25449796Y-3878548D01*
X24746997Y-3699231D01*
X25031734Y-4366374D01*
X24643644Y-4979256D01*
X25366597Y-4914144D01*
X25829618Y-5472766D01*
X25991365Y-4765316D01*
X26665226Y-4497632D01*
X26042525Y-4125562D01*
X25996016Y-3401575D01*
G36*
X14185368Y-3292538D02*
X14109920Y-4013941D01*
X13473267Y-4361206D01*
X14136275Y-4655762D01*
X14269084Y-5368897D01*
X14754325Y-4829395D01*
X15473661Y-4922929D01*
X15110376Y-4295060D01*
X15421985Y-3639803D01*
X14712468Y-3791215D01*
X14185368Y-3292538D01*
X14185368Y-3292538D01*
G37*
X14185368Y-3292538D02*
X14109920Y-4013941D01*
X13473267Y-4361206D01*
X14136275Y-4655762D01*
X14269084Y-5368897D01*
X14754325Y-4829395D01*
X15473661Y-4922929D01*
X15110376Y-4295060D01*
X15421985Y-3639803D01*
X14712468Y-3791215D01*
X14185368Y-3292538D01*
G36*
X20000000Y-1499882D02*
X19625102Y-1504445D01*
X19251737Y-1518098D01*
X18880031Y-1540788D01*
X18510111Y-1572464D01*
X18142104Y-1613072D01*
X17776137Y-1662559D01*
X17412338Y-1720873D01*
X17050834Y-1787962D01*
X16691751Y-1863772D01*
X16335217Y-1948250D01*
X15981358Y-2041346D01*
X15630302Y-2143004D01*
X15282175Y-2253174D01*
X14937106Y-2371802D01*
X14595220Y-2498835D01*
X14256645Y-2634221D01*
X13921509Y-2777908D01*
X13589937Y-2929842D01*
X13262057Y-3089970D01*
X12937997Y-3258241D01*
X12617882Y-3434602D01*
X12301841Y-3618999D01*
X11990001Y-3811381D01*
X11682487Y-4011694D01*
X11379428Y-4219886D01*
X11080951Y-4435904D01*
X10787182Y-4659695D01*
X10498249Y-4891208D01*
X10214278Y-5130388D01*
X9935397Y-5377184D01*
X9661733Y-5631543D01*
X9835497Y-5814235D01*
X10104554Y-5564161D01*
X10378741Y-5321525D01*
X10657934Y-5086378D01*
X10942007Y-4858772D01*
X11230836Y-4638759D01*
X11524296Y-4426391D01*
X11822261Y-4221719D01*
X12124607Y-4024794D01*
X12431207Y-3835669D01*
X12741939Y-3654394D01*
X13056676Y-3481022D01*
X13375293Y-3315604D01*
X13697665Y-3158192D01*
X14023668Y-3008837D01*
X14353176Y-2867591D01*
X14686064Y-2734505D01*
X15022208Y-2609632D01*
X15361481Y-2493022D01*
X15703760Y-2384728D01*
X16048919Y-2284801D01*
X16396833Y-2193292D01*
X16747378Y-2110253D01*
X17100427Y-2035737D01*
X17455856Y-1969793D01*
X17813541Y-1912475D01*
X18173355Y-1863833D01*
X18535174Y-1823920D01*
X18898873Y-1792786D01*
X19264327Y-1770484D01*
X19631411Y-1757065D01*
X20000000Y-1752580D01*
X20368587Y-1757065D01*
X20735667Y-1770484D01*
X21101114Y-1792787D01*
X21464803Y-1823922D01*
X21826611Y-1863836D01*
X22186411Y-1912479D01*
X22544080Y-1969799D01*
X22899491Y-2035744D01*
X23252522Y-2110262D01*
X23603045Y-2193302D01*
X23950938Y-2284813D01*
X24296075Y-2384742D01*
X24638330Y-2493037D01*
X24977580Y-2609649D01*
X25313699Y-2734523D01*
X25646563Y-2867610D01*
X25976047Y-3008857D01*
X26302026Y-3158213D01*
X26624374Y-3315626D01*
X26942968Y-3481045D01*
X27257683Y-3654417D01*
X27568393Y-3835691D01*
X27874974Y-4024816D01*
X28177300Y-4221740D01*
X28475248Y-4426411D01*
X28768692Y-4638778D01*
X29057508Y-4858789D01*
X29341570Y-5086392D01*
X29620753Y-5321536D01*
X29894934Y-5564169D01*
X30163987Y-5814240D01*
X30427787Y-6071696D01*
X30685245Y-6335498D01*
X30935320Y-6604555D01*
X31177960Y-6878742D01*
X31413114Y-7157936D01*
X31640729Y-7442009D01*
X31860754Y-7730838D01*
X32073136Y-8024298D01*
X32277825Y-8322263D01*
X32474768Y-8624609D01*
X32663913Y-8931210D01*
X32845209Y-9241941D01*
X33018604Y-9556677D01*
X33184045Y-9875294D01*
X33341482Y-10197667D01*
X33490861Y-10523669D01*
X33632133Y-10853177D01*
X33765244Y-11186065D01*
X33890142Y-11522208D01*
X34006777Y-11861482D01*
X34115096Y-12203760D01*
X34215047Y-12548919D01*
X34306578Y-12896833D01*
X34389639Y-13247377D01*
X34464176Y-13600426D01*
X34530138Y-13955855D01*
X34587473Y-14313540D01*
X34636130Y-14673354D01*
X34676056Y-15035173D01*
X34707200Y-15398873D01*
X34729510Y-15764327D01*
X34742934Y-16131411D01*
X34747420Y-16500000D01*
X34742940Y-16868589D01*
X34729524Y-17235673D01*
X34707225Y-17601126D01*
X34676094Y-17964824D01*
X34636181Y-18326643D01*
X34587541Y-18686456D01*
X34530222Y-19044139D01*
X34464279Y-19399566D01*
X34389761Y-19752614D01*
X34306722Y-20103156D01*
X34215211Y-20451069D01*
X34115282Y-20796226D01*
X34006986Y-21138503D01*
X33890374Y-21477775D01*
X33765498Y-21813917D01*
X33632411Y-22146804D01*
X33491162Y-22476311D01*
X33341805Y-22802312D01*
X33184390Y-23124684D01*
X33018970Y-23443300D01*
X32845596Y-23758037D01*
X32664320Y-24068768D01*
X32475194Y-24375369D01*
X32278268Y-24677715D01*
X32073595Y-24975682D01*
X31861227Y-25269143D01*
X31641215Y-25557974D01*
X31413610Y-25842050D01*
X31178465Y-26121246D01*
X30935831Y-26395437D01*
X30685760Y-26664498D01*
X30428304Y-26928304D01*
X30164502Y-27185760D01*
X29895445Y-27435830D01*
X29621257Y-27678463D01*
X29342064Y-27913607D01*
X29057990Y-28141210D01*
X28769161Y-28361221D01*
X28475701Y-28573588D01*
X28177736Y-28778259D01*
X27875390Y-28975183D01*
X27568789Y-29164308D01*
X27258058Y-29345583D01*
X26943321Y-29518955D01*
X26624704Y-29684373D01*
X26302332Y-29841786D01*
X25976329Y-29991142D01*
X25646822Y-30132390D01*
X25313933Y-30265476D01*
X24977790Y-30390351D01*
X24638517Y-30506962D01*
X24296238Y-30615258D01*
X23951079Y-30715187D01*
X23603165Y-30806697D01*
X23252621Y-30889738D01*
X22899572Y-30964256D01*
X22544143Y-31030201D01*
X22186459Y-31087521D01*
X21826645Y-31136164D01*
X21464826Y-31176078D01*
X21101127Y-31207213D01*
X20735673Y-31229516D01*
X20368589Y-31242935D01*
X20000000Y-31247420D01*
X19631412Y-31242935D01*
X19264333Y-31229516D01*
X18898886Y-31207213D01*
X18535197Y-31176078D01*
X18173390Y-31136164D01*
X17813591Y-31087521D01*
X17455923Y-31030201D01*
X17100513Y-30964256D01*
X16747484Y-30889738D01*
X16396962Y-30806698D01*
X16049071Y-30715187D01*
X15703936Y-30615258D01*
X15361682Y-30506963D01*
X15022434Y-30390351D01*
X14686316Y-30265477D01*
X14353454Y-30132390D01*
X14023972Y-29991143D01*
X13697994Y-29841787D01*
X13375646Y-29684374D01*
X13057053Y-29518955D01*
X12742339Y-29345583D01*
X12431629Y-29164309D01*
X12125049Y-28975184D01*
X11822721Y-28778260D01*
X11524773Y-28573589D01*
X11231327Y-28361222D01*
X10942510Y-28141211D01*
X10658445Y-27913608D01*
X10379259Y-27678464D01*
X10105075Y-27435831D01*
X9836018Y-27185760D01*
X9572213Y-26928304D01*
X9314751Y-26664502D01*
X9064673Y-26395445D01*
X8822030Y-26121257D01*
X8586873Y-25842064D01*
X8359256Y-25557991D01*
X8139230Y-25269161D01*
X7926846Y-24975702D01*
X7722156Y-24677737D01*
X7525213Y-24375391D01*
X7336067Y-24068790D01*
X7154772Y-23758059D01*
X6981377Y-23443322D01*
X6815936Y-23124705D01*
X6658500Y-22802333D01*
X6509121Y-22476331D01*
X6367851Y-22146823D01*
X6234741Y-21813935D01*
X6109844Y-21477791D01*
X5993210Y-21138518D01*
X5884893Y-20796239D01*
X5784943Y-20451081D01*
X5693413Y-20103167D01*
X5610354Y-19752623D01*
X5535818Y-19399573D01*
X5469857Y-19044144D01*
X5412523Y-18686460D01*
X5363867Y-18326646D01*
X5323942Y-17964827D01*
X5292799Y-17601127D01*
X5270490Y-17235673D01*
X5257066Y-16868589D01*
X5252580Y-16500000D01*
X5257065Y-16131416D01*
X5270484Y-15764336D01*
X5292787Y-15398885D01*
X5323922Y-15035190D01*
X5363836Y-14673374D01*
X5412479Y-14313563D01*
X5469799Y-13955881D01*
X5535744Y-13600455D01*
X5610262Y-13247408D01*
X5693302Y-12896866D01*
X5784812Y-12548953D01*
X5884741Y-12203796D01*
X5993037Y-11861518D01*
X6109648Y-11522245D01*
X6234523Y-11186103D01*
X6367609Y-10853215D01*
X6508856Y-10523707D01*
X6658212Y-10197704D01*
X6815625Y-9875331D01*
X6981044Y-9556713D01*
X7154416Y-9241975D01*
X7335690Y-8931242D01*
X7524816Y-8624639D01*
X7721739Y-8322291D01*
X7926411Y-8024324D01*
X8138778Y-7730861D01*
X8358789Y-7442029D01*
X8586392Y-7157952D01*
X8821536Y-6878755D01*
X9064169Y-6604564D01*
X9314240Y-6335502D01*
X9571696Y-6071696D01*
X9835497Y-5814235D01*
X9661733Y-5631543D01*
X9393412Y-5893412D01*
X9131543Y-6161733D01*
X8877184Y-6435398D01*
X8630387Y-6714279D01*
X8391207Y-6998250D01*
X8159694Y-7287184D01*
X7935902Y-7580953D01*
X7719884Y-7879431D01*
X7511692Y-8182490D01*
X7311379Y-8490003D01*
X7118997Y-8801844D01*
X6934600Y-9117885D01*
X6758240Y-9438000D01*
X6589969Y-9762060D01*
X6429840Y-10089940D01*
X6277906Y-10421512D01*
X6134220Y-10756649D01*
X5998834Y-11095223D01*
X5871800Y-11437109D01*
X5753173Y-11782179D01*
X5643003Y-12130305D01*
X5541345Y-12481361D01*
X5448250Y-12835219D01*
X5363771Y-13191754D01*
X5287961Y-13550836D01*
X5220873Y-13912341D01*
X5162559Y-14276139D01*
X5113071Y-14642106D01*
X5072464Y-15010112D01*
X5040788Y-15380032D01*
X5018098Y-15751738D01*
X5004445Y-16125103D01*
X4999882Y-16500000D01*
X5004445Y-16874902D01*
X5018098Y-17248271D01*
X5040788Y-17619980D01*
X5072464Y-17989902D01*
X5113071Y-18357911D01*
X5162559Y-18723879D01*
X5220873Y-19087679D01*
X5287961Y-19449185D01*
X5363771Y-19808268D01*
X5448250Y-20164803D01*
X5541345Y-20518661D01*
X5643003Y-20869717D01*
X5753173Y-21217843D01*
X5871800Y-21562911D01*
X5998834Y-21904796D01*
X6134220Y-22243370D01*
X6277906Y-22578505D01*
X6429840Y-22910076D01*
X6589969Y-23237954D01*
X6758240Y-23562013D01*
X6934600Y-23882126D01*
X7118997Y-24198166D01*
X7311379Y-24510005D01*
X7511692Y-24817517D01*
X7719884Y-25120575D01*
X7935902Y-25419051D01*
X8159694Y-25712819D01*
X8391207Y-26001752D01*
X8630387Y-26285722D01*
X8877184Y-26564603D01*
X9131543Y-26838267D01*
X9393412Y-27106588D01*
X9661733Y-27368457D01*
X9935397Y-27622815D01*
X10214278Y-27869611D01*
X10498249Y-28108792D01*
X10787182Y-28340304D01*
X11080951Y-28564096D01*
X11379428Y-28780114D01*
X11682487Y-28988306D01*
X11990001Y-29188619D01*
X12301841Y-29381000D01*
X12617882Y-29565398D01*
X12937997Y-29741758D01*
X13262057Y-29910029D01*
X13589937Y-30070158D01*
X13921509Y-30222092D01*
X14256645Y-30365778D01*
X14595220Y-30501165D01*
X14937106Y-30628198D01*
X15282175Y-30746826D01*
X15630302Y-30856995D01*
X15981358Y-30958654D01*
X16335217Y-31051749D01*
X16691751Y-31136228D01*
X17050834Y-31212038D01*
X17412338Y-31279127D01*
X17776137Y-31337441D01*
X18142104Y-31386928D01*
X18510111Y-31427536D01*
X18880031Y-31459212D01*
X19251737Y-31481902D01*
X19625102Y-31495555D01*
X20000000Y-31500118D01*
X20374902Y-31495555D01*
X20748271Y-31481902D01*
X21119981Y-31459210D01*
X21489904Y-31427534D01*
X21857914Y-31386925D01*
X22223883Y-31337437D01*
X22587685Y-31279121D01*
X22949191Y-31212031D01*
X23308276Y-31136220D01*
X23664812Y-31051739D01*
X24018672Y-30958642D01*
X24369730Y-30856982D01*
X24717857Y-30746811D01*
X25062927Y-30628182D01*
X25404813Y-30501147D01*
X25743388Y-30365759D01*
X26078525Y-30222072D01*
X26410096Y-30070137D01*
X26737975Y-29910007D01*
X27062034Y-29741736D01*
X27382148Y-29565375D01*
X27698187Y-29380978D01*
X28010026Y-29188596D01*
X28317538Y-28988284D01*
X28620594Y-28780093D01*
X28919069Y-28564077D01*
X29212836Y-28340287D01*
X29501766Y-28108777D01*
X29785733Y-27869600D01*
X30064611Y-27622807D01*
X30338271Y-27368452D01*
X30606588Y-27106588D01*
X30868452Y-26838272D01*
X31122807Y-26564611D01*
X31369600Y-26285734D01*
X31608778Y-26001767D01*
X31840288Y-25712836D01*
X32064078Y-25419070D01*
X32280094Y-25120595D01*
X32488285Y-24817539D01*
X32688597Y-24510027D01*
X32880979Y-24198188D01*
X33065376Y-23882149D01*
X33241737Y-23562036D01*
X33410008Y-23237976D01*
X33570138Y-22910097D01*
X33722073Y-22578526D01*
X33865760Y-22243389D01*
X34001148Y-21904814D01*
X34128182Y-21562928D01*
X34246811Y-21217858D01*
X34356983Y-20869731D01*
X34458643Y-20518673D01*
X34551739Y-20164813D01*
X34636220Y-19808277D01*
X34712031Y-19449192D01*
X34779121Y-19087685D01*
X34837437Y-18723884D01*
X34886925Y-18357914D01*
X34927534Y-17989904D01*
X34959210Y-17619981D01*
X34981902Y-17248271D01*
X34995555Y-16874902D01*
X35000118Y-16500000D01*
X34995555Y-16125103D01*
X34981902Y-15751738D01*
X34959210Y-15380032D01*
X34927534Y-15010112D01*
X34886925Y-14642106D01*
X34837437Y-14276139D01*
X34779121Y-13912341D01*
X34712031Y-13550836D01*
X34636220Y-13191754D01*
X34551739Y-12835219D01*
X34458643Y-12481361D01*
X34356983Y-12130305D01*
X34246811Y-11782179D01*
X34128182Y-11437109D01*
X34001148Y-11095223D01*
X33865760Y-10756649D01*
X33722073Y-10421512D01*
X33570138Y-10089940D01*
X33410008Y-9762060D01*
X33241737Y-9438000D01*
X33065376Y-9117885D01*
X32880979Y-8801844D01*
X32688597Y-8490003D01*
X32488285Y-8182490D01*
X32280094Y-7879431D01*
X32064078Y-7580953D01*
X31840288Y-7287184D01*
X31608778Y-6998250D01*
X31369600Y-6714279D01*
X31122807Y-6435398D01*
X30868452Y-6161733D01*
X30606588Y-5893412D01*
X30338267Y-5631543D01*
X30064602Y-5377184D01*
X29785720Y-5130388D01*
X29501749Y-4891208D01*
X29212815Y-4659695D01*
X28919045Y-4435904D01*
X28620567Y-4219886D01*
X28317508Y-4011694D01*
X28009994Y-3811381D01*
X27698153Y-3618999D01*
X27382112Y-3434602D01*
X27061998Y-3258241D01*
X26737937Y-3089970D01*
X26410057Y-2929842D01*
X26078485Y-2777908D01*
X25743349Y-2634221D01*
X25404774Y-2498835D01*
X25062888Y-2371802D01*
X24717819Y-2253174D01*
X24369693Y-2143004D01*
X24018637Y-2041346D01*
X23664778Y-1948250D01*
X23308244Y-1863772D01*
X22949162Y-1787962D01*
X22587658Y-1720873D01*
X22223859Y-1662559D01*
X21857893Y-1613072D01*
X21489887Y-1572464D01*
X21119967Y-1540788D01*
X20748262Y-1518098D01*
X20374897Y-1504445D01*
X20000000Y-1499882D01*
X20000000Y-1499882D01*
G37*
X20000000Y-1499882D02*
X19625102Y-1504445D01*
X19251737Y-1518098D01*
X18880031Y-1540788D01*
X18510111Y-1572464D01*
X18142104Y-1613072D01*
X17776137Y-1662559D01*
X17412338Y-1720873D01*
X17050834Y-1787962D01*
X16691751Y-1863772D01*
X16335217Y-1948250D01*
X15981358Y-2041346D01*
X15630302Y-2143004D01*
X15282175Y-2253174D01*
X14937106Y-2371802D01*
X14595220Y-2498835D01*
X14256645Y-2634221D01*
X13921509Y-2777908D01*
X13589937Y-2929842D01*
X13262057Y-3089970D01*
X12937997Y-3258241D01*
X12617882Y-3434602D01*
X12301841Y-3618999D01*
X11990001Y-3811381D01*
X11682487Y-4011694D01*
X11379428Y-4219886D01*
X11080951Y-4435904D01*
X10787182Y-4659695D01*
X10498249Y-4891208D01*
X10214278Y-5130388D01*
X9935397Y-5377184D01*
X9661733Y-5631543D01*
X9835497Y-5814235D01*
X10104554Y-5564161D01*
X10378741Y-5321525D01*
X10657934Y-5086378D01*
X10942007Y-4858772D01*
X11230836Y-4638759D01*
X11524296Y-4426391D01*
X11822261Y-4221719D01*
X12124607Y-4024794D01*
X12431207Y-3835669D01*
X12741939Y-3654394D01*
X13056676Y-3481022D01*
X13375293Y-3315604D01*
X13697665Y-3158192D01*
X14023668Y-3008837D01*
X14353176Y-2867591D01*
X14686064Y-2734505D01*
X15022208Y-2609632D01*
X15361481Y-2493022D01*
X15703760Y-2384728D01*
X16048919Y-2284801D01*
X16396833Y-2193292D01*
X16747378Y-2110253D01*
X17100427Y-2035737D01*
X17455856Y-1969793D01*
X17813541Y-1912475D01*
X18173355Y-1863833D01*
X18535174Y-1823920D01*
X18898873Y-1792786D01*
X19264327Y-1770484D01*
X19631411Y-1757065D01*
X20000000Y-1752580D01*
X20368587Y-1757065D01*
X20735667Y-1770484D01*
X21101114Y-1792787D01*
X21464803Y-1823922D01*
X21826611Y-1863836D01*
X22186411Y-1912479D01*
X22544080Y-1969799D01*
X22899491Y-2035744D01*
X23252522Y-2110262D01*
X23603045Y-2193302D01*
X23950938Y-2284813D01*
X24296075Y-2384742D01*
X24638330Y-2493037D01*
X24977580Y-2609649D01*
X25313699Y-2734523D01*
X25646563Y-2867610D01*
X25976047Y-3008857D01*
X26302026Y-3158213D01*
X26624374Y-3315626D01*
X26942968Y-3481045D01*
X27257683Y-3654417D01*
X27568393Y-3835691D01*
X27874974Y-4024816D01*
X28177300Y-4221740D01*
X28475248Y-4426411D01*
X28768692Y-4638778D01*
X29057508Y-4858789D01*
X29341570Y-5086392D01*
X29620753Y-5321536D01*
X29894934Y-5564169D01*
X30163987Y-5814240D01*
X30427787Y-6071696D01*
X30685245Y-6335498D01*
X30935320Y-6604555D01*
X31177960Y-6878742D01*
X31413114Y-7157936D01*
X31640729Y-7442009D01*
X31860754Y-7730838D01*
X32073136Y-8024298D01*
X32277825Y-8322263D01*
X32474768Y-8624609D01*
X32663913Y-8931210D01*
X32845209Y-9241941D01*
X33018604Y-9556677D01*
X33184045Y-9875294D01*
X33341482Y-10197667D01*
X33490861Y-10523669D01*
X33632133Y-10853177D01*
X33765244Y-11186065D01*
X33890142Y-11522208D01*
X34006777Y-11861482D01*
X34115096Y-12203760D01*
X34215047Y-12548919D01*
X34306578Y-12896833D01*
X34389639Y-13247377D01*
X34464176Y-13600426D01*
X34530138Y-13955855D01*
X34587473Y-14313540D01*
X34636130Y-14673354D01*
X34676056Y-15035173D01*
X34707200Y-15398873D01*
X34729510Y-15764327D01*
X34742934Y-16131411D01*
X34747420Y-16500000D01*
X34742940Y-16868589D01*
X34729524Y-17235673D01*
X34707225Y-17601126D01*
X34676094Y-17964824D01*
X34636181Y-18326643D01*
X34587541Y-18686456D01*
X34530222Y-19044139D01*
X34464279Y-19399566D01*
X34389761Y-19752614D01*
X34306722Y-20103156D01*
X34215211Y-20451069D01*
X34115282Y-20796226D01*
X34006986Y-21138503D01*
X33890374Y-21477775D01*
X33765498Y-21813917D01*
X33632411Y-22146804D01*
X33491162Y-22476311D01*
X33341805Y-22802312D01*
X33184390Y-23124684D01*
X33018970Y-23443300D01*
X32845596Y-23758037D01*
X32664320Y-24068768D01*
X32475194Y-24375369D01*
X32278268Y-24677715D01*
X32073595Y-24975682D01*
X31861227Y-25269143D01*
X31641215Y-25557974D01*
X31413610Y-25842050D01*
X31178465Y-26121246D01*
X30935831Y-26395437D01*
X30685760Y-26664498D01*
X30428304Y-26928304D01*
X30164502Y-27185760D01*
X29895445Y-27435830D01*
X29621257Y-27678463D01*
X29342064Y-27913607D01*
X29057990Y-28141210D01*
X28769161Y-28361221D01*
X28475701Y-28573588D01*
X28177736Y-28778259D01*
X27875390Y-28975183D01*
X27568789Y-29164308D01*
X27258058Y-29345583D01*
X26943321Y-29518955D01*
X26624704Y-29684373D01*
X26302332Y-29841786D01*
X25976329Y-29991142D01*
X25646822Y-30132390D01*
X25313933Y-30265476D01*
X24977790Y-30390351D01*
X24638517Y-30506962D01*
X24296238Y-30615258D01*
X23951079Y-30715187D01*
X23603165Y-30806697D01*
X23252621Y-30889738D01*
X22899572Y-30964256D01*
X22544143Y-31030201D01*
X22186459Y-31087521D01*
X21826645Y-31136164D01*
X21464826Y-31176078D01*
X21101127Y-31207213D01*
X20735673Y-31229516D01*
X20368589Y-31242935D01*
X20000000Y-31247420D01*
X19631412Y-31242935D01*
X19264333Y-31229516D01*
X18898886Y-31207213D01*
X18535197Y-31176078D01*
X18173390Y-31136164D01*
X17813591Y-31087521D01*
X17455923Y-31030201D01*
X17100513Y-30964256D01*
X16747484Y-30889738D01*
X16396962Y-30806698D01*
X16049071Y-30715187D01*
X15703936Y-30615258D01*
X15361682Y-30506963D01*
X15022434Y-30390351D01*
X14686316Y-30265477D01*
X14353454Y-30132390D01*
X14023972Y-29991143D01*
X13697994Y-29841787D01*
X13375646Y-29684374D01*
X13057053Y-29518955D01*
X12742339Y-29345583D01*
X12431629Y-29164309D01*
X12125049Y-28975184D01*
X11822721Y-28778260D01*
X11524773Y-28573589D01*
X11231327Y-28361222D01*
X10942510Y-28141211D01*
X10658445Y-27913608D01*
X10379259Y-27678464D01*
X10105075Y-27435831D01*
X9836018Y-27185760D01*
X9572213Y-26928304D01*
X9314751Y-26664502D01*
X9064673Y-26395445D01*
X8822030Y-26121257D01*
X8586873Y-25842064D01*
X8359256Y-25557991D01*
X8139230Y-25269161D01*
X7926846Y-24975702D01*
X7722156Y-24677737D01*
X7525213Y-24375391D01*
X7336067Y-24068790D01*
X7154772Y-23758059D01*
X6981377Y-23443322D01*
X6815936Y-23124705D01*
X6658500Y-22802333D01*
X6509121Y-22476331D01*
X6367851Y-22146823D01*
X6234741Y-21813935D01*
X6109844Y-21477791D01*
X5993210Y-21138518D01*
X5884893Y-20796239D01*
X5784943Y-20451081D01*
X5693413Y-20103167D01*
X5610354Y-19752623D01*
X5535818Y-19399573D01*
X5469857Y-19044144D01*
X5412523Y-18686460D01*
X5363867Y-18326646D01*
X5323942Y-17964827D01*
X5292799Y-17601127D01*
X5270490Y-17235673D01*
X5257066Y-16868589D01*
X5252580Y-16500000D01*
X5257065Y-16131416D01*
X5270484Y-15764336D01*
X5292787Y-15398885D01*
X5323922Y-15035190D01*
X5363836Y-14673374D01*
X5412479Y-14313563D01*
X5469799Y-13955881D01*
X5535744Y-13600455D01*
X5610262Y-13247408D01*
X5693302Y-12896866D01*
X5784812Y-12548953D01*
X5884741Y-12203796D01*
X5993037Y-11861518D01*
X6109648Y-11522245D01*
X6234523Y-11186103D01*
X6367609Y-10853215D01*
X6508856Y-10523707D01*
X6658212Y-10197704D01*
X6815625Y-9875331D01*
X6981044Y-9556713D01*
X7154416Y-9241975D01*
X7335690Y-8931242D01*
X7524816Y-8624639D01*
X7721739Y-8322291D01*
X7926411Y-8024324D01*
X8138778Y-7730861D01*
X8358789Y-7442029D01*
X8586392Y-7157952D01*
X8821536Y-6878755D01*
X9064169Y-6604564D01*
X9314240Y-6335502D01*
X9571696Y-6071696D01*
X9835497Y-5814235D01*
X9661733Y-5631543D01*
X9393412Y-5893412D01*
X9131543Y-6161733D01*
X8877184Y-6435398D01*
X8630387Y-6714279D01*
X8391207Y-6998250D01*
X8159694Y-7287184D01*
X7935902Y-7580953D01*
X7719884Y-7879431D01*
X7511692Y-8182490D01*
X7311379Y-8490003D01*
X7118997Y-8801844D01*
X6934600Y-9117885D01*
X6758240Y-9438000D01*
X6589969Y-9762060D01*
X6429840Y-10089940D01*
X6277906Y-10421512D01*
X6134220Y-10756649D01*
X5998834Y-11095223D01*
X5871800Y-11437109D01*
X5753173Y-11782179D01*
X5643003Y-12130305D01*
X5541345Y-12481361D01*
X5448250Y-12835219D01*
X5363771Y-13191754D01*
X5287961Y-13550836D01*
X5220873Y-13912341D01*
X5162559Y-14276139D01*
X5113071Y-14642106D01*
X5072464Y-15010112D01*
X5040788Y-15380032D01*
X5018098Y-15751738D01*
X5004445Y-16125103D01*
X4999882Y-16500000D01*
X5004445Y-16874902D01*
X5018098Y-17248271D01*
X5040788Y-17619980D01*
X5072464Y-17989902D01*
X5113071Y-18357911D01*
X5162559Y-18723879D01*
X5220873Y-19087679D01*
X5287961Y-19449185D01*
X5363771Y-19808268D01*
X5448250Y-20164803D01*
X5541345Y-20518661D01*
X5643003Y-20869717D01*
X5753173Y-21217843D01*
X5871800Y-21562911D01*
X5998834Y-21904796D01*
X6134220Y-22243370D01*
X6277906Y-22578505D01*
X6429840Y-22910076D01*
X6589969Y-23237954D01*
X6758240Y-23562013D01*
X6934600Y-23882126D01*
X7118997Y-24198166D01*
X7311379Y-24510005D01*
X7511692Y-24817517D01*
X7719884Y-25120575D01*
X7935902Y-25419051D01*
X8159694Y-25712819D01*
X8391207Y-26001752D01*
X8630387Y-26285722D01*
X8877184Y-26564603D01*
X9131543Y-26838267D01*
X9393412Y-27106588D01*
X9661733Y-27368457D01*
X9935397Y-27622815D01*
X10214278Y-27869611D01*
X10498249Y-28108792D01*
X10787182Y-28340304D01*
X11080951Y-28564096D01*
X11379428Y-28780114D01*
X11682487Y-28988306D01*
X11990001Y-29188619D01*
X12301841Y-29381000D01*
X12617882Y-29565398D01*
X12937997Y-29741758D01*
X13262057Y-29910029D01*
X13589937Y-30070158D01*
X13921509Y-30222092D01*
X14256645Y-30365778D01*
X14595220Y-30501165D01*
X14937106Y-30628198D01*
X15282175Y-30746826D01*
X15630302Y-30856995D01*
X15981358Y-30958654D01*
X16335217Y-31051749D01*
X16691751Y-31136228D01*
X17050834Y-31212038D01*
X17412338Y-31279127D01*
X17776137Y-31337441D01*
X18142104Y-31386928D01*
X18510111Y-31427536D01*
X18880031Y-31459212D01*
X19251737Y-31481902D01*
X19625102Y-31495555D01*
X20000000Y-31500118D01*
X20374902Y-31495555D01*
X20748271Y-31481902D01*
X21119981Y-31459210D01*
X21489904Y-31427534D01*
X21857914Y-31386925D01*
X22223883Y-31337437D01*
X22587685Y-31279121D01*
X22949191Y-31212031D01*
X23308276Y-31136220D01*
X23664812Y-31051739D01*
X24018672Y-30958642D01*
X24369730Y-30856982D01*
X24717857Y-30746811D01*
X25062927Y-30628182D01*
X25404813Y-30501147D01*
X25743388Y-30365759D01*
X26078525Y-30222072D01*
X26410096Y-30070137D01*
X26737975Y-29910007D01*
X27062034Y-29741736D01*
X27382148Y-29565375D01*
X27698187Y-29380978D01*
X28010026Y-29188596D01*
X28317538Y-28988284D01*
X28620594Y-28780093D01*
X28919069Y-28564077D01*
X29212836Y-28340287D01*
X29501766Y-28108777D01*
X29785733Y-27869600D01*
X30064611Y-27622807D01*
X30338271Y-27368452D01*
X30606588Y-27106588D01*
X30868452Y-26838272D01*
X31122807Y-26564611D01*
X31369600Y-26285734D01*
X31608778Y-26001767D01*
X31840288Y-25712836D01*
X32064078Y-25419070D01*
X32280094Y-25120595D01*
X32488285Y-24817539D01*
X32688597Y-24510027D01*
X32880979Y-24198188D01*
X33065376Y-23882149D01*
X33241737Y-23562036D01*
X33410008Y-23237976D01*
X33570138Y-22910097D01*
X33722073Y-22578526D01*
X33865760Y-22243389D01*
X34001148Y-21904814D01*
X34128182Y-21562928D01*
X34246811Y-21217858D01*
X34356983Y-20869731D01*
X34458643Y-20518673D01*
X34551739Y-20164813D01*
X34636220Y-19808277D01*
X34712031Y-19449192D01*
X34779121Y-19087685D01*
X34837437Y-18723884D01*
X34886925Y-18357914D01*
X34927534Y-17989904D01*
X34959210Y-17619981D01*
X34981902Y-17248271D01*
X34995555Y-16874902D01*
X35000118Y-16500000D01*
X34995555Y-16125103D01*
X34981902Y-15751738D01*
X34959210Y-15380032D01*
X34927534Y-15010112D01*
X34886925Y-14642106D01*
X34837437Y-14276139D01*
X34779121Y-13912341D01*
X34712031Y-13550836D01*
X34636220Y-13191754D01*
X34551739Y-12835219D01*
X34458643Y-12481361D01*
X34356983Y-12130305D01*
X34246811Y-11782179D01*
X34128182Y-11437109D01*
X34001148Y-11095223D01*
X33865760Y-10756649D01*
X33722073Y-10421512D01*
X33570138Y-10089940D01*
X33410008Y-9762060D01*
X33241737Y-9438000D01*
X33065376Y-9117885D01*
X32880979Y-8801844D01*
X32688597Y-8490003D01*
X32488285Y-8182490D01*
X32280094Y-7879431D01*
X32064078Y-7580953D01*
X31840288Y-7287184D01*
X31608778Y-6998250D01*
X31369600Y-6714279D01*
X31122807Y-6435398D01*
X30868452Y-6161733D01*
X30606588Y-5893412D01*
X30338267Y-5631543D01*
X30064602Y-5377184D01*
X29785720Y-5130388D01*
X29501749Y-4891208D01*
X29212815Y-4659695D01*
X28919045Y-4435904D01*
X28620567Y-4219886D01*
X28317508Y-4011694D01*
X28009994Y-3811381D01*
X27698153Y-3618999D01*
X27382112Y-3434602D01*
X27061998Y-3258241D01*
X26737937Y-3089970D01*
X26410057Y-2929842D01*
X26078485Y-2777908D01*
X25743349Y-2634221D01*
X25404774Y-2498835D01*
X25062888Y-2371802D01*
X24717819Y-2253174D01*
X24369693Y-2143004D01*
X24018637Y-2041346D01*
X23664778Y-1948250D01*
X23308244Y-1863772D01*
X22949162Y-1787962D01*
X22587658Y-1720873D01*
X22223859Y-1662559D01*
X21857893Y-1613072D01*
X21489887Y-1572464D01*
X21119967Y-1540788D01*
X20748262Y-1518098D01*
X20374897Y-1504445D01*
X20000000Y-1499882D01*
G04 #@! TD*
D11*
G04 #@! TO.C,R2*
X11500000Y-37000000D03*
X9000000Y-32000000D03*
X6500000Y-37000000D03*
G04 #@! TD*
G04 #@! TO.C,R1*
X28500000Y-37000000D03*
X31000000Y-32000000D03*
X33500000Y-37000000D03*
G04 #@! TD*
D12*
G04 #@! TO.C,Q1*
G36*
X9161756Y-43251806D02*
X9198159Y-43257206D01*
X9233857Y-43266147D01*
X9268506Y-43278545D01*
X9301774Y-43294280D01*
X9333339Y-43313199D01*
X9362897Y-43335121D01*
X9390165Y-43359835D01*
X9414879Y-43387103D01*
X9436801Y-43416661D01*
X9455720Y-43448226D01*
X9471455Y-43481494D01*
X9483853Y-43516143D01*
X9492794Y-43551841D01*
X9498194Y-43588244D01*
X9500000Y-43625000D01*
X9500000Y-44375000D01*
X9498194Y-44411756D01*
X9492794Y-44448159D01*
X9483853Y-44483857D01*
X9471455Y-44518506D01*
X9455720Y-44551774D01*
X9436801Y-44583339D01*
X9414879Y-44612897D01*
X9390165Y-44640165D01*
X9362897Y-44664879D01*
X9333339Y-44686801D01*
X9301774Y-44705720D01*
X9268506Y-44721455D01*
X9233857Y-44733853D01*
X9198159Y-44742794D01*
X9161756Y-44748194D01*
X9125000Y-44750000D01*
X7675000Y-44750000D01*
X7638244Y-44748194D01*
X7601841Y-44742794D01*
X7566143Y-44733853D01*
X7531494Y-44721455D01*
X7498226Y-44705720D01*
X7466661Y-44686801D01*
X7437103Y-44664879D01*
X7409835Y-44640165D01*
X7385121Y-44612897D01*
X7363199Y-44583339D01*
X7344280Y-44551774D01*
X7328545Y-44518506D01*
X7316147Y-44483857D01*
X7307206Y-44448159D01*
X7301806Y-44411756D01*
X7300000Y-44375000D01*
X7300000Y-43625000D01*
X7301806Y-43588244D01*
X7307206Y-43551841D01*
X7316147Y-43516143D01*
X7328545Y-43481494D01*
X7344280Y-43448226D01*
X7363199Y-43416661D01*
X7385121Y-43387103D01*
X7409835Y-43359835D01*
X7437103Y-43335121D01*
X7466661Y-43313199D01*
X7498226Y-43294280D01*
X7531494Y-43278545D01*
X7566143Y-43266147D01*
X7601841Y-43257206D01*
X7638244Y-43251806D01*
X7675000Y-43250000D01*
X9125000Y-43250000D01*
X9161756Y-43251806D01*
X9161756Y-43251806D01*
G37*
D13*
X8400000Y-44000000D03*
D12*
G36*
X7091756Y-44521806D02*
X7128159Y-44527206D01*
X7163857Y-44536147D01*
X7198506Y-44548545D01*
X7231774Y-44564280D01*
X7263339Y-44583199D01*
X7292897Y-44605121D01*
X7320165Y-44629835D01*
X7344879Y-44657103D01*
X7366801Y-44686661D01*
X7385720Y-44718226D01*
X7401455Y-44751494D01*
X7413853Y-44786143D01*
X7422794Y-44821841D01*
X7428194Y-44858244D01*
X7430000Y-44895000D01*
X7430000Y-45645000D01*
X7428194Y-45681756D01*
X7422794Y-45718159D01*
X7413853Y-45753857D01*
X7401455Y-45788506D01*
X7385720Y-45821774D01*
X7366801Y-45853339D01*
X7344879Y-45882897D01*
X7320165Y-45910165D01*
X7292897Y-45934879D01*
X7263339Y-45956801D01*
X7231774Y-45975720D01*
X7198506Y-45991455D01*
X7163857Y-46003853D01*
X7128159Y-46012794D01*
X7091756Y-46018194D01*
X7055000Y-46020000D01*
X5605000Y-46020000D01*
X5568244Y-46018194D01*
X5531841Y-46012794D01*
X5496143Y-46003853D01*
X5461494Y-45991455D01*
X5428226Y-45975720D01*
X5396661Y-45956801D01*
X5367103Y-45934879D01*
X5339835Y-45910165D01*
X5315121Y-45882897D01*
X5293199Y-45853339D01*
X5274280Y-45821774D01*
X5258545Y-45788506D01*
X5246147Y-45753857D01*
X5237206Y-45718159D01*
X5231806Y-45681756D01*
X5230000Y-45645000D01*
X5230000Y-44895000D01*
X5231806Y-44858244D01*
X5237206Y-44821841D01*
X5246147Y-44786143D01*
X5258545Y-44751494D01*
X5274280Y-44718226D01*
X5293199Y-44686661D01*
X5315121Y-44657103D01*
X5339835Y-44629835D01*
X5367103Y-44605121D01*
X5396661Y-44583199D01*
X5428226Y-44564280D01*
X5461494Y-44548545D01*
X5496143Y-44536147D01*
X5531841Y-44527206D01*
X5568244Y-44521806D01*
X5605000Y-44520000D01*
X7055000Y-44520000D01*
X7091756Y-44521806D01*
X7091756Y-44521806D01*
G37*
D13*
X6330000Y-45270000D03*
D14*
X6330000Y-42730000D03*
G04 #@! TD*
D15*
G04 #@! TO.C,J1*
X17000000Y-45000000D03*
G04 #@! TD*
D14*
G04 #@! TO.C,Q2*
X33670000Y-45270000D03*
D12*
G36*
X34431756Y-41981806D02*
X34468159Y-41987206D01*
X34503857Y-41996147D01*
X34538506Y-42008545D01*
X34571774Y-42024280D01*
X34603339Y-42043199D01*
X34632897Y-42065121D01*
X34660165Y-42089835D01*
X34684879Y-42117103D01*
X34706801Y-42146661D01*
X34725720Y-42178226D01*
X34741455Y-42211494D01*
X34753853Y-42246143D01*
X34762794Y-42281841D01*
X34768194Y-42318244D01*
X34770000Y-42355000D01*
X34770000Y-43105000D01*
X34768194Y-43141756D01*
X34762794Y-43178159D01*
X34753853Y-43213857D01*
X34741455Y-43248506D01*
X34725720Y-43281774D01*
X34706801Y-43313339D01*
X34684879Y-43342897D01*
X34660165Y-43370165D01*
X34632897Y-43394879D01*
X34603339Y-43416801D01*
X34571774Y-43435720D01*
X34538506Y-43451455D01*
X34503857Y-43463853D01*
X34468159Y-43472794D01*
X34431756Y-43478194D01*
X34395000Y-43480000D01*
X32945000Y-43480000D01*
X32908244Y-43478194D01*
X32871841Y-43472794D01*
X32836143Y-43463853D01*
X32801494Y-43451455D01*
X32768226Y-43435720D01*
X32736661Y-43416801D01*
X32707103Y-43394879D01*
X32679835Y-43370165D01*
X32655121Y-43342897D01*
X32633199Y-43313339D01*
X32614280Y-43281774D01*
X32598545Y-43248506D01*
X32586147Y-43213857D01*
X32577206Y-43178159D01*
X32571806Y-43141756D01*
X32570000Y-43105000D01*
X32570000Y-42355000D01*
X32571806Y-42318244D01*
X32577206Y-42281841D01*
X32586147Y-42246143D01*
X32598545Y-42211494D01*
X32614280Y-42178226D01*
X32633199Y-42146661D01*
X32655121Y-42117103D01*
X32679835Y-42089835D01*
X32707103Y-42065121D01*
X32736661Y-42043199D01*
X32768226Y-42024280D01*
X32801494Y-42008545D01*
X32836143Y-41996147D01*
X32871841Y-41987206D01*
X32908244Y-41981806D01*
X32945000Y-41980000D01*
X34395000Y-41980000D01*
X34431756Y-41981806D01*
X34431756Y-41981806D01*
G37*
D13*
X33670000Y-42730000D03*
D12*
G36*
X32361756Y-43251806D02*
X32398159Y-43257206D01*
X32433857Y-43266147D01*
X32468506Y-43278545D01*
X32501774Y-43294280D01*
X32533339Y-43313199D01*
X32562897Y-43335121D01*
X32590165Y-43359835D01*
X32614879Y-43387103D01*
X32636801Y-43416661D01*
X32655720Y-43448226D01*
X32671455Y-43481494D01*
X32683853Y-43516143D01*
X32692794Y-43551841D01*
X32698194Y-43588244D01*
X32700000Y-43625000D01*
X32700000Y-44375000D01*
X32698194Y-44411756D01*
X32692794Y-44448159D01*
X32683853Y-44483857D01*
X32671455Y-44518506D01*
X32655720Y-44551774D01*
X32636801Y-44583339D01*
X32614879Y-44612897D01*
X32590165Y-44640165D01*
X32562897Y-44664879D01*
X32533339Y-44686801D01*
X32501774Y-44705720D01*
X32468506Y-44721455D01*
X32433857Y-44733853D01*
X32398159Y-44742794D01*
X32361756Y-44748194D01*
X32325000Y-44750000D01*
X30875000Y-44750000D01*
X30838244Y-44748194D01*
X30801841Y-44742794D01*
X30766143Y-44733853D01*
X30731494Y-44721455D01*
X30698226Y-44705720D01*
X30666661Y-44686801D01*
X30637103Y-44664879D01*
X30609835Y-44640165D01*
X30585121Y-44612897D01*
X30563199Y-44583339D01*
X30544280Y-44551774D01*
X30528545Y-44518506D01*
X30516147Y-44483857D01*
X30507206Y-44448159D01*
X30501806Y-44411756D01*
X30500000Y-44375000D01*
X30500000Y-43625000D01*
X30501806Y-43588244D01*
X30507206Y-43551841D01*
X30516147Y-43516143D01*
X30528545Y-43481494D01*
X30544280Y-43448226D01*
X30563199Y-43416661D01*
X30585121Y-43387103D01*
X30609835Y-43359835D01*
X30637103Y-43335121D01*
X30666661Y-43313199D01*
X30698226Y-43294280D01*
X30731494Y-43278545D01*
X30766143Y-43266147D01*
X30801841Y-43257206D01*
X30838244Y-43251806D01*
X30875000Y-43250000D01*
X32325000Y-43250000D01*
X32361756Y-43251806D01*
X32361756Y-43251806D01*
G37*
D13*
X31600000Y-44000000D03*
G04 #@! TD*
D15*
G04 #@! TO.C,J2*
X23000000Y-45000000D03*
G04 #@! TD*
D16*
G04 #@! TO.C,R5*
X3000000Y-38160000D03*
D17*
X3000000Y-28000000D03*
G04 #@! TD*
D16*
G04 #@! TO.C,R6*
X37000000Y-22160000D03*
D17*
X37000000Y-12000000D03*
G04 #@! TD*
G04 #@! TO.C,R3*
X3000000Y-12000000D03*
D16*
X3000000Y-22160000D03*
G04 #@! TD*
D17*
G04 #@! TO.C,R4*
X37000000Y-28000000D03*
D16*
X37000000Y-38160000D03*
G04 #@! TD*
D18*
G04 #@! TO.C,D2*
X34000000Y-5000000D03*
D19*
X36540000Y-5000000D03*
G04 #@! TD*
D20*
G04 #@! TO.C,C1*
X22000000Y-35000000D03*
D17*
X24500000Y-35000000D03*
G04 #@! TD*
G04 #@! TO.C,C2*
X15500000Y-35000000D03*
D20*
X18000000Y-35000000D03*
G04 #@! TD*
D19*
G04 #@! TO.C,D1*
X3460000Y-5000000D03*
D18*
X6000000Y-5000000D03*
G04 #@! TD*
M02*
