G04 #@! TF.GenerationSoftware,KiCad,Pcbnew,(6.0.0-rc1-dev-318-g6fdc5972f)*
G04 #@! TF.CreationDate,2018-11-24T15:56:51+01:00*
G04 #@! TF.ProjectId,Frack_KnipperLedPrint,467261636B5F4B6E69707065724C6564,rev?*
G04 #@! TF.SameCoordinates,Original*
G04 #@! TF.FileFunction,Copper,L2,Bot,Signal*
G04 #@! TF.FilePolarity,Positive*
%FSLAX46Y46*%
G04 Gerber Fmt 4.6, Leading zero omitted, Abs format (unit mm)*
G04 Created by KiCad (PCBNEW (6.0.0-rc1-dev-318-g6fdc5972f)) date 11/24/18 15:56:51*
%MOMM*%
%LPD*%
G01*
G04 APERTURE LIST*
G04 #@! TA.AperFunction,ComponentPad*
%ADD10C,1.620000*%
G04 #@! TD*
G04 #@! TA.AperFunction,Conductor*
%ADD11C,0.100000*%
G04 #@! TD*
G04 #@! TA.AperFunction,ComponentPad*
%ADD12C,1.100000*%
G04 #@! TD*
G04 #@! TA.AperFunction,ComponentPad*
%ADD13R,1.800000X1.100000*%
G04 #@! TD*
G04 #@! TA.AperFunction,ComponentPad*
%ADD14C,3.500120*%
G04 #@! TD*
G04 #@! TA.AperFunction,ComponentPad*
%ADD15O,1.600000X1.600000*%
G04 #@! TD*
G04 #@! TA.AperFunction,ComponentPad*
%ADD16C,1.600000*%
G04 #@! TD*
G04 #@! TA.AperFunction,ComponentPad*
%ADD17C,1.800000*%
G04 #@! TD*
G04 #@! TA.AperFunction,ComponentPad*
%ADD18R,1.800000X1.800000*%
G04 #@! TD*
G04 #@! TA.AperFunction,ComponentPad*
%ADD19R,1.600000X1.600000*%
G04 #@! TD*
G04 #@! TA.AperFunction,Conductor*
%ADD20C,1.000000*%
G04 #@! TD*
G04 APERTURE END LIST*
D10*
G04 #@! TO.P,R2,1*
G04 #@! TO.N,Net-(D1-Pad2)*
X11500000Y-37000000D03*
G04 #@! TO.P,R2,2*
X9000000Y-32000000D03*
G04 #@! TO.P,R2,3*
G04 #@! TO.N,Net-(R2-Pad3)*
X6500000Y-37000000D03*
G04 #@! TD*
G04 #@! TO.P,R1,3*
G04 #@! TO.N,Net-(D1-Pad2)*
X28500000Y-37000000D03*
G04 #@! TO.P,R1,2*
X31000000Y-32000000D03*
G04 #@! TO.P,R1,1*
G04 #@! TO.N,Net-(R1-Pad1)*
X33500000Y-37000000D03*
G04 #@! TD*
D11*
G04 #@! TO.N,Net-(C2-Pad2)*
G04 #@! TO.C,Q1*
G36*
X9051955Y-43451324D02*
X9078650Y-43455284D01*
X9104828Y-43461841D01*
X9130238Y-43470933D01*
X9154634Y-43482472D01*
X9177782Y-43496346D01*
X9199458Y-43512422D01*
X9219454Y-43530546D01*
X9237578Y-43550542D01*
X9253654Y-43572218D01*
X9267528Y-43595366D01*
X9279067Y-43619762D01*
X9288159Y-43645172D01*
X9294716Y-43671350D01*
X9298676Y-43698045D01*
X9300000Y-43725000D01*
X9300000Y-44275000D01*
X9298676Y-44301955D01*
X9294716Y-44328650D01*
X9288159Y-44354828D01*
X9279067Y-44380238D01*
X9267528Y-44404634D01*
X9253654Y-44427782D01*
X9237578Y-44449458D01*
X9219454Y-44469454D01*
X9199458Y-44487578D01*
X9177782Y-44503654D01*
X9154634Y-44517528D01*
X9130238Y-44529067D01*
X9104828Y-44538159D01*
X9078650Y-44544716D01*
X9051955Y-44548676D01*
X9025000Y-44550000D01*
X7775000Y-44550000D01*
X7748045Y-44548676D01*
X7721350Y-44544716D01*
X7695172Y-44538159D01*
X7669762Y-44529067D01*
X7645366Y-44517528D01*
X7622218Y-44503654D01*
X7600542Y-44487578D01*
X7580546Y-44469454D01*
X7562422Y-44449458D01*
X7546346Y-44427782D01*
X7532472Y-44404634D01*
X7520933Y-44380238D01*
X7511841Y-44354828D01*
X7505284Y-44328650D01*
X7501324Y-44301955D01*
X7500000Y-44275000D01*
X7500000Y-43725000D01*
X7501324Y-43698045D01*
X7505284Y-43671350D01*
X7511841Y-43645172D01*
X7520933Y-43619762D01*
X7532472Y-43595366D01*
X7546346Y-43572218D01*
X7562422Y-43550542D01*
X7580546Y-43530546D01*
X7600542Y-43512422D01*
X7622218Y-43496346D01*
X7645366Y-43482472D01*
X7669762Y-43470933D01*
X7695172Y-43461841D01*
X7721350Y-43455284D01*
X7748045Y-43451324D01*
X7775000Y-43450000D01*
X9025000Y-43450000D01*
X9051955Y-43451324D01*
X9051955Y-43451324D01*
G37*
D12*
G04 #@! TD*
G04 #@! TO.P,Q1,2*
G04 #@! TO.N,Net-(C2-Pad2)*
X8400000Y-44000000D03*
D11*
G04 #@! TO.N,GND*
G04 #@! TO.C,Q1*
G36*
X6981955Y-44721324D02*
X7008650Y-44725284D01*
X7034828Y-44731841D01*
X7060238Y-44740933D01*
X7084634Y-44752472D01*
X7107782Y-44766346D01*
X7129458Y-44782422D01*
X7149454Y-44800546D01*
X7167578Y-44820542D01*
X7183654Y-44842218D01*
X7197528Y-44865366D01*
X7209067Y-44889762D01*
X7218159Y-44915172D01*
X7224716Y-44941350D01*
X7228676Y-44968045D01*
X7230000Y-44995000D01*
X7230000Y-45545000D01*
X7228676Y-45571955D01*
X7224716Y-45598650D01*
X7218159Y-45624828D01*
X7209067Y-45650238D01*
X7197528Y-45674634D01*
X7183654Y-45697782D01*
X7167578Y-45719458D01*
X7149454Y-45739454D01*
X7129458Y-45757578D01*
X7107782Y-45773654D01*
X7084634Y-45787528D01*
X7060238Y-45799067D01*
X7034828Y-45808159D01*
X7008650Y-45814716D01*
X6981955Y-45818676D01*
X6955000Y-45820000D01*
X5705000Y-45820000D01*
X5678045Y-45818676D01*
X5651350Y-45814716D01*
X5625172Y-45808159D01*
X5599762Y-45799067D01*
X5575366Y-45787528D01*
X5552218Y-45773654D01*
X5530542Y-45757578D01*
X5510546Y-45739454D01*
X5492422Y-45719458D01*
X5476346Y-45697782D01*
X5462472Y-45674634D01*
X5450933Y-45650238D01*
X5441841Y-45624828D01*
X5435284Y-45598650D01*
X5431324Y-45571955D01*
X5430000Y-45545000D01*
X5430000Y-44995000D01*
X5431324Y-44968045D01*
X5435284Y-44941350D01*
X5441841Y-44915172D01*
X5450933Y-44889762D01*
X5462472Y-44865366D01*
X5476346Y-44842218D01*
X5492422Y-44820542D01*
X5510546Y-44800546D01*
X5530542Y-44782422D01*
X5552218Y-44766346D01*
X5575366Y-44752472D01*
X5599762Y-44740933D01*
X5625172Y-44731841D01*
X5651350Y-44725284D01*
X5678045Y-44721324D01*
X5705000Y-44720000D01*
X6955000Y-44720000D01*
X6981955Y-44721324D01*
X6981955Y-44721324D01*
G37*
D12*
G04 #@! TD*
G04 #@! TO.P,Q1,3*
G04 #@! TO.N,GND*
X6330000Y-45270000D03*
D13*
G04 #@! TO.P,Q1,1*
G04 #@! TO.N,Net-(C1-Pad1)*
X6330000Y-42730000D03*
G04 #@! TD*
D14*
G04 #@! TO.P,J1,1*
G04 #@! TO.N,Net-(D1-Pad2)*
X17000000Y-45000000D03*
G04 #@! TD*
D13*
G04 #@! TO.P,Q2,1*
G04 #@! TO.N,Net-(C2-Pad1)*
X33670000Y-45270000D03*
D11*
G04 #@! TD*
G04 #@! TO.N,GND*
G04 #@! TO.C,Q2*
G36*
X34321955Y-42181324D02*
X34348650Y-42185284D01*
X34374828Y-42191841D01*
X34400238Y-42200933D01*
X34424634Y-42212472D01*
X34447782Y-42226346D01*
X34469458Y-42242422D01*
X34489454Y-42260546D01*
X34507578Y-42280542D01*
X34523654Y-42302218D01*
X34537528Y-42325366D01*
X34549067Y-42349762D01*
X34558159Y-42375172D01*
X34564716Y-42401350D01*
X34568676Y-42428045D01*
X34570000Y-42455000D01*
X34570000Y-43005000D01*
X34568676Y-43031955D01*
X34564716Y-43058650D01*
X34558159Y-43084828D01*
X34549067Y-43110238D01*
X34537528Y-43134634D01*
X34523654Y-43157782D01*
X34507578Y-43179458D01*
X34489454Y-43199454D01*
X34469458Y-43217578D01*
X34447782Y-43233654D01*
X34424634Y-43247528D01*
X34400238Y-43259067D01*
X34374828Y-43268159D01*
X34348650Y-43274716D01*
X34321955Y-43278676D01*
X34295000Y-43280000D01*
X33045000Y-43280000D01*
X33018045Y-43278676D01*
X32991350Y-43274716D01*
X32965172Y-43268159D01*
X32939762Y-43259067D01*
X32915366Y-43247528D01*
X32892218Y-43233654D01*
X32870542Y-43217578D01*
X32850546Y-43199454D01*
X32832422Y-43179458D01*
X32816346Y-43157782D01*
X32802472Y-43134634D01*
X32790933Y-43110238D01*
X32781841Y-43084828D01*
X32775284Y-43058650D01*
X32771324Y-43031955D01*
X32770000Y-43005000D01*
X32770000Y-42455000D01*
X32771324Y-42428045D01*
X32775284Y-42401350D01*
X32781841Y-42375172D01*
X32790933Y-42349762D01*
X32802472Y-42325366D01*
X32816346Y-42302218D01*
X32832422Y-42280542D01*
X32850546Y-42260546D01*
X32870542Y-42242422D01*
X32892218Y-42226346D01*
X32915366Y-42212472D01*
X32939762Y-42200933D01*
X32965172Y-42191841D01*
X32991350Y-42185284D01*
X33018045Y-42181324D01*
X33045000Y-42180000D01*
X34295000Y-42180000D01*
X34321955Y-42181324D01*
X34321955Y-42181324D01*
G37*
D12*
G04 #@! TO.P,Q2,3*
G04 #@! TO.N,GND*
X33670000Y-42730000D03*
D11*
G04 #@! TD*
G04 #@! TO.N,Net-(C1-Pad2)*
G04 #@! TO.C,Q2*
G36*
X32251955Y-43451324D02*
X32278650Y-43455284D01*
X32304828Y-43461841D01*
X32330238Y-43470933D01*
X32354634Y-43482472D01*
X32377782Y-43496346D01*
X32399458Y-43512422D01*
X32419454Y-43530546D01*
X32437578Y-43550542D01*
X32453654Y-43572218D01*
X32467528Y-43595366D01*
X32479067Y-43619762D01*
X32488159Y-43645172D01*
X32494716Y-43671350D01*
X32498676Y-43698045D01*
X32500000Y-43725000D01*
X32500000Y-44275000D01*
X32498676Y-44301955D01*
X32494716Y-44328650D01*
X32488159Y-44354828D01*
X32479067Y-44380238D01*
X32467528Y-44404634D01*
X32453654Y-44427782D01*
X32437578Y-44449458D01*
X32419454Y-44469454D01*
X32399458Y-44487578D01*
X32377782Y-44503654D01*
X32354634Y-44517528D01*
X32330238Y-44529067D01*
X32304828Y-44538159D01*
X32278650Y-44544716D01*
X32251955Y-44548676D01*
X32225000Y-44550000D01*
X30975000Y-44550000D01*
X30948045Y-44548676D01*
X30921350Y-44544716D01*
X30895172Y-44538159D01*
X30869762Y-44529067D01*
X30845366Y-44517528D01*
X30822218Y-44503654D01*
X30800542Y-44487578D01*
X30780546Y-44469454D01*
X30762422Y-44449458D01*
X30746346Y-44427782D01*
X30732472Y-44404634D01*
X30720933Y-44380238D01*
X30711841Y-44354828D01*
X30705284Y-44328650D01*
X30701324Y-44301955D01*
X30700000Y-44275000D01*
X30700000Y-43725000D01*
X30701324Y-43698045D01*
X30705284Y-43671350D01*
X30711841Y-43645172D01*
X30720933Y-43619762D01*
X30732472Y-43595366D01*
X30746346Y-43572218D01*
X30762422Y-43550542D01*
X30780546Y-43530546D01*
X30800542Y-43512422D01*
X30822218Y-43496346D01*
X30845366Y-43482472D01*
X30869762Y-43470933D01*
X30895172Y-43461841D01*
X30921350Y-43455284D01*
X30948045Y-43451324D01*
X30975000Y-43450000D01*
X32225000Y-43450000D01*
X32251955Y-43451324D01*
X32251955Y-43451324D01*
G37*
D12*
G04 #@! TO.P,Q2,2*
G04 #@! TO.N,Net-(C1-Pad2)*
X31600000Y-44000000D03*
G04 #@! TD*
D14*
G04 #@! TO.P,J2,1*
G04 #@! TO.N,GND*
X23000000Y-45000000D03*
G04 #@! TD*
D15*
G04 #@! TO.P,R5,2*
G04 #@! TO.N,Net-(C2-Pad2)*
X3000000Y-38160000D03*
D16*
G04 #@! TO.P,R5,1*
G04 #@! TO.N,Net-(R2-Pad3)*
X3000000Y-28000000D03*
G04 #@! TD*
D15*
G04 #@! TO.P,R6,2*
G04 #@! TO.N,Net-(C2-Pad1)*
X37000000Y-22160000D03*
D16*
G04 #@! TO.P,R6,1*
G04 #@! TO.N,Net-(D2-Pad1)*
X37000000Y-12000000D03*
G04 #@! TD*
G04 #@! TO.P,R3,1*
G04 #@! TO.N,Net-(D1-Pad1)*
X3000000Y-12000000D03*
D15*
G04 #@! TO.P,R3,2*
G04 #@! TO.N,Net-(C1-Pad1)*
X3000000Y-22160000D03*
G04 #@! TD*
D16*
G04 #@! TO.P,R4,1*
G04 #@! TO.N,Net-(R1-Pad1)*
X37000000Y-28000000D03*
D15*
G04 #@! TO.P,R4,2*
G04 #@! TO.N,Net-(C1-Pad2)*
X37000000Y-38160000D03*
G04 #@! TD*
D17*
G04 #@! TO.P,D2,2*
G04 #@! TO.N,Net-(D1-Pad2)*
X34000000Y-5000000D03*
D18*
G04 #@! TO.P,D2,1*
G04 #@! TO.N,Net-(D2-Pad1)*
X36540000Y-5000000D03*
G04 #@! TD*
D19*
G04 #@! TO.P,C1,1*
G04 #@! TO.N,Net-(C1-Pad1)*
X22000000Y-35000000D03*
D16*
G04 #@! TO.P,C1,2*
G04 #@! TO.N,Net-(C1-Pad2)*
X24500000Y-35000000D03*
G04 #@! TD*
G04 #@! TO.P,C2,2*
G04 #@! TO.N,Net-(C2-Pad2)*
X15500000Y-35000000D03*
D19*
G04 #@! TO.P,C2,1*
G04 #@! TO.N,Net-(C2-Pad1)*
X18000000Y-35000000D03*
G04 #@! TD*
D18*
G04 #@! TO.P,D1,1*
G04 #@! TO.N,Net-(D1-Pad1)*
X3460000Y-5000000D03*
D17*
G04 #@! TO.P,D1,2*
G04 #@! TO.N,Net-(D1-Pad2)*
X6000000Y-5000000D03*
G04 #@! TD*
D20*
G04 #@! TO.N,*
X13000000Y-6000000D02*
X28000000Y-6000000D01*
G04 #@! TO.N,Net-(C1-Pad1)*
X3000000Y-22160000D02*
X6000000Y-25160000D01*
X6000000Y-25160000D02*
X6000000Y-33000000D01*
X6000000Y-33000000D02*
X9000000Y-36000000D01*
X9000000Y-36000000D02*
X9000000Y-38000000D01*
X9000000Y-38000000D02*
X11000000Y-40000000D01*
X11000000Y-40000000D02*
X19000000Y-40000000D01*
X22000000Y-37000000D02*
X22000000Y-35000000D01*
X19000000Y-40000000D02*
X22000000Y-37000000D01*
X6730000Y-40270000D02*
X9000000Y-38000000D01*
X6730000Y-42730000D02*
X6730000Y-40270000D01*
G04 #@! TO.N,Net-(C1-Pad2)*
X31000000Y-44000000D02*
X32000000Y-44000000D01*
G04 #@! TO.N,Net-(C2-Pad1)*
X34000000Y-25160000D02*
X34000000Y-33000000D01*
X37000000Y-22160000D02*
X34000000Y-25160000D01*
X34000000Y-33000000D02*
X31000000Y-36000000D01*
X18000000Y-33200000D02*
X18000000Y-35000000D01*
X19200000Y-32000000D02*
X18000000Y-33200000D01*
X27000000Y-32000000D02*
X19200000Y-32000000D01*
X31000000Y-36000000D02*
X27000000Y-32000000D01*
X35230000Y-45270000D02*
X33270000Y-45270000D01*
X31000000Y-39000000D02*
X32000000Y-40000000D01*
X32000000Y-40000000D02*
X35000000Y-40000000D01*
X31000000Y-36000000D02*
X31000000Y-39000000D01*
X35000000Y-40000000D02*
X36500000Y-41500000D01*
X36500000Y-41500000D02*
X36500000Y-44000000D01*
X36500000Y-44000000D02*
X35230000Y-45270000D01*
G04 #@! TO.N,Net-(D1-Pad1)*
X3460000Y-11540000D02*
X3000000Y-12000000D01*
X3460000Y-5000000D02*
X3460000Y-11540000D01*
G04 #@! TO.N,Net-(D1-Pad2)*
X6000000Y-5000000D02*
X6000000Y-21000000D01*
X9000000Y-30854488D02*
X9000000Y-32000000D01*
X9000000Y-24000000D02*
X9000000Y-30854488D01*
X6000000Y-21000000D02*
X9000000Y-24000000D01*
X11500000Y-34500000D02*
X11500000Y-37000000D01*
X9000000Y-32000000D02*
X11500000Y-34500000D01*
X34000000Y-5000000D02*
X34000000Y-21000000D01*
X31000000Y-24000000D02*
X31000000Y-32000000D01*
X34000000Y-21000000D02*
X31000000Y-24000000D01*
X17000000Y-45000000D02*
X21000000Y-41000000D01*
X24500000Y-41000000D02*
X28500000Y-37000000D01*
X21000000Y-41000000D02*
X24500000Y-41000000D01*
G04 #@! TO.N,Net-(D2-Pad1)*
X36540000Y-11540000D02*
X37000000Y-12000000D01*
X36540000Y-5000000D02*
X36540000Y-11540000D01*
G04 #@! TO.N,GND*
X6730000Y-45270000D02*
X5730000Y-45270000D01*
X5730000Y-45270000D02*
X6000000Y-45540000D01*
X6000000Y-45540000D02*
X6000000Y-47000000D01*
X6000000Y-47000000D02*
X7000000Y-48000000D01*
X20000000Y-48000000D02*
X23000000Y-45000000D01*
X7000000Y-48000000D02*
X20000000Y-48000000D01*
G04 #@! TO.N,Net-(R1-Pad1)*
X37000000Y-33500000D02*
X33500000Y-37000000D01*
X37000000Y-28000000D02*
X37000000Y-33500000D01*
G04 #@! TO.N,Net-(R2-Pad3)*
X3000000Y-33500000D02*
X6500000Y-37000000D01*
X3000000Y-28000000D02*
X3000000Y-33500000D01*
G04 #@! TD*
M02*
