M48
;DRILL file {KiCad (6.0.0-rc1-dev-318-g6fdc5972f)} date 11/24/18 11:42:11
;FORMAT={-:-/ absolute / inch / decimal}
FMAT,2
INCH,TZ
T1C0.0295
T2C0.0315
T3C0.0354
T4C0.0472
%
G90
G05
M72
T1
X1.2598Y-1.7323
X1.3098Y-1.6823
X1.3098Y-1.7823
X0.265Y-1.6823
X0.265Y-1.7823
X0.315Y-1.7323
T2
X0.1181Y-1.1024
X0.1181Y-1.5024
X1.4567Y-0.4724
X1.4567Y-0.8724
X0.1181Y-0.4724
X0.1181Y-0.8724
X0.8661Y-1.378
X0.9646Y-1.378
X0.6102Y-1.378
X0.7087Y-1.378
X1.4567Y-1.1024
X1.4567Y-1.5024
T3
X1.3386Y-0.1969
X1.4386Y-0.1969
X0.2559Y-1.4567
X0.3543Y-1.2598
X0.4528Y-1.4567
X1.122Y-1.4567
X1.2205Y-1.2598
X1.3189Y-1.4567
X0.1362Y-0.1969
X0.2362Y-0.1969
T4
X0.6693Y-1.7717
X0.9055Y-1.7717
T0
M30
