G04 #@! TF.GenerationSoftware,KiCad,Pcbnew,(6.0.0-rc1-dev-318-g6fdc5972f)*
G04 #@! TF.CreationDate,2018-11-24T15:56:51+01:00*
G04 #@! TF.ProjectId,Frack_KnipperLedPrint,467261636B5F4B6E69707065724C6564,rev?*
G04 #@! TF.SameCoordinates,Original*
G04 #@! TF.FileFunction,Legend,Bot*
G04 #@! TF.FilePolarity,Positive*
%FSLAX46Y46*%
G04 Gerber Fmt 4.6, Leading zero omitted, Abs format (unit mm)*
G04 Created by KiCad (PCBNEW (6.0.0-rc1-dev-318-g6fdc5972f)) date 11/24/18 15:56:51*
%MOMM*%
%LPD*%
G01*
G04 APERTURE LIST*
%ADD10C,0.150000*%
%ADD11C,0.300000*%
%ADD12C,0.500000*%
G04 APERTURE END LIST*
D10*
X34400000Y-16417857D02*
X34171428Y-16417857D01*
X34057142Y-16475000D01*
X33942857Y-16589285D01*
X33885714Y-16817857D01*
X33885714Y-17217857D01*
X33942857Y-17446428D01*
X34057142Y-17560714D01*
X34171428Y-17617857D01*
X34400000Y-17617857D01*
X34514285Y-17560714D01*
X34628571Y-17446428D01*
X34685714Y-17217857D01*
X34685714Y-16817857D01*
X34628571Y-16589285D01*
X34514285Y-16475000D01*
X34400000Y-16417857D01*
X33371428Y-16817857D02*
X33371428Y-18017857D01*
X33371428Y-16875000D02*
X33257142Y-16817857D01*
X33028571Y-16817857D01*
X32914285Y-16875000D01*
X32857142Y-16932142D01*
X32800000Y-17046428D01*
X32800000Y-17389285D01*
X32857142Y-17503571D01*
X32914285Y-17560714D01*
X33028571Y-17617857D01*
X33257142Y-17617857D01*
X33371428Y-17560714D01*
X30857142Y-17617857D02*
X30857142Y-16417857D01*
X30857142Y-17560714D02*
X30971428Y-17617857D01*
X31200000Y-17617857D01*
X31314285Y-17560714D01*
X31371428Y-17503571D01*
X31428571Y-17389285D01*
X31428571Y-17046428D01*
X31371428Y-16932142D01*
X31314285Y-16875000D01*
X31200000Y-16817857D01*
X30971428Y-16817857D01*
X30857142Y-16875000D01*
X29828571Y-17560714D02*
X29942857Y-17617857D01*
X30171428Y-17617857D01*
X30285714Y-17560714D01*
X30342857Y-17446428D01*
X30342857Y-16989285D01*
X30285714Y-16875000D01*
X30171428Y-16817857D01*
X29942857Y-16817857D01*
X29828571Y-16875000D01*
X29771428Y-16989285D01*
X29771428Y-17103571D01*
X30342857Y-17217857D01*
X28342857Y-16817857D02*
X28342857Y-18017857D01*
X28342857Y-16875000D02*
X28228571Y-16817857D01*
X28000000Y-16817857D01*
X27885714Y-16875000D01*
X27828571Y-16932142D01*
X27771428Y-17046428D01*
X27771428Y-17389285D01*
X27828571Y-17503571D01*
X27885714Y-17560714D01*
X28000000Y-17617857D01*
X28228571Y-17617857D01*
X28342857Y-17560714D01*
X27257142Y-17617857D02*
X27257142Y-16817857D01*
X27257142Y-17046428D02*
X27200000Y-16932142D01*
X27142857Y-16875000D01*
X27028571Y-16817857D01*
X26914285Y-16817857D01*
X26514285Y-17617857D02*
X26514285Y-16817857D01*
X26514285Y-16417857D02*
X26571428Y-16475000D01*
X26514285Y-16532142D01*
X26457142Y-16475000D01*
X26514285Y-16417857D01*
X26514285Y-16532142D01*
X25942857Y-16817857D02*
X25942857Y-17617857D01*
X25942857Y-16932142D02*
X25885714Y-16875000D01*
X25771428Y-16817857D01*
X25600000Y-16817857D01*
X25485714Y-16875000D01*
X25428571Y-16989285D01*
X25428571Y-17617857D01*
X25028571Y-16817857D02*
X24571428Y-16817857D01*
X24857142Y-16417857D02*
X24857142Y-17446428D01*
X24800000Y-17560714D01*
X24685714Y-17617857D01*
X24571428Y-17617857D01*
X24171428Y-16817857D02*
X24171428Y-18017857D01*
X24171428Y-16875000D02*
X24057142Y-16817857D01*
X23828571Y-16817857D01*
X23714285Y-16875000D01*
X23657142Y-16932142D01*
X23599999Y-17046428D01*
X23599999Y-17389285D01*
X23657142Y-17503571D01*
X23714285Y-17560714D01*
X23828571Y-17617857D01*
X24057142Y-17617857D01*
X24171428Y-17560714D01*
X22914285Y-17617857D02*
X23028571Y-17560714D01*
X23085714Y-17446428D01*
X23085714Y-16417857D01*
X21942857Y-17617857D02*
X21942857Y-16989285D01*
X21999999Y-16875000D01*
X22114285Y-16817857D01*
X22342857Y-16817857D01*
X22457142Y-16875000D01*
X21942857Y-17560714D02*
X22057142Y-17617857D01*
X22342857Y-17617857D01*
X22457142Y-17560714D01*
X22514285Y-17446428D01*
X22514285Y-17332142D01*
X22457142Y-17217857D01*
X22342857Y-17160714D01*
X22057142Y-17160714D01*
X21942857Y-17103571D01*
X20857142Y-17617857D02*
X20857142Y-16989285D01*
X20914285Y-16875000D01*
X21028571Y-16817857D01*
X21257142Y-16817857D01*
X21371428Y-16875000D01*
X20857142Y-17560714D02*
X20971428Y-17617857D01*
X21257142Y-17617857D01*
X21371428Y-17560714D01*
X21428571Y-17446428D01*
X21428571Y-17332142D01*
X21371428Y-17217857D01*
X21257142Y-17160714D01*
X20971428Y-17160714D01*
X20857142Y-17103571D01*
X20457142Y-16817857D02*
X19999999Y-16817857D01*
X20285714Y-16417857D02*
X20285714Y-17446428D01*
X20228571Y-17560714D01*
X20114285Y-17617857D01*
X19999999Y-17617857D01*
X18799999Y-16817857D02*
X18171428Y-16817857D01*
X18799999Y-17617857D01*
X18171428Y-17617857D01*
X17714285Y-17617857D02*
X17714285Y-16817857D01*
X17714285Y-16417857D02*
X17771428Y-16475000D01*
X17714285Y-16532142D01*
X17657142Y-16475000D01*
X17714285Y-16417857D01*
X17714285Y-16532142D01*
X17314285Y-16817857D02*
X16857142Y-16817857D01*
X17142857Y-16417857D02*
X17142857Y-17446428D01*
X17085714Y-17560714D01*
X16971428Y-17617857D01*
X16857142Y-17617857D01*
X16628571Y-16817857D02*
X16171428Y-16817857D01*
X16457142Y-16417857D02*
X16457142Y-17446428D01*
X16399999Y-17560714D01*
X16285714Y-17617857D01*
X16171428Y-17617857D01*
X15314285Y-17560714D02*
X15428571Y-17617857D01*
X15657142Y-17617857D01*
X15771428Y-17560714D01*
X15828571Y-17446428D01*
X15828571Y-16989285D01*
X15771428Y-16875000D01*
X15657142Y-16817857D01*
X15428571Y-16817857D01*
X15314285Y-16875000D01*
X15257142Y-16989285D01*
X15257142Y-17103571D01*
X15828571Y-17217857D01*
X14742857Y-16817857D02*
X14742857Y-17617857D01*
X14742857Y-16932142D02*
X14685714Y-16875000D01*
X14571428Y-16817857D01*
X14399999Y-16817857D01*
X14285714Y-16875000D01*
X14228571Y-16989285D01*
X14228571Y-17617857D01*
X12742857Y-17617857D02*
X12742857Y-16417857D01*
X12628571Y-17160714D02*
X12285714Y-17617857D01*
X12285714Y-16817857D02*
X12742857Y-17275000D01*
X11599999Y-17617857D02*
X11714285Y-17560714D01*
X11771428Y-17503571D01*
X11828571Y-17389285D01*
X11828571Y-17046428D01*
X11771428Y-16932142D01*
X11714285Y-16875000D01*
X11599999Y-16817857D01*
X11428571Y-16817857D01*
X11314285Y-16875000D01*
X11257142Y-16932142D01*
X11199999Y-17046428D01*
X11199999Y-17389285D01*
X11257142Y-17503571D01*
X11314285Y-17560714D01*
X11428571Y-17617857D01*
X11599999Y-17617857D01*
X10685714Y-16817857D02*
X10685714Y-18017857D01*
X10685714Y-16875000D02*
X10571428Y-16817857D01*
X10342857Y-16817857D01*
X10228571Y-16875000D01*
X10171428Y-16932142D01*
X10114285Y-17046428D01*
X10114285Y-17389285D01*
X10171428Y-17503571D01*
X10228571Y-17560714D01*
X10342857Y-17617857D01*
X10571428Y-17617857D01*
X10685714Y-17560714D01*
X9142857Y-17560714D02*
X9257142Y-17617857D01*
X9485714Y-17617857D01*
X9599999Y-17560714D01*
X9657142Y-17446428D01*
X9657142Y-16989285D01*
X9599999Y-16875000D01*
X9485714Y-16817857D01*
X9257142Y-16817857D01*
X9142857Y-16875000D01*
X9085714Y-16989285D01*
X9085714Y-17103571D01*
X9657142Y-17217857D01*
X8571428Y-17617857D02*
X8571428Y-16817857D01*
X8571428Y-17046428D02*
X8514285Y-16932142D01*
X8457142Y-16875000D01*
X8342857Y-16817857D01*
X8228571Y-16817857D01*
X7371428Y-17560714D02*
X7485714Y-17617857D01*
X7714285Y-17617857D01*
X7828571Y-17560714D01*
X7885714Y-17446428D01*
X7885714Y-16989285D01*
X7828571Y-16875000D01*
X7714285Y-16817857D01*
X7485714Y-16817857D01*
X7371428Y-16875000D01*
X7314285Y-16989285D01*
X7314285Y-17103571D01*
X7885714Y-17217857D01*
X6799999Y-16817857D02*
X6799999Y-17617857D01*
X6799999Y-16932142D02*
X6742857Y-16875000D01*
X6628571Y-16817857D01*
X6457142Y-16817857D01*
X6342857Y-16875000D01*
X6285714Y-16989285D01*
X6285714Y-17617857D01*
X33828571Y-19567857D02*
X33942857Y-19510714D01*
X34000000Y-19396428D01*
X34000000Y-18367857D01*
X33371428Y-19567857D02*
X33371428Y-18767857D01*
X33371428Y-18367857D02*
X33428571Y-18425000D01*
X33371428Y-18482142D01*
X33314285Y-18425000D01*
X33371428Y-18367857D01*
X33371428Y-18482142D01*
X32800000Y-18767857D02*
X32800000Y-19796428D01*
X32857142Y-19910714D01*
X32971428Y-19967857D01*
X33028571Y-19967857D01*
X32800000Y-18367857D02*
X32857142Y-18425000D01*
X32800000Y-18482142D01*
X32742857Y-18425000D01*
X32800000Y-18367857D01*
X32800000Y-18482142D01*
X32228571Y-18767857D02*
X32228571Y-19567857D01*
X32228571Y-18882142D02*
X32171428Y-18825000D01*
X32057142Y-18767857D01*
X31885714Y-18767857D01*
X31771428Y-18825000D01*
X31714285Y-18939285D01*
X31714285Y-19567857D01*
X30685714Y-19510714D02*
X30800000Y-19567857D01*
X31028571Y-19567857D01*
X31142857Y-19510714D01*
X31200000Y-19396428D01*
X31200000Y-18939285D01*
X31142857Y-18825000D01*
X31028571Y-18767857D01*
X30800000Y-18767857D01*
X30685714Y-18825000D01*
X30628571Y-18939285D01*
X30628571Y-19053571D01*
X31200000Y-19167857D01*
X30114285Y-18767857D02*
X30114285Y-19567857D01*
X30114285Y-18882142D02*
X30057142Y-18825000D01*
X29942857Y-18767857D01*
X29771428Y-18767857D01*
X29657142Y-18825000D01*
X29600000Y-18939285D01*
X29600000Y-19567857D01*
X27600000Y-19567857D02*
X27600000Y-18367857D01*
X27600000Y-19510714D02*
X27714285Y-19567857D01*
X27942857Y-19567857D01*
X28057142Y-19510714D01*
X28114285Y-19453571D01*
X28171428Y-19339285D01*
X28171428Y-18996428D01*
X28114285Y-18882142D01*
X28057142Y-18825000D01*
X27942857Y-18767857D01*
X27714285Y-18767857D01*
X27600000Y-18825000D01*
X27028571Y-19567857D02*
X27028571Y-18767857D01*
X27028571Y-18367857D02*
X27085714Y-18425000D01*
X27028571Y-18482142D01*
X26971428Y-18425000D01*
X27028571Y-18367857D01*
X27028571Y-18482142D01*
X26000000Y-19510714D02*
X26114285Y-19567857D01*
X26342857Y-19567857D01*
X26457142Y-19510714D01*
X26514285Y-19396428D01*
X26514285Y-18939285D01*
X26457142Y-18825000D01*
X26342857Y-18767857D01*
X26114285Y-18767857D01*
X26000000Y-18825000D01*
X25942857Y-18939285D01*
X25942857Y-19053571D01*
X26514285Y-19167857D01*
X24514285Y-19567857D02*
X24514285Y-18367857D01*
X24514285Y-18825000D02*
X24400000Y-18767857D01*
X24171428Y-18767857D01*
X24057142Y-18825000D01*
X24000000Y-18882142D01*
X23942857Y-18996428D01*
X23942857Y-19339285D01*
X24000000Y-19453571D01*
X24057142Y-19510714D01*
X24171428Y-19567857D01*
X24400000Y-19567857D01*
X24514285Y-19510714D01*
X22971428Y-19510714D02*
X23085714Y-19567857D01*
X23314285Y-19567857D01*
X23428571Y-19510714D01*
X23485714Y-19396428D01*
X23485714Y-18939285D01*
X23428571Y-18825000D01*
X23314285Y-18767857D01*
X23085714Y-18767857D01*
X22971428Y-18825000D01*
X22914285Y-18939285D01*
X22914285Y-19053571D01*
X23485714Y-19167857D01*
X21885714Y-19567857D02*
X21885714Y-18367857D01*
X21885714Y-19510714D02*
X22000000Y-19567857D01*
X22228571Y-19567857D01*
X22342857Y-19510714D01*
X22400000Y-19453571D01*
X22457142Y-19339285D01*
X22457142Y-18996428D01*
X22400000Y-18882142D01*
X22342857Y-18825000D01*
X22228571Y-18767857D01*
X22000000Y-18767857D01*
X21885714Y-18825000D01*
X20857142Y-19510714D02*
X20971428Y-19567857D01*
X21200000Y-19567857D01*
X21314285Y-19510714D01*
X21371428Y-19396428D01*
X21371428Y-18939285D01*
X21314285Y-18825000D01*
X21200000Y-18767857D01*
X20971428Y-18767857D01*
X20857142Y-18825000D01*
X20800000Y-18939285D01*
X20800000Y-19053571D01*
X21371428Y-19167857D01*
X20285714Y-19567857D02*
X20285714Y-18367857D01*
X20171428Y-19110714D02*
X19828571Y-19567857D01*
X19828571Y-18767857D02*
X20285714Y-19225000D01*
X19485714Y-18767857D02*
X19028571Y-18767857D01*
X19314285Y-18367857D02*
X19314285Y-19396428D01*
X19257142Y-19510714D01*
X19142857Y-19567857D01*
X19028571Y-19567857D01*
X17828571Y-18767857D02*
X17200000Y-18767857D01*
X17828571Y-19567857D01*
X17200000Y-19567857D01*
X16742857Y-19567857D02*
X16742857Y-18767857D01*
X16742857Y-18367857D02*
X16800000Y-18425000D01*
X16742857Y-18482142D01*
X16685714Y-18425000D01*
X16742857Y-18367857D01*
X16742857Y-18482142D01*
X16171428Y-18767857D02*
X16171428Y-19796428D01*
X16228571Y-19910714D01*
X16342857Y-19967857D01*
X16400000Y-19967857D01*
X16171428Y-18367857D02*
X16228571Y-18425000D01*
X16171428Y-18482142D01*
X16114285Y-18425000D01*
X16171428Y-18367857D01*
X16171428Y-18482142D01*
X15600000Y-18767857D02*
X15600000Y-19567857D01*
X15600000Y-18882142D02*
X15542857Y-18825000D01*
X15428571Y-18767857D01*
X15257142Y-18767857D01*
X15142857Y-18825000D01*
X15085714Y-18939285D01*
X15085714Y-19567857D01*
X13600000Y-19567857D02*
X13600000Y-18767857D01*
X13600000Y-18882142D02*
X13542857Y-18825000D01*
X13428571Y-18767857D01*
X13257142Y-18767857D01*
X13142857Y-18825000D01*
X13085714Y-18939285D01*
X13085714Y-19567857D01*
X13085714Y-18939285D02*
X13028571Y-18825000D01*
X12914285Y-18767857D01*
X12742857Y-18767857D01*
X12628571Y-18825000D01*
X12571428Y-18939285D01*
X12571428Y-19567857D01*
X11542857Y-19510714D02*
X11657142Y-19567857D01*
X11885714Y-19567857D01*
X12000000Y-19510714D01*
X12057142Y-19396428D01*
X12057142Y-18939285D01*
X12000000Y-18825000D01*
X11885714Y-18767857D01*
X11657142Y-18767857D01*
X11542857Y-18825000D01*
X11485714Y-18939285D01*
X11485714Y-19053571D01*
X12057142Y-19167857D01*
X11142857Y-18767857D02*
X10685714Y-18767857D01*
X10971428Y-18367857D02*
X10971428Y-19396428D01*
X10914285Y-19510714D01*
X10800000Y-19567857D01*
X10685714Y-19567857D01*
X9485714Y-18767857D02*
X9200000Y-19567857D01*
X8914285Y-18767857D01*
X8000000Y-19510714D02*
X8114285Y-19567857D01*
X8342857Y-19567857D01*
X8457142Y-19510714D01*
X8514285Y-19396428D01*
X8514285Y-18939285D01*
X8457142Y-18825000D01*
X8342857Y-18767857D01*
X8114285Y-18767857D01*
X8000000Y-18825000D01*
X7942857Y-18939285D01*
X7942857Y-19053571D01*
X8514285Y-19167857D01*
X7428571Y-19567857D02*
X7428571Y-18767857D01*
X7428571Y-18996428D02*
X7371428Y-18882142D01*
X7314285Y-18825000D01*
X7200000Y-18767857D01*
X7085714Y-18767857D01*
X6857142Y-18767857D02*
X6400000Y-18767857D01*
X6685714Y-19567857D02*
X6685714Y-18539285D01*
X6628571Y-18425000D01*
X6514285Y-18367857D01*
X6400000Y-18367857D01*
X6000000Y-19453571D02*
X5942857Y-19510714D01*
X6000000Y-19567857D01*
X6057142Y-19510714D01*
X6000000Y-19453571D01*
X6000000Y-19567857D01*
X33314285Y-21517857D02*
X33314285Y-20317857D01*
X33028571Y-20317857D01*
X32857142Y-20375000D01*
X32742857Y-20489285D01*
X32685714Y-20603571D01*
X32628571Y-20832142D01*
X32628571Y-21003571D01*
X32685714Y-21232142D01*
X32742857Y-21346428D01*
X32857142Y-21460714D01*
X33028571Y-21517857D01*
X33314285Y-21517857D01*
X31657142Y-21460714D02*
X31771428Y-21517857D01*
X32000000Y-21517857D01*
X32114285Y-21460714D01*
X32171428Y-21346428D01*
X32171428Y-20889285D01*
X32114285Y-20775000D01*
X32000000Y-20717857D01*
X31771428Y-20717857D01*
X31657142Y-20775000D01*
X31600000Y-20889285D01*
X31600000Y-21003571D01*
X32171428Y-21117857D01*
X30000000Y-21517857D02*
X30114285Y-21460714D01*
X30171428Y-21346428D01*
X30171428Y-20317857D01*
X29542857Y-21517857D02*
X29542857Y-20717857D01*
X29542857Y-20317857D02*
X29600000Y-20375000D01*
X29542857Y-20432142D01*
X29485714Y-20375000D01*
X29542857Y-20317857D01*
X29542857Y-20432142D01*
X28971428Y-20717857D02*
X28971428Y-21746428D01*
X29028571Y-21860714D01*
X29142857Y-21917857D01*
X29200000Y-21917857D01*
X28971428Y-20317857D02*
X29028571Y-20375000D01*
X28971428Y-20432142D01*
X28914285Y-20375000D01*
X28971428Y-20317857D01*
X28971428Y-20432142D01*
X28400000Y-20717857D02*
X28400000Y-21517857D01*
X28400000Y-20832142D02*
X28342857Y-20775000D01*
X28228571Y-20717857D01*
X28057142Y-20717857D01*
X27942857Y-20775000D01*
X27885714Y-20889285D01*
X27885714Y-21517857D01*
X26857142Y-21460714D02*
X26971428Y-21517857D01*
X27200000Y-21517857D01*
X27314285Y-21460714D01*
X27371428Y-21346428D01*
X27371428Y-20889285D01*
X27314285Y-20775000D01*
X27200000Y-20717857D01*
X26971428Y-20717857D01*
X26857142Y-20775000D01*
X26800000Y-20889285D01*
X26800000Y-21003571D01*
X27371428Y-21117857D01*
X26285714Y-20717857D02*
X26285714Y-21517857D01*
X26285714Y-20832142D02*
X26228571Y-20775000D01*
X26114285Y-20717857D01*
X25942857Y-20717857D01*
X25828571Y-20775000D01*
X25771428Y-20889285D01*
X25771428Y-21517857D01*
X24285714Y-21517857D02*
X24285714Y-20317857D01*
X24285714Y-20775000D02*
X24171428Y-20717857D01*
X23942857Y-20717857D01*
X23828571Y-20775000D01*
X23771428Y-20832142D01*
X23714285Y-20946428D01*
X23714285Y-21289285D01*
X23771428Y-21403571D01*
X23828571Y-21460714D01*
X23942857Y-21517857D01*
X24171428Y-21517857D01*
X24285714Y-21460714D01*
X23200000Y-21517857D02*
X23200000Y-20717857D01*
X23200000Y-20946428D02*
X23142857Y-20832142D01*
X23085714Y-20775000D01*
X22971428Y-20717857D01*
X22857142Y-20717857D01*
X22000000Y-21460714D02*
X22114285Y-21517857D01*
X22342857Y-21517857D01*
X22457142Y-21460714D01*
X22514285Y-21346428D01*
X22514285Y-20889285D01*
X22457142Y-20775000D01*
X22342857Y-20717857D01*
X22114285Y-20717857D01*
X22000000Y-20775000D01*
X21942857Y-20889285D01*
X21942857Y-21003571D01*
X22514285Y-21117857D01*
X21428571Y-20717857D02*
X21428571Y-21517857D01*
X21428571Y-20832142D02*
X21371428Y-20775000D01*
X21257142Y-20717857D01*
X21085714Y-20717857D01*
X20971428Y-20775000D01*
X20914285Y-20889285D01*
X20914285Y-21517857D01*
X19828571Y-20717857D02*
X19828571Y-21689285D01*
X19885714Y-21803571D01*
X19942857Y-21860714D01*
X20057142Y-21917857D01*
X20228571Y-21917857D01*
X20342857Y-21860714D01*
X19828571Y-21460714D02*
X19942857Y-21517857D01*
X20171428Y-21517857D01*
X20285714Y-21460714D01*
X20342857Y-21403571D01*
X20400000Y-21289285D01*
X20400000Y-20946428D01*
X20342857Y-20832142D01*
X20285714Y-20775000D01*
X20171428Y-20717857D01*
X19942857Y-20717857D01*
X19828571Y-20775000D01*
X18800000Y-21460714D02*
X18914285Y-21517857D01*
X19142857Y-21517857D01*
X19257142Y-21460714D01*
X19314285Y-21346428D01*
X19314285Y-20889285D01*
X19257142Y-20775000D01*
X19142857Y-20717857D01*
X18914285Y-20717857D01*
X18800000Y-20775000D01*
X18742857Y-20889285D01*
X18742857Y-21003571D01*
X19314285Y-21117857D01*
X18228571Y-20717857D02*
X18228571Y-21517857D01*
X18228571Y-20832142D02*
X18171428Y-20775000D01*
X18057142Y-20717857D01*
X17885714Y-20717857D01*
X17771428Y-20775000D01*
X17714285Y-20889285D01*
X17714285Y-21517857D01*
X15714285Y-21517857D02*
X15714285Y-20317857D01*
X15714285Y-21460714D02*
X15828571Y-21517857D01*
X16057142Y-21517857D01*
X16171428Y-21460714D01*
X16228571Y-21403571D01*
X16285714Y-21289285D01*
X16285714Y-20946428D01*
X16228571Y-20832142D01*
X16171428Y-20775000D01*
X16057142Y-20717857D01*
X15828571Y-20717857D01*
X15714285Y-20775000D01*
X14685714Y-21460714D02*
X14800000Y-21517857D01*
X15028571Y-21517857D01*
X15142857Y-21460714D01*
X15200000Y-21346428D01*
X15200000Y-20889285D01*
X15142857Y-20775000D01*
X15028571Y-20717857D01*
X14800000Y-20717857D01*
X14685714Y-20775000D01*
X14628571Y-20889285D01*
X14628571Y-21003571D01*
X15200000Y-21117857D01*
X13257142Y-21460714D02*
X13142857Y-21517857D01*
X12914285Y-21517857D01*
X12800000Y-21460714D01*
X12742857Y-21346428D01*
X12742857Y-21289285D01*
X12800000Y-21175000D01*
X12914285Y-21117857D01*
X13085714Y-21117857D01*
X13200000Y-21060714D01*
X13257142Y-20946428D01*
X13257142Y-20889285D01*
X13200000Y-20775000D01*
X13085714Y-20717857D01*
X12914285Y-20717857D01*
X12800000Y-20775000D01*
X12400000Y-20717857D02*
X11942857Y-20717857D01*
X12228571Y-20317857D02*
X12228571Y-21346428D01*
X12171428Y-21460714D01*
X12057142Y-21517857D01*
X11942857Y-21517857D01*
X11542857Y-21517857D02*
X11542857Y-20717857D01*
X11542857Y-20946428D02*
X11485714Y-20832142D01*
X11428571Y-20775000D01*
X11314285Y-20717857D01*
X11200000Y-20717857D01*
X10628571Y-21517857D02*
X10742857Y-21460714D01*
X10800000Y-21403571D01*
X10857142Y-21289285D01*
X10857142Y-20946428D01*
X10800000Y-20832142D01*
X10742857Y-20775000D01*
X10628571Y-20717857D01*
X10457142Y-20717857D01*
X10342857Y-20775000D01*
X10285714Y-20832142D01*
X10228571Y-20946428D01*
X10228571Y-21289285D01*
X10285714Y-21403571D01*
X10342857Y-21460714D01*
X10457142Y-21517857D01*
X10628571Y-21517857D01*
X9542857Y-21517857D02*
X9657142Y-21460714D01*
X9714285Y-21403571D01*
X9771428Y-21289285D01*
X9771428Y-20946428D01*
X9714285Y-20832142D01*
X9657142Y-20775000D01*
X9542857Y-20717857D01*
X9371428Y-20717857D01*
X9257142Y-20775000D01*
X9200000Y-20832142D01*
X9142857Y-20946428D01*
X9142857Y-21289285D01*
X9200000Y-21403571D01*
X9257142Y-21460714D01*
X9371428Y-21517857D01*
X9542857Y-21517857D01*
X8628571Y-21517857D02*
X8628571Y-20717857D01*
X8628571Y-20832142D02*
X8571428Y-20775000D01*
X8457142Y-20717857D01*
X8285714Y-20717857D01*
X8171428Y-20775000D01*
X8114285Y-20889285D01*
X8114285Y-21517857D01*
X8114285Y-20889285D02*
X8057142Y-20775000D01*
X7942857Y-20717857D01*
X7771428Y-20717857D01*
X7657142Y-20775000D01*
X7600000Y-20889285D01*
X7600000Y-21517857D01*
X26142857Y-22667857D02*
X25857142Y-23467857D01*
X25571428Y-22667857D01*
X24600000Y-23467857D02*
X24600000Y-22839285D01*
X24657142Y-22725000D01*
X24771428Y-22667857D01*
X25000000Y-22667857D01*
X25114285Y-22725000D01*
X24600000Y-23410714D02*
X24714285Y-23467857D01*
X25000000Y-23467857D01*
X25114285Y-23410714D01*
X25171428Y-23296428D01*
X25171428Y-23182142D01*
X25114285Y-23067857D01*
X25000000Y-23010714D01*
X24714285Y-23010714D01*
X24600000Y-22953571D01*
X24028571Y-22667857D02*
X24028571Y-23467857D01*
X24028571Y-22782142D02*
X23971428Y-22725000D01*
X23857142Y-22667857D01*
X23685714Y-22667857D01*
X23571428Y-22725000D01*
X23514285Y-22839285D01*
X23514285Y-23467857D01*
X22085714Y-23125000D02*
X21514285Y-23125000D01*
X22200000Y-23467857D02*
X21800000Y-22267857D01*
X21400000Y-23467857D01*
X20085714Y-22667857D02*
X20085714Y-23467857D01*
X20085714Y-22782142D02*
X20028571Y-22725000D01*
X19914285Y-22667857D01*
X19742857Y-22667857D01*
X19628571Y-22725000D01*
X19571428Y-22839285D01*
X19571428Y-23467857D01*
X18485714Y-23467857D02*
X18485714Y-22839285D01*
X18542857Y-22725000D01*
X18657142Y-22667857D01*
X18885714Y-22667857D01*
X19000000Y-22725000D01*
X18485714Y-23410714D02*
X18600000Y-23467857D01*
X18885714Y-23467857D01*
X19000000Y-23410714D01*
X19057142Y-23296428D01*
X19057142Y-23182142D01*
X19000000Y-23067857D01*
X18885714Y-23010714D01*
X18600000Y-23010714D01*
X18485714Y-22953571D01*
X17400000Y-23467857D02*
X17400000Y-22839285D01*
X17457142Y-22725000D01*
X17571428Y-22667857D01*
X17800000Y-22667857D01*
X17914285Y-22725000D01*
X17400000Y-23410714D02*
X17514285Y-23467857D01*
X17800000Y-23467857D01*
X17914285Y-23410714D01*
X17971428Y-23296428D01*
X17971428Y-23182142D01*
X17914285Y-23067857D01*
X17800000Y-23010714D01*
X17514285Y-23010714D01*
X17400000Y-22953571D01*
X16828571Y-23467857D02*
X16828571Y-22667857D01*
X16828571Y-22896428D02*
X16771428Y-22782142D01*
X16714285Y-22725000D01*
X16600000Y-22667857D01*
X16485714Y-22667857D01*
X14771428Y-22839285D02*
X14600000Y-22896428D01*
X14542857Y-22953571D01*
X14485714Y-23067857D01*
X14485714Y-23239285D01*
X14542857Y-23353571D01*
X14600000Y-23410714D01*
X14714285Y-23467857D01*
X15171428Y-23467857D01*
X15171428Y-22267857D01*
X14771428Y-22267857D01*
X14657142Y-22325000D01*
X14600000Y-22382142D01*
X14542857Y-22496428D01*
X14542857Y-22610714D01*
X14600000Y-22725000D01*
X14657142Y-22782142D01*
X14771428Y-22839285D01*
X15171428Y-22839285D01*
X13971428Y-23353571D02*
X13914285Y-23410714D01*
X13971428Y-23467857D01*
X14028571Y-23410714D01*
X13971428Y-23353571D01*
X13971428Y-23467857D01*
D11*
X22000000Y-14000000D02*
G75*
G03X22000000Y-14000000I-2000000J0D01*
G01*
D12*
X20000000Y-15130952D02*
X20000000Y-13464285D01*
X20000000Y-12630952D02*
X20190476Y-12750000D01*
X20000000Y-12869047D01*
X19809523Y-12750000D01*
X20000000Y-12630952D01*
X20000000Y-12869047D01*
M02*
